<svg width="220" height="88" viewBox="0 0 220 88" fill="none" xmlns="http://www.w3.org/2000/svg">
<g clip-path="url(#clip0_470_2161)">
<path d="M77.7241 33.2061H74.7693C74.5196 33.2061 74.3532 33.3725 74.3532 33.6222V54.3889C74.3532 54.6386 74.5196 54.8051 74.7693 54.8051H77.7241C77.9738 54.8051 78.1403 54.6386 78.1403 54.3889V33.6222C78.1403 33.4141 77.9738 33.2061 77.7241 33.2061ZM115.346 33.2061H112.391C112.141 33.2061 111.975 33.3725 111.975 33.6222V54.3889C111.975 54.6386 112.141 54.8051 112.391 54.8051H115.346C115.595 54.8051 115.762 54.6386 115.762 54.3889V33.6222C115.762 33.4141 115.595 33.2061 115.346 33.2061ZM186.427 33.2477H183.431C183.222 33.2477 183.014 33.4141 183.014 33.6638V47.1893C183.014 47.439 182.681 47.5638 182.473 47.3557L173.234 33.6222C173.068 33.4141 172.818 33.2477 172.569 33.2477H168.823C168.615 33.2477 168.407 33.4558 168.407 33.6222V54.4306C168.407 54.6386 168.615 54.8467 168.823 54.8467H171.778C172.069 54.8467 172.194 54.6386 172.194 54.4306V39.948C172.194 39.6566 172.569 39.5318 172.735 39.7815L182.681 54.5554C182.806 54.7635 183.056 54.8883 183.264 54.8883H186.302C186.552 54.8883 186.76 54.7635 186.76 54.4306V33.6638C186.843 33.4558 186.635 33.2477 186.427 33.2477ZM137.694 51.018H127.04C126.832 51.018 126.624 50.8515 126.624 50.6018V33.6222C126.624 33.4141 126.457 33.2061 126.208 33.2061H123.211C123.003 33.2061 122.795 33.3725 122.795 33.6222V54.3889C122.795 54.597 122.961 54.8051 123.211 54.8051H137.652C137.86 54.8051 138.068 54.6386 138.068 54.3889V51.3925C138.11 51.2261 137.943 51.018 137.694 51.018ZM40.8934 54.3057L39.7697 51.8919C39.6865 51.7255 39.52 51.6006 39.3536 51.6006H33.1943C33.0278 51.6006 32.8613 51.7255 32.7781 51.8919L31.6545 54.3057C31.5712 54.5138 31.6961 54.8467 31.9874 54.8467H40.6021C40.8518 54.8467 41.0182 54.5554 40.8934 54.3057Z" fill="#005EB8"/>
<path d="M37.7307 33.6221C37.6058 33.3724 37.3561 33.2059 37.1064 33.2059H35.4417C35.1504 33.2059 34.9007 33.3724 34.8175 33.6221L25.0376 54.3056C24.9127 54.5553 25.1208 54.8466 25.3705 54.8466H28.6998C28.8663 54.8466 29.0328 54.7218 29.116 54.5969L35.9411 39.9478C36.066 39.6981 36.3989 39.6981 36.5238 39.9478L43.3905 54.5553C43.4738 54.7218 43.6402 54.805 43.8067 54.805H47.136C47.4273 54.805 47.5938 54.5137 47.469 54.264L37.7307 33.6221ZM59.4129 54.4304C59.2881 54.6801 59.0384 54.8466 58.7887 54.8466H57.124C56.8327 54.8466 56.583 54.6801 56.4998 54.4304L46.7199 33.7469C46.595 33.4972 46.8031 33.2059 47.0528 33.2059H50.3821C50.5486 33.2059 50.7151 33.3308 50.7983 33.4556L57.6234 48.0631C57.7483 48.3128 58.0812 48.3128 58.2061 48.0631L65.0728 33.4972C65.156 33.3308 65.3225 33.2475 65.489 33.2475H68.8183C69.1096 33.2475 69.2761 33.5389 69.1512 33.7886L59.4129 54.4304ZM151.802 32.7481C145.559 32.7481 140.524 37.8254 140.524 44.0263C140.524 50.2271 145.601 55.3044 151.802 55.3044C158.003 55.3044 163.08 50.2271 163.08 44.0263C163.08 37.8254 158.044 32.7481 151.802 32.7481ZM151.802 51.5173C147.682 51.5173 144.311 48.1463 144.311 44.0263C144.311 39.9062 147.682 36.5353 151.802 36.5353C155.922 36.5353 159.293 39.9062 159.293 44.0263C159.335 48.1879 155.964 51.5173 151.802 51.5173ZM106.232 43.1523C106.232 42.9026 106.024 42.7361 105.774 42.7361H97.2009C96.9512 42.7361 96.7847 42.9442 96.7847 43.1523V45.6077C96.7847 45.8574 96.9928 46.0239 97.2009 46.0239H101.529C102.028 46.0239 102.112 46.3152 101.987 46.6897C100.863 49.6445 97.9084 51.7253 94.4958 51.4756C90.9168 51.2259 87.962 48.4376 87.5458 44.8586C87.0464 40.3224 90.5838 36.4936 94.9952 36.4936C96.9928 36.4936 98.7823 37.2427 100.114 38.5329C100.281 38.6993 100.489 38.7826 100.738 38.7826H104.442C104.692 38.7826 104.858 38.4912 104.734 38.2832C102.611 34.6625 98.491 32.332 93.8716 32.7481C88.6279 33.2475 84.3413 37.4508 83.7587 42.6945C83.0096 49.5197 88.3365 55.3044 94.9952 55.3044C101.071 55.3044 106.024 50.5185 106.273 44.5257V43.9846C106.273 43.7349 106.273 43.4436 106.232 43.1523Z" fill="#005EB8"/>
<path d="M190.88 35.8699V33.5394H190.047V33.248H192.003V33.5394H191.171V35.8699H190.88ZM194.667 35.8699V33.7058L193.793 35.8699H193.668L192.794 33.7058V35.8699H192.461V33.248H192.919L193.71 35.204L194.542 33.248H195V35.8699H194.667Z" fill="black"/>
</g>
<defs>
<clipPath id="clip0_470_2161">
<rect width="170" height="22.6062" fill="white" transform="translate(25 32.6982)"/>
</clipPath>
</defs>
</svg>
