<svg width="220" height="88" viewBox="0 0 220 88" fill="none" xmlns="http://www.w3.org/2000/svg">
<g clip-path="url(#clip0_470_2261)">
<path d="M77.7929 10.5501C75.7296 10.6606 75.2138 10.7527 74.2374 11.1948C73.5926 11.4896 73.0031 11.858 72.911 12.0423C72.6715 12.4844 72.6715 13.2581 72.9294 13.7187C73.1321 14.0871 73.1321 14.0687 73.6663 13.5713C74.1637 13.0923 74.3664 13.0371 76.4481 12.8713C80.7957 12.5212 87.8514 13.2397 91.1673 14.4003C92.549 14.8608 93.2675 15.2477 94.4096 16.0951C96.6571 17.7715 100.286 24.4772 104.892 35.4752C106.034 38.2385 106.439 38.8649 106.439 37.9069C106.439 36.8753 102.607 22.5981 101.078 17.9742C100.065 14.9161 98.5362 13.0923 95.8834 11.8396C93.1385 10.5316 92.8622 10.4948 86.1749 10.4395C82.8774 10.4211 79.1008 10.4764 77.7929 10.5501Z" fill="#FC1921"/>
<path d="M59.9786 14.9533C58.2838 15.506 57.5653 16.5561 57.2153 18.9878C56.8653 21.4195 57.3811 23.6117 58.7259 25.4539C59.4812 26.4856 59.5549 26.3382 59.7207 23.8144C59.9418 20.5721 60.1629 19.3931 60.6603 18.7299C61.4524 17.6798 62.4288 17.4587 68.5818 16.9245C79.1008 16.0034 80.464 15.8376 80.2245 15.5981C79.8192 15.1928 61.0471 14.6033 59.9786 14.9533Z" fill="#FC1921"/>
<path d="M62.4105 22.0832C62.0605 22.2306 61.6184 22.507 61.4157 22.6727C61.0104 23.0412 60.1999 24.6808 60.1999 25.1782C60.1999 25.4545 60.292 25.4176 60.8446 24.9571C61.1946 24.6439 61.7657 24.3307 62.0973 24.2755C62.7789 24.1465 69.1346 25.1782 70.0925 25.5834C70.4794 25.7308 70.811 26.0624 71.0136 26.4861C71.3268 27.1309 71.3268 27.223 70.9031 28.8442C70.0557 32.1786 68.0845 37.9078 61.7289 55.5931C56.1286 71.1413 54.6732 75.2495 54.6732 75.4337C54.6732 75.5074 55.9259 75.5811 57.4365 75.5811C60.1814 75.5811 60.2183 75.5811 60.3841 75.1389C60.4762 74.8994 61.1762 72.523 61.95 69.8518C62.7237 67.1806 64.3448 61.6724 65.5423 57.6195C74.9744 25.7861 75.0297 25.5282 73.9059 24.2018C73.3164 23.5017 72.6348 23.2991 68.0845 22.4333C64.2896 21.7332 63.3685 21.6595 62.4105 22.0832Z" fill="#FC1921"/>
<path d="M94.5385 48.9612C93.2306 55.7958 92.1252 61.3961 92.07 61.3961C92.0147 61.3961 89.6198 55.8879 86.7276 49.1454C83.8353 42.4029 81.422 36.8947 81.3667 36.8947C81.2378 36.8947 81.6431 35.992 75.1032 50.8034C72.2478 57.288 69.8713 62.7409 69.8345 62.9067C69.7424 63.2015 69.9082 63.2383 71.3819 63.2383H73.0399L74.5137 59.775L75.9875 56.33L81.2193 56.2932L86.4512 56.2379L87.925 59.8303L89.3988 63.4226H92.1621H94.9438L96.4913 55.2247C97.3387 50.7113 98.094 47.0269 98.1493 47.0269C98.2045 47.0269 99.9915 50.9324 102.11 55.7037C104.247 60.475 106.016 64.3989 106.071 64.4358C106.126 64.4726 107.95 60.5303 110.124 55.6853C112.297 50.8403 114.103 46.8979 114.14 46.9348C114.177 46.9716 117.308 63.1831 117.308 63.3673C117.308 63.4041 118.543 63.4226 120.035 63.4226H122.78L124.309 59.8303L125.838 56.2379H131.033H136.228L137.683 59.7381L139.12 63.2383H140.852C142.16 63.2383 142.565 63.1831 142.491 62.9989C141.515 60.5487 131.235 36.8947 131.143 36.8947C131.088 36.8947 128.601 42.4582 125.617 49.2375C122.632 56.0169 120.164 61.5435 120.145 61.5251C120.127 61.5067 119.058 55.9248 117.75 49.1454C116.461 42.3477 115.356 36.7473 115.282 36.6552C115.227 36.5815 113.145 41.2055 110.658 46.9163C106.716 56.0353 106.144 57.2512 105.96 56.9011C105.831 56.6985 103.823 52.0745 101.465 46.6584C99.1256 41.2423 97.1361 36.7473 97.0624 36.6552C96.9887 36.5815 95.8465 42.1266 94.5385 48.9612ZM85.0327 53.2167C84.9775 53.2536 83.2274 53.272 81.1457 53.2536L77.3691 53.1983L79.3219 48.5743L81.293 43.9504L83.1905 48.5375C84.259 51.0613 85.0696 53.1614 85.0327 53.2167ZM133.041 48.648C134.036 51.0061 134.865 53.0509 134.938 53.1983C135.012 53.4378 134.459 53.4746 131.033 53.4746C128.841 53.4746 127.072 53.4009 127.109 53.3088C127.846 51.3561 131.07 44.1346 131.143 44.2267C131.217 44.3004 132.064 46.29 133.041 48.648Z" fill="black"/>
<path d="M152.126 37.7418C149.879 38.1287 149.344 38.2576 148.534 38.6077C140.741 41.8684 137.96 51.2268 142.694 58.2088C144.407 60.751 147.65 62.9064 150.652 63.5328C154.65 64.3802 159.274 63.0538 162.056 60.2721C164.193 58.1167 165.04 56.0902 165.169 52.7743L165.243 50.5268H159.974H154.705V51.9084V53.2901H158.39H162.093L161.982 53.9717C161.908 54.3586 161.743 55.0402 161.577 55.5007C160.342 58.9641 155.995 61.4511 152.218 60.8431C148.847 60.3089 146.028 58.3009 144.592 55.427C141.294 48.8504 145.642 41.0578 152.863 40.6341C155.958 40.4499 158.298 41.3894 160.656 43.7658L162.093 45.2028L163.106 44.3554C163.64 43.8764 164.101 43.3606 164.101 43.1948C164.101 43.029 163.419 42.2184 162.59 41.4078C160.895 39.7682 158.924 38.6077 156.971 38.1103C155.829 37.8155 152.955 37.5944 152.126 37.7418Z" fill="black"/>
<path d="M105.702 70.7367V75.5818H106.255H106.808V72.2658V68.9682L110.161 72.45C112.003 74.3843 113.569 75.9502 113.661 75.9502C113.734 75.9502 113.808 73.8317 113.808 71.2526V66.5549H113.163H112.519V69.7972V73.0395L110.161 70.5709C108.871 69.2261 107.342 67.6234 106.752 67.0155L105.702 65.9101V70.7367Z" fill="black"/>
<path d="M87.7962 66.5534C85.1434 67.3456 83.7802 70.6431 85.0513 73.1485C85.9172 74.8434 87.2988 75.6724 89.3068 75.6724C91.1306 75.6724 91.9596 75.2487 92.0333 74.2354C92.0701 73.867 92.0517 73.5538 92.0149 73.5538C91.9596 73.5538 91.4806 73.7565 90.928 74.0144C88.8463 74.9907 86.9488 74.2907 86.1014 72.2274C85.6961 71.2879 85.7329 70.68 86.2488 69.5562C87.133 67.6772 88.791 67.1429 90.8911 68.1009C91.4622 68.3588 91.9596 68.5798 91.9965 68.5798C92.0333 68.5798 92.0701 68.2667 92.0701 67.8614C92.0701 67.1798 92.0333 67.1245 91.1675 66.7561C90.2095 66.3508 88.7542 66.2587 87.7962 66.5534Z" fill="black"/>
<path d="M119.648 66.6273C118.635 66.9957 117.751 67.751 117.18 68.7274C116.737 69.4827 116.664 69.7959 116.664 71.067C116.664 72.3381 116.737 72.6513 117.18 73.4066C118.045 74.8804 119.593 75.7646 121.324 75.7646C122.688 75.7646 123.59 75.3962 124.622 74.383C125.359 73.6645 125.635 73.2408 125.875 72.3934C126.575 69.9433 125.341 67.4747 123.001 66.6457C122.061 66.3141 120.569 66.2957 119.648 66.6273ZM122.798 67.9537C123.811 68.4511 124.53 69.3906 124.769 70.5512C125.212 72.725 122.743 75.0462 120.588 74.4567C117.216 73.5724 116.94 68.8932 120.201 67.751C121.214 67.3826 121.73 67.4194 122.798 67.9537Z" fill="black"/>
<path d="M137.868 66.6454C135.289 67.5665 134.054 70.6798 135.289 73.1484C137.02 76.6486 142.031 76.6117 143.892 73.0931C144.5 71.9325 144.444 70.0535 143.763 68.8008C143.155 67.7139 142.363 67.0322 141.239 66.6454C140.281 66.2954 138.807 66.2954 137.868 66.6454ZM141.036 67.9534C142.049 68.4508 142.805 69.4271 143.026 70.5324C143.45 72.6694 140.963 75.0459 138.899 74.4748C135.454 73.5537 135.141 68.9113 138.439 67.7507C139.452 67.3823 139.968 67.4191 141.036 67.9534Z" fill="black"/>
<path d="M149.768 66.6094C148.921 66.8673 147.613 68.0832 147.171 69.0043C146.71 69.9622 146.655 71.8965 147.06 72.8729C148.073 75.2862 150.984 76.4284 153.324 75.3231C154.945 74.5677 155.626 73.5361 155.626 71.8781V70.9754H153.692H151.758V71.5281V72.0808H153.047C154.503 72.0808 154.595 72.1913 153.913 73.1861C152.716 74.9915 150.21 74.9362 148.737 73.1124C148.221 72.4676 148.165 72.3018 148.165 71.0675C148.165 69.9806 148.239 69.6122 148.552 69.1885C149.492 67.9174 151.408 67.2542 152.642 67.77C153.01 67.9174 153.582 68.3042 153.895 68.599C154.466 69.1516 154.484 69.1516 154.963 68.8569C155.35 68.599 155.405 68.47 155.258 68.1937C155 67.7516 154.005 66.9963 153.176 66.6462C152.421 66.3331 150.689 66.3146 149.768 66.6094Z" fill="black"/>
<path d="M69.1899 67.1069C69.2636 67.6411 69.3004 67.6595 70.2584 67.6595H71.2532V71.6203V75.5811H71.8979H72.5427V71.6203V67.6595H73.648H74.7534V67.1069V66.5542H71.9348H69.0978L69.1899 67.1069Z" fill="black"/>
<path d="M77.3324 71.0676V75.5811H79.7273H82.1221V75.0284V74.4757H80.372H78.6219V72.8177V71.1597H80.372C82.1958 71.1597 82.3064 71.1045 82.0116 70.3492C81.9195 70.1097 81.5879 70.0544 80.2615 70.0544H78.6219V68.857V67.6595H80.372H82.1221V67.1069V66.5542H79.7273H77.3324V71.0676Z" fill="black"/>
<path d="M95.3861 71.0676V75.5811H96.0309H96.6757V73.4625V71.344H98.7021H100.729V73.4625V75.5811H101.373H102.018V71.0676V66.5542H101.373H100.729V68.3043V70.0544H98.61H96.4914V68.3043V66.5542H95.9388H95.3861V71.0676Z" fill="black"/>
<path d="M129.099 71.0676V75.5811H130.849H132.599V75.0284V74.4757H131.401H130.204V70.515V66.5542H129.651H129.099V71.0676Z" fill="black"/>
<path d="M158.021 66.72C158.021 66.8121 158.445 67.6227 158.961 68.5254C160.674 71.4545 160.784 71.7677 160.784 73.7757V75.5811H161.429H162.074V73.9415C162.074 72.044 162.295 71.3255 163.419 69.4649C163.861 68.728 164.414 67.7701 164.635 67.3279L165.022 66.5542H164.285C163.566 66.5542 163.548 66.5726 162.774 67.9543C161.392 70.4229 161.54 70.386 160.398 68.3412C159.421 66.5911 159.384 66.5542 158.721 66.5542C158.334 66.5542 158.021 66.6279 158.021 66.72Z" fill="black"/>
</g>
<defs>
<clipPath id="clip0_470_2261">
<rect width="110" height="67.5904" fill="white" transform="translate(55 10.2056)"/>
</clipPath>
</defs>
</svg>
