<svg width="220" height="88" viewBox="0 0 220 88" fill="none" xmlns="http://www.w3.org/2000/svg">
<path d="M165.057 36.4371C164.462 36.4371 163.074 36.6071 163.074 38.0802V44.8507C161.771 43.3777 154.377 36.2672 148.853 36.2955C147.946 36.2955 147.351 36.4655 147.238 36.4938L146.417 36.7204H146.388V36.7488V47.0887V47.1454H146.445C146.445 47.1454 146.502 47.1454 146.615 47.1454C147.125 47.1454 148.739 47.032 148.739 45.5306V38.5051C148.909 38.4768 149.051 38.4768 149.193 38.4768C150.241 38.4768 152.139 39.355 153.697 40.2332C160.637 44.0575 160.326 47.3437 164.632 47.1737C164.915 47.1737 165.425 47.0604 165.425 46.8337V36.4938V36.4371H165.368C165.368 36.4371 165.227 36.4371 165.057 36.4371Z" fill="black"/>
<path d="M100.043 36.522H99.9862H83.1023C82.5924 36.522 82.1958 36.6919 81.9125 37.0036C81.2893 37.6834 81.4026 38.8449 81.4026 38.8732V38.9299H81.4592H89.1646V41.4228V45.0489C89.1646 46.9752 90.8077 47.1735 91.5442 47.1735C91.7425 47.1735 91.8842 47.1452 91.8842 47.1452H91.9408V47.0885V41.4228V38.9299H98.3148C98.853 38.9299 99.2779 38.7599 99.5896 38.42C100.184 37.7401 100.071 36.607 100.071 36.5786L100.043 36.522Z" fill="black"/>
<path d="M117.776 44.6523H107.295C107.04 44.6523 106.785 44.5673 106.587 44.3974C106.388 44.2274 106.275 44.0291 106.275 43.8308V41.7628V38.3067C106.275 36.5787 104.349 36.437 103.754 36.437C103.612 36.437 103.555 36.437 103.555 36.437H103.499V36.4937V41.6778V43.8308C103.499 44.284 103.612 44.709 103.81 45.1056C104.009 45.5022 104.292 45.8421 104.632 46.1254C104.972 46.4087 105.397 46.6353 105.85 46.8053C106.303 46.9753 106.813 47.0602 107.351 47.0602H119.788H119.844V47.0036C119.844 46.9753 119.929 45.9271 119.306 45.2472C118.966 44.8506 118.456 44.6523 117.776 44.6523Z" fill="black"/>
<path d="M139.136 36.3237H127.89C124.944 36.3237 122.536 38.7317 122.536 41.6778V43.8591C122.536 45.6722 124.009 47.1169 125.793 47.1169H137.04C139.986 47.1169 142.394 44.709 142.394 41.7628V39.5815C142.394 37.7685 140.921 36.3237 139.136 36.3237ZM124.887 41.6778C124.887 40.0064 126.247 38.675 127.89 38.675H139.136C139.646 38.675 140.071 39.0999 140.071 39.6099V41.7912C140.071 43.4625 138.711 44.794 137.068 44.794H125.822C125.312 44.794 124.887 44.3691 124.887 43.8591V41.6778Z" fill="black"/>
<path d="M79.5609 42.896L75 37.5985C74.6884 37.2302 74.2635 36.9186 73.7252 36.692C73.2153 36.4654 72.6488 36.3521 72.0539 36.3521C71.459 36.3521 70.8924 36.4654 70.3825 36.692C69.8442 36.9186 69.4193 37.2302 69.1077 37.5985L64.5468 42.896C64.5185 42.9243 61.6289 46.3521 61.3173 46.692C61.204 46.8336 61.1473 46.947 61.1757 47.0319C61.2323 47.1453 61.4023 47.1736 61.4306 47.1736C61.5156 47.1736 61.6289 47.1736 61.7706 47.1736C62.6771 47.1736 64.3202 47.0886 64.8301 46.5504C66.0482 45.2756 68.2295 42.6693 68.2295 42.641L71.0057 39.4399C71.119 39.3266 71.2607 39.1849 71.459 39.0149C71.6289 38.8733 71.8272 38.7883 72.0255 38.7883C72.2238 38.7883 72.3938 38.8733 72.5921 39.0149C72.7904 39.1566 72.932 39.2982 73.0454 39.4399L75.8499 42.641C75.8782 42.6693 78.0879 45.2472 79.3343 46.522C79.8726 47.0603 81.4873 47.1453 82.3938 47.1453C82.5071 47.1453 82.6204 47.1453 82.7337 47.1453C82.7621 47.1453 82.9321 47.1453 82.9887 47.0036C83.017 46.9186 82.9887 46.8053 82.8471 46.6637C82.5354 46.3237 79.5893 42.9243 79.5609 42.896Z" fill="black"/>
<path d="M186.672 42.896L182.111 37.5985C181.799 37.2302 181.374 36.9186 180.836 36.692C180.326 36.4654 179.759 36.3521 179.164 36.3521C178.57 36.3521 178.003 36.4654 177.493 36.692C176.955 36.9186 176.53 37.2302 176.218 37.5985L171.657 42.896C171.629 42.9243 168.74 46.3521 168.428 46.692C168.315 46.8336 168.258 46.947 168.286 47.0319C168.343 47.1453 168.513 47.1736 168.541 47.1736C168.626 47.1736 168.74 47.1736 168.881 47.1736C169.788 47.1736 171.431 47.0886 171.941 46.5504C173.159 45.2756 175.34 42.6693 175.34 42.641L178.116 39.4399C178.23 39.3266 178.371 39.1849 178.57 39.0149C178.74 38.8733 178.938 38.7883 179.136 38.7883C179.334 38.7883 179.504 38.8733 179.703 39.0149C179.901 39.1566 180.043 39.2982 180.156 39.4399L182.96 42.641C182.989 42.6693 185.198 45.2472 186.445 46.522C186.983 47.0603 188.598 47.1453 189.504 47.1453C189.618 47.1453 189.731 47.1453 189.844 47.1453C189.873 47.1453 190.043 47.1453 190.099 47.0036C190.128 46.9186 190.099 46.8053 189.958 46.6637C189.646 46.3237 186.7 42.9243 186.672 42.896Z" fill="black"/>
<path d="M194.717 46.8906C194.518 47.0889 194.292 47.1739 194.037 47.1739C193.782 47.1739 193.555 47.0889 193.357 46.8906C193.159 46.6923 193.074 46.4657 193.074 46.2107C193.074 45.9558 193.159 45.7291 193.357 45.5308C193.555 45.3325 193.782 45.2476 194.037 45.2476C194.292 45.2476 194.518 45.3325 194.717 45.5308C194.915 45.7291 195 45.9558 195 46.2107C194.972 46.4657 194.887 46.6923 194.717 46.8906ZM193.442 45.6158C193.272 45.7858 193.187 45.9841 193.187 46.2107C193.187 46.4374 193.272 46.6357 193.414 46.8056C193.584 46.9756 193.782 47.0606 194.009 47.0606C194.235 47.0606 194.433 46.9756 194.603 46.8056C194.773 46.6357 194.858 46.4374 194.858 46.2107C194.858 45.9841 194.773 45.7858 194.603 45.6158C194.433 45.4459 194.235 45.3609 194.009 45.3609C193.782 45.3892 193.612 45.4459 193.442 45.6158ZM194.009 45.6725C194.15 45.6725 194.235 45.6725 194.292 45.7008C194.405 45.7575 194.462 45.8425 194.462 45.9558C194.462 46.0408 194.434 46.1257 194.349 46.1541C194.32 46.1824 194.264 46.1824 194.207 46.2107C194.292 46.2107 194.349 46.2674 194.377 46.3241C194.405 46.3807 194.434 46.4374 194.434 46.494V46.579C194.434 46.6073 194.434 46.6357 194.434 46.664C194.434 46.6923 194.434 46.7206 194.434 46.7206H194.292V46.6923V46.6073C194.292 46.494 194.264 46.409 194.179 46.3524C194.15 46.324 194.065 46.3241 193.98 46.3241H193.839V46.749H193.64V45.7008H194.009V45.6725ZM194.207 45.8425C194.15 45.8141 194.094 45.8141 193.98 45.8141H193.81V46.2107H193.98C194.065 46.2107 194.122 46.2107 194.15 46.1824C194.235 46.1541 194.264 46.0974 194.264 46.0124C194.264 45.9274 194.264 45.8708 194.207 45.8425Z" fill="black"/>
<path d="M40.4674 26.2671C31.9405 26.2671 25 33.1793 25 41.7345C25 50.2614 31.9122 57.2019 40.4674 57.2019C48.9943 57.2019 55.9348 50.2898 55.9348 41.7345C55.9348 33.1793 49.0227 26.2671 40.4674 26.2671ZM39.8442 46.6354C39.6459 46.8053 39.4759 46.947 39.3626 47.0886L34.3768 52.811C32.9887 52.0461 31.7989 51.0263 30.8074 49.8082L39.6459 39.6099L39.6176 39.6382C39.7309 39.4966 39.8442 39.3549 39.9858 39.2416L40.0142 39.2133C40.0425 39.1566 40.0992 39.1 40.1558 39.0716C41.4873 37.6269 42.7904 36.607 43.9235 36.2388C42.3371 37.0603 40.9773 39.4966 40.9773 39.4966C41.7422 39.4966 42.1671 40.0348 42.3654 40.2331L50.4391 49.7798C49.5042 50.998 48.3144 52.0461 46.983 52.8677L42.932 48.1368L42.0538 47.1453C41.8839 46.9753 41.6856 46.8053 41.4306 46.607C41.1756 46.4087 40.9207 46.3238 40.6657 46.3238C40.4108 46.3238 40.1558 46.4087 39.9008 46.607C39.9008 46.5787 39.8725 46.607 39.8442 46.6354ZM45.9348 36.3237C45.9348 36.2954 45.9348 36.2954 45.9348 36.3237L45.17 35.4456C44.6884 34.879 44.0368 34.4257 43.272 34.0858C42.4788 33.7458 41.6572 33.6042 40.8074 33.6042C39.8725 33.6042 39.0227 33.7742 38.2011 34.1424C37.3796 34.5107 36.728 34.964 36.2465 35.5589L28.4278 44.6524C28.2295 43.8025 28.1161 42.896 28.1161 41.9611C28.1161 35.1339 33.6402 29.6099 40.4674 29.6099C47.2946 29.6099 52.8187 35.1339 52.8187 41.9611C52.8187 42.6977 52.7337 43.4059 52.6204 44.0858L45.9348 36.3237Z" fill="#F26829"/>
<path d="M126.077 56.7769L125.312 54.8222H123.102V58.3067L121.629 54.8506H119.873C119.618 53.8874 118.853 53.2642 117.493 53.2358H112.309V60.0064H115.624V57.7967H117.578C117.946 57.7967 118.286 57.7401 118.598 57.6268L117.522 60.0064H119.391L119.788 59.0715H121.573L121.997 60.0064H124.745V58.08L125.624 60.0064H127.692V54.8506H126.105V56.7769H126.077ZM116.728 56.3237C116.728 56.522 116.587 56.6636 116.36 56.6636H115.765V54.2273H116.36C116.587 54.199 116.7 54.3973 116.728 54.5956V56.3237ZM120.156 57.995L120.723 56.6069L121.289 57.995H120.156ZM138.258 60.0064H140.043V54.8506H138.258V60.0064ZM136.133 58.505C136.133 58.6183 136.162 58.8732 135.963 58.8449H135.51C135.312 58.8449 135.312 58.6466 135.284 58.505V54.8506H133.442V58.9299C133.442 59.9214 134.604 60.0064 134.604 60.0064H136.615C137.635 60.0064 137.607 58.9582 137.607 58.9582V54.8506H136.105L136.133 58.505ZM140.383 54.8506V55.8987H141.629V60.0064H143.357V55.9271H144.632V54.8789H140.383V54.8506ZM131.912 54.8506H128.4V60.0064H131.912C132.422 60.0064 132.847 59.8647 132.847 59.2982V55.5305C132.847 55.1055 132.422 54.8506 131.912 54.8506ZM131.176 58.42C131.176 58.6466 131.034 58.7599 130.893 58.7599H130.383V55.9271H130.836C131.034 55.9271 131.148 56.0687 131.148 56.267V58.42H131.176Z" fill="black"/>
<path d="M145.425 55.6721H145.34V55.0488H145.652C145.765 55.0488 145.878 55.0772 145.878 55.2188C145.878 55.3038 145.822 55.3321 145.793 55.3604C145.822 55.3604 145.878 55.3888 145.878 55.4738V55.5871C145.878 55.6154 145.878 55.6437 145.907 55.6437H145.793C145.793 55.6154 145.765 55.5021 145.765 55.5021C145.765 55.4454 145.765 55.3888 145.652 55.3888H145.425V55.6721ZM145.425 55.3604H145.623C145.68 55.3604 145.765 55.3321 145.765 55.2471C145.765 55.1621 145.68 55.1338 145.652 55.1338H145.425V55.3604Z" fill="black"/>
<path d="M145.623 55.9276C145.284 55.9276 145.029 55.6726 145.029 55.3893C145.029 55.0777 145.312 54.8511 145.623 54.8511C145.963 54.8511 146.218 55.106 146.218 55.3893C146.218 55.6726 145.963 55.9276 145.623 55.9276ZM145.623 54.9361C145.34 54.9361 145.114 55.1344 145.114 55.3893C145.114 55.6443 145.34 55.8426 145.623 55.8426C145.907 55.8426 146.133 55.6443 146.133 55.3893C146.133 55.1344 145.907 54.9361 145.623 54.9361Z" fill="black"/>
<path d="M109.108 59.7798C108.966 59.8648 108.74 59.8931 108.485 59.8931C108.258 59.8931 108.088 59.8364 107.946 59.7231C107.805 59.6098 107.748 59.4115 107.748 59.1565C107.493 59.4115 107.238 59.6098 106.898 59.7231C106.587 59.8364 106.218 59.8931 105.85 59.8931C105.595 59.8931 105.369 59.8648 105.17 59.8081C104.944 59.7514 104.774 59.6665 104.604 59.5815C104.434 59.4682 104.32 59.3265 104.235 59.1565C104.15 58.9866 104.094 58.7883 104.094 58.5333C104.094 58.25 104.15 58.0234 104.235 57.8534C104.349 57.6835 104.462 57.5418 104.632 57.4285C104.802 57.3152 105 57.2302 105.199 57.1735C105.425 57.1169 105.623 57.0602 105.878 57.0319C106.133 56.9752 106.36 56.9469 106.558 56.9469C106.785 56.9186 106.955 56.8902 107.125 56.8619C107.295 56.8336 107.408 56.7486 107.522 56.6919C107.606 56.607 107.663 56.4937 107.663 56.352C107.663 56.182 107.635 56.0404 107.55 55.9271C107.465 55.8138 107.38 55.7288 107.267 55.6721C107.153 55.6155 107.012 55.5871 106.898 55.5588C106.757 55.5305 106.615 55.5305 106.473 55.5305C106.105 55.5305 105.793 55.5871 105.539 55.7288C105.284 55.8704 105.142 56.097 105.142 56.4653H104.264C104.264 56.1537 104.349 55.8987 104.462 55.7004C104.575 55.5021 104.745 55.3322 104.944 55.1905C105.142 55.0489 105.397 54.9639 105.652 54.9072C105.907 54.8506 106.19 54.8223 106.502 54.8223C106.757 54.8223 106.983 54.8506 107.21 54.8789C107.437 54.9072 107.663 54.9639 107.861 55.0772C108.06 55.1622 108.201 55.3038 108.315 55.4738C108.428 55.6438 108.485 55.8704 108.485 56.1537V58.6466C108.485 58.8449 108.485 58.9582 108.513 59.0716C108.541 59.1565 108.626 59.2132 108.768 59.2132C108.853 59.2132 108.938 59.2132 109.023 59.1849V59.7798H109.108ZM107.663 57.2868C107.55 57.3718 107.408 57.4285 107.238 57.4568C107.068 57.4852 106.87 57.5135 106.672 57.5418C106.473 57.5701 106.275 57.5985 106.077 57.6268C105.878 57.6551 105.708 57.7118 105.539 57.7684C105.369 57.8251 105.255 57.9101 105.142 58.0234C105.029 58.1367 105 58.3067 105 58.505C105 58.6466 105.029 58.7599 105.085 58.8449C105.142 58.9299 105.227 59.0149 105.312 59.0716C105.397 59.1282 105.51 59.1565 105.623 59.1849C105.737 59.2132 105.878 59.2132 106.02 59.2132C106.303 59.2132 106.558 59.1849 106.757 59.0999C106.955 59.0149 107.125 58.9299 107.267 58.8166C107.408 58.7033 107.493 58.59 107.55 58.4483C107.606 58.3067 107.635 58.1934 107.635 58.0801V57.2868H107.663Z" fill="black"/>
<path d="M151.317 55.7854C151.091 55.6155 150.808 55.5305 150.439 55.5305C150.128 55.5305 149.844 55.5871 149.646 55.7005C149.419 55.8138 149.249 55.9554 149.136 56.1254C148.994 56.2954 148.909 56.4937 148.853 56.7203C148.796 56.9469 148.768 57.1735 148.768 57.4285C148.768 57.6551 148.796 57.8818 148.853 58.0801C148.909 58.3067 148.994 58.4767 149.136 58.6466C149.249 58.8166 149.419 58.9583 149.618 59.0432C149.816 59.1566 150.043 59.1849 150.326 59.1849C150.751 59.1849 151.091 59.0716 151.346 58.8733C151.601 58.675 151.742 58.3633 151.799 57.9951H152.706C152.621 58.59 152.366 59.0716 151.969 59.3832C151.572 59.6948 151.034 59.8648 150.354 59.8648C149.958 59.8648 149.589 59.8081 149.278 59.6948C148.966 59.5815 148.711 59.4115 148.485 59.1849C148.286 58.9583 148.116 58.7033 148.003 58.3917C147.89 58.0801 147.833 57.7684 147.833 57.4002C147.833 57.0319 147.89 56.692 147.975 56.3803C148.088 56.0687 148.23 55.7854 148.456 55.5588C148.655 55.3322 148.938 55.1339 149.249 54.9922C149.561 54.8506 149.929 54.7939 150.354 54.7939C150.666 54.7939 150.949 54.8223 151.204 54.8789C151.459 54.9356 151.714 55.0489 151.912 55.1905C152.111 55.3322 152.281 55.5022 152.422 55.7005C152.564 55.8988 152.649 56.1537 152.677 56.437H151.771C151.686 56.2104 151.544 55.9554 151.317 55.7854Z" fill="black"/>
<path d="M153.555 56.3808C153.669 56.0692 153.839 55.8142 154.065 55.5876C154.292 55.361 154.547 55.191 154.887 55.0494C155.199 54.9077 155.595 54.8511 155.992 54.8511C156.417 54.8511 156.785 54.9077 157.125 55.0494C157.436 55.191 157.72 55.361 157.946 55.5876C158.173 55.8142 158.343 56.0975 158.456 56.3808C158.57 56.6924 158.626 57.0324 158.626 57.3723C158.626 57.7406 158.57 58.0522 158.456 58.3638C158.343 58.6754 158.173 58.9304 157.946 59.157C157.72 59.3837 157.465 59.5536 157.125 59.6953C156.813 59.8369 156.445 59.8936 155.992 59.8936C155.567 59.8936 155.199 59.8369 154.887 59.6953C154.575 59.5536 154.292 59.3837 154.065 59.157C153.839 58.9304 153.669 58.6471 153.555 58.3638C153.442 58.0522 153.385 57.7123 153.385 57.3723C153.385 57.0324 153.442 56.6924 153.555 56.3808ZM154.434 58.1655C154.519 58.3922 154.632 58.5905 154.802 58.7321C154.944 58.8737 155.142 59.0154 155.34 59.072C155.538 59.157 155.765 59.1854 155.992 59.1854C156.218 59.1854 156.445 59.157 156.643 59.072C156.842 58.9871 157.012 58.8737 157.182 58.7321C157.323 58.5905 157.465 58.3922 157.55 58.1655C157.635 57.9389 157.691 57.6839 157.691 57.3723C157.691 57.089 157.663 56.8058 157.55 56.5791C157.465 56.3525 157.352 56.1542 157.182 56.0125C157.04 55.8426 156.842 55.7293 156.643 55.6443C156.445 55.5593 156.218 55.531 155.992 55.531C155.765 55.531 155.538 55.5593 155.34 55.6443C155.142 55.7293 154.972 55.8426 154.802 56.0125C154.66 56.1825 154.519 56.3525 154.434 56.5791C154.349 56.8058 154.292 57.0607 154.292 57.3723C154.32 57.6839 154.349 57.9389 154.434 58.1655Z" fill="black"/>
<path d="M160.439 54.9356V55.6438H160.468C160.864 55.1056 161.431 54.8223 162.196 54.8223C162.536 54.8223 162.819 54.8789 163.102 55.0206C163.385 55.1339 163.555 55.3605 163.669 55.6721C163.839 55.4172 164.094 55.2189 164.377 55.0489C164.66 54.9072 165 54.8223 165.34 54.8223C165.595 54.8223 165.85 54.8506 166.077 54.9072C166.303 54.9639 166.473 55.0489 166.643 55.1622C166.785 55.2755 166.926 55.4172 167.011 55.5871C167.096 55.7571 167.153 55.9837 167.153 56.2387V59.7798H166.275V56.607C166.275 56.4653 166.275 56.3237 166.247 56.182C166.218 56.0404 166.162 55.9271 166.105 55.8421C166.02 55.7571 165.935 55.6721 165.793 55.6155C165.652 55.5588 165.482 55.5305 165.283 55.5305C164.858 55.5305 164.519 55.6438 164.264 55.8704C164.009 56.097 163.895 56.4087 163.895 56.7769V59.8081H163.017V56.607C163.017 56.437 162.989 56.2954 162.96 56.182C162.932 56.0404 162.875 55.9271 162.79 55.8421C162.705 55.7571 162.62 55.6721 162.479 55.6155C162.337 55.5588 162.196 55.5305 161.997 55.5305C161.742 55.5305 161.516 55.5871 161.346 55.6721C161.176 55.7571 161.006 55.8704 160.892 56.0121C160.779 56.1537 160.694 56.267 160.637 56.4087C160.581 56.5503 160.553 56.6636 160.553 56.7486V59.7798H159.674V54.9356H160.439Z" fill="black"/>
<path d="M169.335 54.9356V55.5871H169.363C169.504 55.3038 169.731 55.1339 170.043 54.9922C170.354 54.8789 170.694 54.8223 171.063 54.8223C171.487 54.8223 171.827 54.8789 172.139 55.0206C172.451 55.1622 172.706 55.3322 172.904 55.5871C173.102 55.8138 173.272 56.097 173.357 56.4087C173.47 56.7203 173.499 57.0319 173.499 57.3718C173.499 57.7118 173.442 58.0517 173.357 58.335C173.244 58.6466 173.102 58.9016 172.904 59.1282C172.706 59.3548 172.451 59.5248 172.139 59.6665C171.827 59.8081 171.487 59.8648 171.063 59.8648C170.921 59.8648 170.779 59.8648 170.609 59.8364C170.439 59.8081 170.298 59.7798 170.128 59.7231C169.958 59.6665 169.816 59.5815 169.674 59.4965C169.533 59.4115 169.419 59.2699 169.306 59.1282H169.278V61.6211H168.4V54.9356H169.335ZM172.479 56.6636C172.422 56.437 172.309 56.267 172.167 56.0971C172.026 55.9271 171.856 55.7854 171.657 55.7004C171.459 55.5871 171.204 55.5588 170.921 55.5588C170.638 55.5588 170.383 55.6155 170.156 55.7288C169.958 55.8421 169.788 55.9837 169.646 56.1537C169.504 56.3237 169.419 56.522 169.363 56.7486C169.306 56.9752 169.278 57.2019 169.278 57.4002C169.278 57.6268 169.306 57.8818 169.363 58.0801C169.419 58.3067 169.533 58.505 169.646 58.6749C169.788 58.8449 169.958 58.9866 170.156 59.0716C170.383 59.1849 170.638 59.2132 170.921 59.2132C171.204 59.2132 171.487 59.1565 171.686 59.0432C171.884 58.9299 172.054 58.7883 172.167 58.6183C172.281 58.4483 172.394 58.25 172.451 58.0234C172.507 57.7968 172.536 57.5701 172.536 57.3152C172.592 57.1169 172.536 56.8903 172.479 56.6636Z" fill="black"/>
<path d="M179.278 59.7798C179.136 59.8648 178.91 59.8931 178.655 59.8931C178.428 59.8931 178.258 59.8364 178.116 59.7231C177.975 59.6098 177.918 59.4115 177.918 59.1565C177.663 59.4115 177.408 59.6098 177.068 59.7231C176.757 59.8364 176.388 59.8931 176.02 59.8931C175.765 59.8931 175.538 59.8648 175.34 59.8081C175.114 59.7514 174.944 59.6665 174.774 59.5815C174.604 59.4682 174.49 59.3265 174.405 59.1565C174.32 58.9866 174.264 58.7883 174.264 58.5333C174.264 58.25 174.32 58.0234 174.405 57.8534C174.519 57.6835 174.632 57.5418 174.802 57.4285C174.972 57.3152 175.17 57.2302 175.368 57.1735C175.595 57.1169 175.822 57.0602 176.048 57.0319C176.303 56.9752 176.53 56.9469 176.728 56.9469C176.955 56.9186 177.125 56.8902 177.295 56.8619C177.465 56.8336 177.578 56.7486 177.691 56.6919C177.776 56.607 177.833 56.4937 177.833 56.352C177.833 56.182 177.805 56.0404 177.72 55.9271C177.635 55.8138 177.55 55.7288 177.436 55.6721C177.323 55.6155 177.182 55.5871 177.068 55.5588C176.927 55.5305 176.785 55.5305 176.643 55.5305C176.275 55.5305 175.963 55.5871 175.708 55.7288C175.453 55.8704 175.34 56.097 175.312 56.4653H174.462C174.462 56.1537 174.547 55.8987 174.66 55.7004C174.774 55.5021 174.944 55.3322 175.142 55.1905C175.34 55.0489 175.595 54.9639 175.85 54.9072C176.105 54.8506 176.388 54.8223 176.7 54.8223C176.955 54.8223 177.182 54.8506 177.408 54.8789C177.635 54.9072 177.861 54.9639 178.06 55.0772C178.258 55.1622 178.4 55.3038 178.513 55.4738C178.626 55.6438 178.683 55.8704 178.683 56.1537V58.6466C178.683 58.8449 178.683 58.9582 178.711 59.0716C178.74 59.1849 178.825 59.2132 178.966 59.2132C179.051 59.2132 179.136 59.2132 179.221 59.1849V59.7798H179.278ZM177.861 57.2868C177.748 57.3718 177.606 57.4285 177.436 57.4568C177.267 57.4852 177.068 57.5135 176.87 57.5418C176.672 57.5701 176.473 57.5985 176.275 57.6268C176.077 57.6551 175.907 57.7118 175.737 57.7684C175.567 57.8251 175.453 57.9101 175.34 58.0234C175.227 58.1367 175.199 58.3067 175.199 58.505C175.199 58.6466 175.227 58.7599 175.284 58.8449C175.34 58.9299 175.425 59.0149 175.51 59.0716C175.595 59.1282 175.708 59.1565 175.85 59.1849C175.963 59.2132 176.105 59.2132 176.247 59.2132C176.53 59.2132 176.785 59.1849 176.983 59.0999C177.182 59.0149 177.351 58.9299 177.493 58.8166C177.635 58.7033 177.72 58.59 177.776 58.4483C177.833 58.3067 177.861 58.1934 177.861 58.0801V57.2868Z" fill="black"/>
<path d="M180.921 54.9356V55.7004H180.949C181.317 55.1055 181.884 54.8223 182.677 54.8223C183.017 54.8223 183.329 54.8789 183.555 54.9639C183.782 55.0489 183.98 55.1622 184.122 55.3322C184.264 55.5021 184.377 55.6721 184.434 55.8987C184.49 56.1254 184.519 56.352 184.519 56.607V59.8081H183.64V56.522C183.64 56.2104 183.555 55.9837 183.357 55.8138C183.159 55.6438 182.904 55.5588 182.564 55.5588C182.309 55.5588 182.054 55.5871 181.856 55.6721C181.657 55.7571 181.487 55.8421 181.374 55.9837C181.233 56.1254 181.148 56.2953 181.091 56.4653C181.034 56.6636 181.006 56.8619 181.006 57.0602V59.8081H180.128V54.9639H180.921V54.9356Z" fill="black"/>
<path d="M187.946 60.4313C187.833 60.6579 187.748 60.8562 187.635 61.0262C187.521 61.1962 187.436 61.3095 187.295 61.4228C187.181 61.5361 187.04 61.5928 186.898 61.6494C186.757 61.7061 186.587 61.7344 186.388 61.7344C186.275 61.7344 186.19 61.7344 186.077 61.7061C185.963 61.7061 185.878 61.6778 185.765 61.6494V60.9129C185.85 60.9412 185.935 60.9695 186.02 60.9979C186.133 61.0262 186.19 61.0262 186.275 61.0262C186.445 61.0262 186.615 60.9979 186.728 60.9129C186.842 60.8279 186.927 60.7146 187.012 60.5729L187.38 59.7514L185.255 54.9355H186.247L187.805 58.9016H187.833L189.334 54.9355H190.269L187.946 60.4313Z" fill="black"/>
</svg>
