<svg width="220" height="88" viewBox="0 0 220 88" fill="none" xmlns="http://www.w3.org/2000/svg">
<path d="M175.565 27.4061C174.598 27.6628 173.354 28.3737 172.643 29.0846C171.675 30.0521 171.241 31.0789 171.162 32.6981C171.103 33.8829 171.162 34.2778 171.576 35.1664C172.801 37.7926 175.605 39.1156 178.409 38.4048C180.403 37.8914 181.884 36.6079 182.595 34.8307C182.931 33.9619 182.871 31.8095 182.496 30.9012C181.647 28.8476 179.672 27.4851 177.382 27.3271C176.71 27.2877 175.901 27.3074 175.565 27.4061Z" fill="#005288"/>
<path d="M87.2401 28.2366C85.147 29.2831 84.0413 31.0406 84.0413 33.3311C84.0413 35.3847 85.3445 37.3396 87.3191 38.2874C88.8001 38.9983 91.0512 38.9785 92.5716 38.2282C94.6055 37.2211 95.7705 35.3847 95.7705 33.1534C95.7508 31.5145 95.1979 30.2902 93.8946 29.1252C92.7099 28.0589 91.5053 27.6245 89.7677 27.6245C88.6816 27.6245 88.2275 27.7429 87.2401 28.2366Z" fill="#005288"/>
<path d="M186.13 28.1176C186.13 28.3151 186.347 28.4138 186.821 28.4138H187.512V30.4872C187.512 32.4223 187.532 32.5605 187.907 32.5605C188.282 32.5605 188.302 32.4223 188.302 30.4872V28.4138H188.993C189.467 28.4138 189.684 28.3151 189.684 28.1176C189.684 27.8807 189.348 27.8215 187.907 27.8215C186.465 27.8215 186.13 27.8807 186.13 28.1176Z" fill="#005288"/>
<path d="M190.197 29.5394C190.118 30.5069 190.019 31.5732 189.96 31.9089C189.881 32.4618 189.921 32.5605 190.276 32.5605C190.632 32.5605 190.671 32.4421 190.691 31.0203C190.711 28.6508 190.888 28.5916 191.54 30.7044C191.974 32.0866 192.192 32.5605 192.428 32.5211C192.606 32.4816 193.001 31.6917 193.436 30.4872L194.127 28.5126L194.166 29.6973C194.265 31.7707 194.423 32.5605 194.759 32.5605C195.035 32.5605 195.055 32.2841 194.917 30.3292C194.838 29.1247 194.739 28.0584 194.68 27.9597C194.64 27.8807 194.443 27.8215 194.225 27.8215C193.949 27.8215 193.732 28.2164 193.258 29.5196C192.922 30.4477 192.646 31.2968 192.626 31.435C192.606 31.751 192.369 31.1981 191.737 29.3419C191.283 28.0387 191.145 27.8215 190.77 27.8215C190.335 27.8215 190.296 27.9202 190.197 29.5394Z" fill="#005288"/>
<path d="M31.2596 36.174C30.3117 38.82 29.5416 41.0118 29.5416 41.071C29.5416 41.1105 35.3865 41.1303 42.5149 41.0908C56.5742 41.0118 57.3838 41.071 59.2202 42.0781C60.1878 42.6112 60.9381 43.6578 60.9381 44.4476C60.9381 46.284 58.8845 47.8242 51.4599 51.5365L47.2145 53.6691L48.1031 54.0443C51.8944 55.703 54.2639 57.1247 55.7054 58.5662C57.5418 60.4223 58.1144 62.6141 57.2456 64.569C56.3965 66.4844 54.8365 67.6494 52.4078 68.1826C49.979 68.7355 40.4021 69.2686 40.4021 68.8737C40.4021 68.538 40.9155 66.8398 44.2723 56.0979C45.9507 50.7269 47.3132 46.2248 47.3132 46.0668C47.3132 45.8299 46.3852 45.7904 41.0537 45.8299L34.8139 45.8891L29.9168 61.7848C27.2116 70.5324 25.0197 77.799 25 77.9372C25 78.3519 53.4938 78.1544 55.7054 77.7398C61.3528 76.6537 65.5192 74.4421 67.9283 71.2432C69.9227 68.5973 70.7125 66.2869 70.7125 63.0683C70.7125 59.4548 69.6265 56.8877 66.9015 54.1035C66.1116 53.2939 65.4995 52.6226 65.5192 52.6028C65.5587 52.5831 66.2893 52.0894 67.1582 51.5168C72.9241 47.686 75.7478 43.5985 75.7478 39.0569C75.7478 34.851 73.2795 32.5604 67.7506 31.6718C66.2893 31.4349 63.0115 31.3756 49.4656 31.3756H32.9577L31.2596 36.174Z" fill="#005288"/>
<path d="M169.246 43.262C169.187 43.4003 166.798 51.0618 163.915 60.303C161.032 69.5245 158.623 77.2453 158.564 77.4427C158.465 77.7587 158.741 77.7784 163.441 77.7389L168.417 77.6797L173.709 60.7967C176.612 51.516 179.04 43.7162 179.119 43.4595L179.218 43.0251H174.282C170.51 43.0251 169.306 43.0843 169.246 43.262Z" fill="#005288"/>
<path d="M78.3153 58.4675C75.7878 66.7609 73.4182 74.4817 73.0628 75.6467L72.4309 77.7793H77.3872H82.3633L86.6877 63.6015C89.077 55.8215 91.4465 48.081 91.9599 46.4223L92.888 43.4209H87.9119H82.9359L78.3153 58.4675Z" fill="#005288"/>
<path d="M111.884 43.7566C105.545 44.4279 100.372 47.0344 97.3507 51.0627C93.1053 56.7101 92.3154 64.0952 95.3959 69.5846C96.2647 71.1446 98.2788 73.3561 99.7203 74.304C103.512 76.8117 107.224 77.7793 113.207 77.7793H116.426L118.301 74.0275C119.328 71.9739 120.177 70.2165 120.177 70.1573C120.177 70.0783 119.94 70.0783 119.644 70.1375C118.716 70.3152 114.826 69.9203 113.266 69.4859C108.902 68.2616 105.94 65.6551 105.17 62.3378C104.519 59.4746 105.506 56.0979 107.619 53.9654C109.909 51.6945 111.43 51.3194 118.815 51.3194H124.245L126.516 48.0415C127.74 46.2248 128.925 44.4872 129.122 44.191L129.498 43.6183L121.026 43.6578C116.386 43.6578 112.259 43.7171 111.884 43.7566Z" fill="#005288"/>
<path d="M143.319 43.8355C141.819 44.0922 139.41 44.9215 138.185 45.6324C135.144 47.3701 133.032 50.5689 133.012 53.4519C133.012 54.4984 133.604 56.1966 134.394 57.4209C134.71 57.954 136.724 60.5408 138.837 63.1868C142.905 68.2813 143.122 68.6762 142.273 69.4463C142.056 69.6635 141.601 69.9005 141.266 69.9597C140.93 70.019 137.573 70.0782 133.802 70.0782H126.95L125.153 73.8102C124.146 75.8639 123.336 77.6015 123.336 77.6608C123.336 77.7397 128.154 77.7595 134.058 77.72C146.163 77.641 146.104 77.641 149.362 76.1008C151.692 74.995 153.528 73.2574 154.555 71.1643C155.167 69.9005 155.226 69.6438 155.226 68.0049C155.226 66.3264 155.187 66.1487 154.476 64.8455C154.061 64.0556 152.008 61.3701 149.697 58.5464C147.486 55.8609 145.61 53.4716 145.531 53.2544C145.353 52.6818 145.57 52.0499 146.084 51.7142C146.459 51.4773 147.703 51.3983 152.936 51.3193L159.334 51.2206L160.479 47.6663C161.111 45.7114 161.644 43.9935 161.644 43.8552C161.644 43.6775 159.807 43.6183 153.015 43.638C148.256 43.6578 143.892 43.7368 143.319 43.8355Z" fill="#005288"/>
<path d="M92.0454 25.6968C106.799 13.7275 144.441 -3.02966 176.978 25.6968C165.016 15.882 130.854 4.21134 92.0454 25.6968Z" fill="#B1B7BC"/>
</svg>
