<svg width="36" height="16" viewBox="0 0 36 16" fill="none" xmlns="http://www.w3.org/2000/svg">
<rect x="0.5" y="0.5" width="35" height="15" rx="7.5" stroke="white"/>
<path d="M13 5.30469H23C23.3711 5.30469 23.7194 5.3763 24.0449 5.51953C24.377 5.66276 24.6634 5.85482 24.9043 6.0957C25.1452 6.33659 25.3372 6.62305 25.4805 6.95508C25.6237 7.2806 25.6953 7.62891 25.6953 8C25.6953 8.37109 25.6237 8.7194 25.4805 9.04492C25.3372 9.37695 25.1452 9.66341 24.9043 9.9043C24.6634 10.1452 24.377 10.3372 24.0449 10.4805C23.7194 10.6237 23.3711 10.6953 23 10.6953H13C12.6289 10.6953 12.2806 10.6237 11.9551 10.4805C11.623 10.3372 11.3366 10.1452 11.0957 9.9043C10.8548 9.66341 10.6628 9.37695 10.5195 9.04492C10.3763 8.7194 10.3047 8.37109 10.3047 8C10.3047 7.62891 10.3763 7.2806 10.5195 6.95508C10.6628 6.62305 10.8548 6.33659 11.0957 6.0957C11.3366 5.85482 11.623 5.66276 11.9551 5.51953C12.2806 5.3763 12.6289 5.30469 13 5.30469Z" fill="white"/>
</svg>
