<svg width="220" height="88" viewBox="0 0 220 88" fill="none" xmlns="http://www.w3.org/2000/svg">
<path d="M71.3473 18.4476C67.1048 19.3482 62.7622 21.4294 59.1801 24.2911C57.4191 25.6919 54.8576 28.4135 53.7169 30.0945C53.2166 30.8349 52.7763 31.4353 52.7163 31.4353C52.6563 31.4353 51.0153 29.8543 49.0541 27.9332L45.472 24.4312H35.246H25L34.4656 33.8967L43.9111 43.3423L34.4656 52.8079L25 62.2534H35.206H45.412L48.9141 58.7513C50.8352 56.8302 52.4962 55.2493 52.6162 55.2693C52.7163 55.2693 53.1365 55.7896 53.5568 56.41C57.1989 62.0933 64.3231 66.8561 71.3272 68.317C74.7693 69.0174 75.1695 68.9373 72.0677 68.1569C68.6857 67.2964 65.1036 65.5153 62.322 63.294C59.6804 61.1728 56.7387 57.4506 55.2978 54.3888L54.6574 53.008L53.7369 53.9285C53.2166 54.4288 52.7363 54.8491 52.6563 54.8491C52.4762 54.8491 51.3755 52.6478 50.7952 51.1269C49.2543 47.0044 49.0141 41.8614 50.1748 37.6389C50.6751 35.8779 51.9158 32.8161 52.4361 32.1357C52.7163 31.7755 52.7563 31.7955 53.6969 32.716L54.6775 33.6766L54.0971 35.3576C52.4161 40.2805 52.3961 46.0839 54.0371 51.2669C54.3172 52.1475 54.5974 52.8479 54.6775 52.8479C54.7575 52.8479 55.578 52.0674 56.5386 51.1269L58.2596 49.4259L64.7434 55.8296L71.2272 62.2534H81.4332H91.6392L83.0341 53.6483C78.3114 48.9056 74.369 45.0433 74.289 45.0433C74.2089 45.0433 74.1089 46.8043 74.0889 48.9456L74.0288 52.8279L69.3261 48.1651C66.7446 45.6036 64.6233 43.4223 64.5833 43.3223C64.5633 43.2222 66.6845 40.9809 69.3261 38.3393L74.1289 33.5365V37.5789C74.1289 39.8202 74.1889 41.6413 74.289 41.6413C74.4691 41.6413 91.339 24.7514 91.339 24.5712C91.339 24.4912 86.7763 24.4312 81.1931 24.4312H71.0271L64.6833 30.7749L58.3196 37.1386L56.5386 35.3576L54.7575 33.5765L55.0777 32.8561C58.4197 25.6319 64.5233 20.5889 72.4079 18.5277C74.6292 17.9473 73.9488 17.9073 71.3473 18.4476Z" fill="#7CAED6"/>
<path d="M107.609 24.4511C104.727 25.5518 103.206 28.8137 102.726 34.8773C102.466 38.1192 102.746 42.4417 103.346 45.0032C104.046 47.945 105.447 50.0062 107.248 50.7666C108.329 51.2269 110.971 51.2269 112.031 50.7666C114.212 49.8461 115.813 47.5647 116.274 44.703L116.394 43.9426L114.673 43.3623C113.732 43.0421 112.932 42.8019 112.892 42.862C112.852 42.902 112.712 43.5224 112.591 44.2028C112.291 45.8837 111.531 47.1845 110.59 47.5847C107.609 48.8255 106.128 44.8431 106.408 36.3381C106.588 31.2351 107.208 28.6536 108.489 27.633C109.109 27.1527 110.47 27.0927 111.111 27.553C111.631 27.9132 112.291 29.1339 112.511 30.1345C112.591 30.5347 112.692 30.8749 112.752 30.8749C113.092 30.975 116.154 29.9143 116.154 29.6942C116.154 29.0338 115.033 26.7525 114.292 25.912C112.692 24.0909 110.05 23.5106 107.609 24.4511Z" fill="#2E2925"/>
<path d="M121.757 37.5388V50.6465H126.46H131.162V49.0455V47.4446H128.261H125.359V42.8419V38.2392H128.261H131.162V36.7383V35.2374H128.261H125.359V31.3351V27.4328H128.261H131.162V25.9319V24.4311H126.46H121.757V37.5388Z" fill="#2E2925"/>
<path d="M138.767 37.5388V50.6465H143.47H148.172V49.0455V47.4446H145.271H142.369V35.9378V24.4311H140.568H138.767V37.5388Z" fill="#2E2925"/>
<path d="M167.384 37.5388V50.6465H169.185H170.986V44.4428V38.2392H173.888H176.789V36.7383V35.2374H173.888H170.986V31.3351V27.4328H173.888H176.789V25.9319V24.4311H172.087H167.384V37.5388Z" fill="#2E2925"/>
<path d="M183.994 37.5388V50.6465H185.795H187.596V37.5388V24.4311H185.795H183.994V37.5388Z" fill="#2E2925"/>
<path d="M152.975 40.921V42.4219L156.337 42.3819L159.679 42.3418L159.739 40.881L159.799 39.4401H156.377H152.975V40.921Z" fill="#2E2925"/>
<path d="M190.197 50.8266C190.197 50.9267 190.377 51.0468 190.598 51.1068C190.938 51.1868 190.998 51.387 190.998 52.2274C190.998 52.7878 191.098 53.248 191.198 53.248C191.318 53.248 191.398 52.7478 191.398 52.1474C191.398 51.3069 191.458 51.0468 191.698 51.0468C191.858 51.0468 191.998 50.9467 191.998 50.8466C191.998 50.7266 191.598 50.6465 191.098 50.6465C190.598 50.6465 190.197 50.7266 190.197 50.8266Z" fill="#2E2925"/>
<path d="M192.398 51.9274C192.398 52.888 192.478 53.2482 192.659 53.2482C192.839 53.2482 192.919 53.0081 192.899 52.5478C192.899 52.1676 192.919 51.8474 192.959 51.8474C192.999 51.8474 193.159 52.1676 193.319 52.5478C193.679 53.4083 193.919 53.4483 194.099 52.6479C194.3 51.7273 194.6 51.7273 194.6 52.6479C194.6 53.1482 194.68 53.4283 194.8 53.3483C194.92 53.2882 195 52.6479 195 51.9274C195 50.3465 194.66 50.2264 194.079 51.5872L193.679 52.5478L193.379 51.6473C193.199 51.127 192.919 50.7267 192.739 50.6867C192.438 50.6267 192.398 50.8068 192.398 51.9274Z" fill="#2E2925"/>
<path d="M114.152 59.1114C114.152 60.8124 114.192 62.2333 114.252 62.2733C114.292 62.3333 114.653 62.3333 115.053 62.2933L115.753 62.2132V60.4722L115.773 58.7512L116.294 59.3516C116.574 59.6718 117.334 60.5122 117.955 61.2127C119.656 63.0337 119.756 62.9337 119.756 59.1314V56.0496H119.055H118.375L118.315 57.7506L118.255 59.4716L116.754 57.7706C115.573 56.4499 115.133 56.0696 114.713 56.0696L114.152 56.0496V59.1114Z" fill="#2E2925"/>
<path d="M123.958 59.1516V62.2534H127.06H130.162V61.6531V61.0727L127.821 61.0127L125.459 60.9527L125.399 60.2923L125.339 59.6519H126.84H128.361V58.9515V58.2511H126.86C125.499 58.2511 125.359 58.211 125.359 57.8508C125.359 57.4906 125.519 57.4506 127.62 57.4106L129.862 57.3505L129.922 56.6901L129.982 56.0498H126.98H123.958V59.1516Z" fill="#2E2925"/>
<path d="M132.964 56.1699C132.964 56.2299 133.504 56.8903 134.164 57.6708C134.825 58.4312 135.365 59.0916 135.365 59.1316C135.365 59.1716 134.825 59.8721 134.164 60.6525C133.504 61.433 132.964 62.1534 132.964 62.2134C132.964 62.2935 133.324 62.3535 133.764 62.3535C134.505 62.3535 134.665 62.2535 135.425 61.2929L136.266 60.2323L137.166 61.2729C137.967 62.1734 138.187 62.2935 138.927 62.3335C139.387 62.3535 139.768 62.3335 139.768 62.2935C139.768 62.2535 139.187 61.533 138.487 60.6725L137.226 59.1516L138.487 57.6507L139.768 56.1499L138.907 56.0898C138.107 56.0298 138.027 56.0898 137.166 57.0504L136.266 58.091L135.465 57.0704C134.725 56.1499 134.585 56.0698 133.824 56.0498C133.344 56.0498 132.964 56.0898 132.964 56.1699Z" fill="#2E2925"/>
<path d="M142.169 56.6501C142.169 57.2105 142.189 57.2305 143.33 57.2905L144.47 57.3505L144.53 59.792L144.59 62.2534H145.271H145.971V59.7519V57.2505H147.172H148.373V56.6501V56.0498H145.271H142.169V56.6501Z" fill="#2E2925"/>
<path d="M151.775 59.2517V62.4536H152.475H153.175V59.2517V56.0498H152.475H151.775V59.2517Z" fill="#2E2925"/>
<path d="M156.978 56.1499C156.978 56.2099 157.658 57.6107 158.478 59.2517C160.48 63.2341 160.4 63.2341 162.441 59.1516L163.982 56.0498H163.181H162.381L161.44 57.9509C160.92 58.9916 160.44 59.8521 160.38 59.8521C160.32 59.8521 159.839 58.9916 159.319 57.9509C158.398 56.0898 158.358 56.0498 157.678 56.0498C157.298 56.0498 156.978 56.0898 156.978 56.1499Z" fill="#2E2925"/>
<path d="M167.424 59.1917L167.484 62.3536L168.144 62.4136L168.785 62.4736V59.2717V56.0499H168.084H167.364L167.424 59.1917Z" fill="#2E2925"/>
<path d="M172.187 56.6501V57.2505H173.387H174.588V59.7519V62.2534H175.388H176.189V59.7519V57.2505H177.39H178.59V56.6501V56.0498H175.388H172.187V56.6501Z" fill="#2E2925"/>
<path d="M180.972 56.39C181.072 56.5901 181.712 57.2905 182.373 57.9509L183.593 59.1316V60.6725V62.2134L184.294 62.2935L184.994 62.3735V60.7726V59.1917L186.455 57.6708L187.896 56.1499L187.015 56.0898C186.195 56.0298 186.055 56.0898 185.214 56.9303L184.274 57.8509L183.393 56.9503C182.613 56.1499 182.413 56.0498 181.652 56.0498C180.872 56.0498 180.792 56.0898 180.972 56.39Z" fill="#2E2925"/>
<path d="M103.546 59.952C103.546 61.653 103.606 62.2534 103.806 62.2734C105.487 62.4135 106.008 62.3134 106.488 61.7531C106.888 61.2928 106.968 61.0327 106.868 60.4923C106.688 59.3917 106.228 59.0115 105.107 59.0915L104.146 59.1515V58.3911C104.146 57.8708 104.066 57.6507 103.846 57.6507C103.606 57.6507 103.546 58.0309 103.546 59.952ZM105.747 60.0521C105.968 60.2722 106.148 60.5123 106.148 60.6124C106.148 60.9726 105.487 61.653 105.147 61.653C104.807 61.653 104.146 60.9726 104.146 60.6124C104.146 60.3923 104.907 59.6518 105.147 59.6518C105.267 59.6518 105.527 59.8319 105.747 60.0521Z" fill="#2E2925"/>
<path d="M107.348 59.2319C107.348 59.3119 107.609 60.0523 107.949 60.8528C108.509 62.1936 108.529 62.3337 108.249 62.854C107.849 63.6144 107.869 63.6945 108.369 63.6144C108.689 63.5744 109.009 63.0341 109.77 61.3531C110.31 60.1524 110.75 59.1318 110.75 59.1118C110.75 58.9117 109.75 59.1118 109.73 59.2919C109.73 59.432 109.55 59.9123 109.35 60.3525L108.989 61.153L108.549 60.0924C108.229 59.3719 107.989 59.0518 107.729 59.0518C107.508 59.0518 107.348 59.1318 107.348 59.2319Z" fill="#2E2925"/>
</svg>
