<svg width="220" height="88" viewBox="0 0 220 88" fill="none" xmlns="http://www.w3.org/2000/svg">
<g clip-path="url(#clip0_470_2305)">
<path d="M76.6954 74.8645V69.3068L76.5865 69.3545C75.3339 69.9611 73.9712 70.3069 72.5809 70.3712C71.136 70.4845 69.7001 70.0612 68.5476 69.1823C67.7246 68.5471 67.1127 67.678 66.792 66.689C66.4382 65.6114 66.3974 64.4555 66.6743 63.3557C66.9313 62.2307 67.5614 61.2259 68.462 60.5045C69.2608 59.8365 70.2369 59.4157 71.2709 59.2934C73.0986 59.0908 74.9452 59.4369 76.5754 60.2879L76.6954 60.3501V54.7612L76.442 54.6934C74.8099 54.1692 73.0963 53.9449 71.3843 54.0312C69.8249 54.0712 68.2893 54.4226 66.8676 55.0645C65.4323 55.7218 64.1669 56.6994 63.1687 57.9223C61.6517 59.842 60.8098 62.2082 60.7732 64.6547C60.7367 67.1012 61.5075 69.4915 62.9665 71.4557C64.4429 73.3443 66.5155 74.6771 68.8465 75.2368C71.3032 75.8345 73.8776 75.7434 76.2876 74.9768L76.6954 74.8645Z" fill="#02C8FF"/>
<path d="M131.695 74.8645V69.3068L131.586 69.3545C130.334 69.9611 128.971 70.3069 127.581 70.3712C126.136 70.4845 124.7 70.0612 123.548 69.1823C122.725 68.5471 122.113 67.678 121.792 66.689C121.438 65.6114 121.397 64.4555 121.674 63.3557C121.931 62.2307 122.561 61.2259 123.462 60.5045C124.261 59.8365 125.237 59.4157 126.271 59.2934C128.099 59.0908 129.945 59.4369 131.575 60.2879L131.695 60.3501V54.7612L131.442 54.6934C129.81 54.1692 128.096 53.9449 126.384 54.0312C124.825 54.0712 123.289 54.4226 121.868 55.0645C120.432 55.7218 119.167 56.6994 118.169 57.9223C116.652 59.842 115.81 62.2082 115.773 64.6547C115.737 67.1012 116.508 69.4915 117.966 71.4557C119.443 73.3443 121.516 74.6771 123.846 75.2368C126.303 75.8345 128.878 75.7434 131.288 74.9768L131.695 74.8645Z" fill="#02C8FF"/>
<path fill-rule="evenodd" clip-rule="evenodd" d="M96.3222 70.2513L96.3011 75.0379L96.6511 75.0979C97.7499 75.3035 98.8588 75.4457 99.9733 75.5257C100.949 75.6161 101.93 75.635 102.909 75.5824C103.844 75.5157 104.77 75.3402 105.664 75.0624C106.715 74.7652 107.69 74.2457 108.523 73.539C109.273 72.8988 109.846 72.0771 110.188 71.1524C110.784 69.6041 110.772 67.8877 110.154 66.3479C109.83 65.5489 109.318 64.8394 108.662 64.279C108.028 63.7078 107.283 63.2739 106.473 63.0046L102.862 61.6646C102.431 61.4813 102.081 61.1477 101.877 60.7257C101.798 60.5524 101.761 60.3633 101.768 60.1732C101.775 59.9831 101.826 59.7972 101.917 59.6302C101.981 59.5115 102.063 59.4027 102.158 59.3068C102.312 59.1489 102.493 59.0185 102.691 58.9213C103.094 58.7213 103.53 58.5957 103.978 58.5468C104.742 58.4366 105.518 58.4448 106.28 58.5713C107.18 58.669 108.072 58.8279 108.949 59.049L109.135 59.0902V54.6746L108.791 54.6002C107.896 54.386 106.989 54.2246 106.075 54.1168C104.891 53.9586 103.691 53.9534 102.505 54.1013C101.003 54.2388 99.5745 54.8136 98.3955 55.7546C97.5963 56.382 96.9883 57.2201 96.6399 58.1746C96.1158 59.6286 96.1147 61.2198 96.6366 62.6746C96.9055 63.3968 97.3366 64.049 97.8988 64.579C98.3844 65.0479 98.9344 65.4457 99.5322 65.7624C100.319 66.1846 101.152 66.5124 102.015 66.7379C102.301 66.8235 102.584 66.9135 102.867 67.0079L103.294 67.1646L103.417 67.2146C103.839 67.3657 104.223 67.6035 104.548 67.9124C104.772 68.1235 104.945 68.3824 105.053 68.6713C105.12 68.9346 105.121 69.2101 105.057 69.4746C104.921 69.9004 104.625 70.2563 104.23 70.4657C103.8 70.6892 103.334 70.8348 102.853 70.8957C102.148 71.0077 101.433 71.0438 100.72 71.0035C99.7851 70.9334 98.855 70.8095 97.9344 70.6324C97.4533 70.5324 96.9744 70.4213 96.4999 70.2957L96.3222 70.2513ZM83.9399 75.2313H89.1955V54.3857H83.9399V75.2313ZM144.783 60.5413C145.345 60.0837 145.992 59.7421 146.686 59.536C147.381 59.33 148.109 59.2636 148.83 59.3408C149.55 59.4179 150.248 59.6371 150.883 59.9856C151.518 60.3341 152.078 60.805 152.53 61.3711C152.982 61.9372 153.317 62.5873 153.516 63.2838C153.716 63.9802 153.775 64.7093 153.691 65.4288C153.606 66.1484 153.381 66.8441 153.026 67.4758C152.671 68.1074 152.195 68.6626 151.624 69.109C150.486 69.9889 149.047 70.3859 147.619 70.2144C146.19 70.0429 144.886 69.3166 143.988 68.1922C143.09 67.0679 142.67 65.6356 142.819 64.2045C142.968 62.7733 143.673 61.4569 144.783 60.5413ZM137.153 64.8179C137.178 66.445 137.565 68.0461 138.286 69.5051C139.006 70.9641 140.042 72.2446 141.319 73.2535C142.596 74.2624 144.081 74.9746 145.667 75.3384C147.253 75.7022 148.9 75.7085 150.489 75.3568C152.623 74.9551 154.584 73.9135 156.112 72.3705C157.64 70.8275 158.662 68.8561 159.043 66.7183C159.423 64.5804 159.145 62.3773 158.243 60.4017C157.342 58.4262 155.861 56.7716 153.997 55.6579C152.341 54.6332 150.444 54.0647 148.497 54.01C146.551 53.9554 144.625 54.4165 142.915 55.3467C141.204 56.2769 139.77 57.643 138.758 59.3064C137.746 60.9698 137.192 62.8713 137.152 64.8179" fill="#02C8FF"/>
<path d="M50 37.6336C50.0374 38.1225 50.2118 38.5909 50.5033 38.9852C50.7947 39.3796 51.1914 39.6837 51.6478 39.8629C52.1042 40.0421 52.6019 40.0891 53.0837 39.9984C53.5656 39.9077 54.0122 39.6831 54.3722 39.3503C54.8544 38.9025 55.15 38.2892 55.1989 37.6336V31.8558C55.1848 31.1757 54.9048 30.5282 54.4188 30.0522C53.9329 29.5762 53.2797 29.3096 52.5994 29.3096C51.9192 29.3096 51.266 29.5762 50.7801 30.0522C50.2941 30.5282 50.0141 31.1757 50 31.8558V37.6336Z" fill="#02C8FF"/>
<path d="M64.3892 37.6331C64.439 38.2887 64.7345 38.9014 65.2165 39.3487C65.6985 39.7959 66.3316 40.0447 66.9892 40.0453C67.6467 40.0452 68.28 39.7965 68.7619 39.3492C69.2439 38.9018 69.539 38.2888 69.588 37.6331V24.6809C69.5639 24.0076 69.2795 23.3699 68.7947 22.9021C68.3098 22.4343 67.6623 22.1729 66.9886 22.1729C66.3149 22.1729 65.6674 22.4343 65.1826 22.9021C64.6977 23.3699 64.4133 24.0076 64.3892 24.6809V37.6342" fill="#02C8FF"/>
<path d="M78.7024 42.85C78.7495 43.5071 79.0438 44.122 79.526 44.5709C80.0082 45.0197 80.6425 45.2693 81.3013 45.2693C81.9601 45.2693 82.5944 45.0197 83.0766 44.5709C83.5588 44.122 83.8531 43.5071 83.9002 42.85V14.8333C83.8664 14.1668 83.5779 13.5388 83.0942 13.079C82.6105 12.6192 81.9686 12.3628 81.3013 12.3628C80.6339 12.3628 79.9921 12.6192 79.5084 13.079C79.0247 13.5388 78.7362 14.1668 78.7024 14.8333V42.85Z" fill="#02C8FF"/>
<path d="M93.1392 37.6331C93.189 38.2887 93.4845 38.9014 93.9665 39.3487C94.4485 39.7959 95.0816 40.0447 95.7392 40.0453C96.3967 40.0452 97.03 39.7965 97.5119 39.3492C97.9939 38.9018 98.289 38.2888 98.338 37.6331V24.6809C98.3139 24.0076 98.0295 23.3699 97.5447 22.9021C97.0598 22.4343 96.4123 22.1729 95.7386 22.1729C95.0649 22.1729 94.4174 22.4343 93.9326 22.9021C93.4477 23.3699 93.1633 24.0076 93.1392 24.6809V37.6342" fill="#02C8FF"/>
<path d="M107.5 37.6336C107.537 38.1225 107.712 38.5909 108.003 38.9852C108.295 39.3796 108.691 39.6837 109.148 39.8629C109.604 40.0421 110.102 40.0891 110.584 39.9984C111.066 39.9077 111.512 39.6831 111.872 39.3503C112.354 38.9025 112.65 38.2892 112.699 37.6336V31.8558C112.685 31.1757 112.405 30.5282 111.919 30.0522C111.433 29.5762 110.78 29.3096 110.099 29.3096C109.419 29.3096 108.766 29.5762 108.28 30.0522C107.794 30.5282 107.514 31.1757 107.5 31.8558V37.6336Z" fill="#02C8FF"/>
<path d="M121.889 37.6331C121.939 38.2887 122.234 38.9014 122.716 39.3487C123.199 39.7959 123.832 40.0447 124.489 40.0453C125.147 40.0452 125.78 39.7965 126.262 39.3492C126.744 38.9018 127.039 38.2888 127.088 37.6331V24.6809C127.064 24.0076 126.78 23.3699 126.295 22.9021C125.81 22.4343 125.162 22.1729 124.489 22.1729C123.815 22.1729 123.167 22.4343 122.683 22.9021C122.198 23.3699 121.913 24.0076 121.889 24.6809V37.6342" fill="#02C8FF"/>
<path d="M136.202 42.85C136.249 43.5071 136.544 44.122 137.026 44.5709C137.508 45.0197 138.142 45.2693 138.801 45.2693C139.46 45.2693 140.094 45.0197 140.576 44.5709C141.059 44.122 141.353 43.5071 141.4 42.85V14.8333C141.366 14.1668 141.078 13.5388 140.594 13.079C140.11 12.6192 139.468 12.3628 138.801 12.3628C138.134 12.3628 137.492 12.6192 137.008 13.079C136.524 13.5388 136.236 14.1668 136.202 14.8333V42.85Z" fill="#02C8FF"/>
<path d="M150.639 37.6331C150.689 38.2887 150.984 38.9014 151.466 39.3487C151.949 39.7959 152.582 40.0447 153.239 40.0453C153.897 40.0452 154.53 39.7965 155.012 39.3492C155.494 38.9018 155.789 38.2888 155.838 37.6331V24.6809C155.814 24.0076 155.53 23.3699 155.045 22.9021C154.56 22.4343 153.912 22.1729 153.239 22.1729C152.565 22.1729 151.917 22.4343 151.433 22.9021C150.948 23.3699 150.663 24.0076 150.639 24.6809V37.6342" fill="#02C8FF"/>
<path d="M164.861 37.6336C164.898 38.1225 165.073 38.5909 165.364 38.9852C165.656 39.3796 166.052 39.6837 166.509 39.8629C166.965 40.0421 167.463 40.0891 167.945 39.9984C168.427 39.9077 168.873 39.6831 169.233 39.3503C169.716 38.9025 170.011 38.2892 170.06 37.6336V31.8558C170.046 31.1757 169.766 30.5282 169.28 30.0522C168.794 29.5762 168.141 29.3096 167.461 29.3096C166.78 29.3096 166.127 29.5762 165.641 30.0522C165.155 30.5282 164.875 31.1757 164.861 31.8558V37.6336Z" fill="#02C8FF"/>
</g>
<defs>
<clipPath id="clip0_470_2305">
<rect width="120" height="63.3333" fill="white" transform="translate(50 12.3345)"/>
</clipPath>
</defs>
</svg>
