<svg width="220" height="88" viewBox="0 0 220 88" fill="none" xmlns="http://www.w3.org/2000/svg">
<path d="M43.1502 28.3691C42.6367 28.4785 42.3757 28.6562 42.4851 28.8476C42.5188 28.8886 43.0997 29.2029 43.7901 29.5447C48.0922 31.6497 51.0052 34.2057 52.5291 37.2128C53.4215 38.9624 53.7667 40.5617 53.5983 42.1336C53.3205 44.8263 52.2007 46.6033 50.0875 47.7104C48.7321 48.4212 47.8481 48.6399 46.2148 48.6399C44.1437 48.6536 42.7882 48.1205 41.6432 46.8493C40.9949 46.1385 40.8939 46.4256 41.4833 47.314C42.6703 49.0636 44.2952 49.8154 46.9641 49.8154C50.1296 49.8154 52.5375 48.5442 54.4823 45.8378C56.3092 43.2954 57.1427 39.5775 56.6123 36.4474C56.1998 34.0417 55.0211 31.9367 53.2784 30.5015C52.0913 29.531 49.936 28.6289 48.1091 28.3691C46.9893 28.1915 43.9416 28.2051 43.1502 28.3691Z" fill="#0082CB"/>
<path d="M36.1117 30.0226C32.963 30.3916 30.2689 32.1413 28.3746 35.039C27.8357 35.8592 27.3979 36.8706 27.3979 37.267C27.3979 37.4037 27.4232 37.5131 27.4485 37.5131C27.4737 37.5131 27.9368 37.2944 28.4756 37.0347C30.8834 35.8455 33.6281 34.916 36.0275 34.4786C37.2314 34.2599 41.0621 34.2736 42.2997 34.4923C44.6402 34.916 46.7281 35.8318 48.4035 37.1714C49.5148 38.0598 50.0789 38.7296 50.4409 39.6181C51.4765 42.1194 50.6262 44.7849 48.3362 46.1927C47.6626 46.6028 46.4419 46.9445 45.6505 46.9445C45.0948 46.9445 44.8591 47.1222 45.0864 47.3819C45.2716 47.5869 47.4606 47.3956 48.3277 47.0949C49.6664 46.6438 50.8198 45.5913 51.7038 44.0194C52.7899 42.0921 52.5878 39.8368 51.106 37.4447C48.1509 32.6607 41.5167 29.3665 36.1117 30.0226Z" fill="#0082CB"/>
<path d="M73.9977 33.4252C71.152 33.7806 68.9378 35.2432 67.4645 37.7309C66.7741 38.9064 66.4542 39.6855 66.0248 41.1481C65.326 43.5948 65.0061 47.135 65.3176 49.1033C65.7133 51.6457 66.7236 53.3269 68.4158 54.2701C70.8068 55.596 74.6207 55.5549 77.239 54.1744C79.5795 52.9305 81.2802 50.4702 82.1642 47.0393L82.2904 46.5336H79.428H76.5655L76.4055 47.0393C75.6646 49.4177 73.7703 50.5112 72.0192 49.5954C70.8573 48.9939 70.3943 47.1623 70.7058 44.4833C70.8826 42.9523 71.3793 41.2711 71.9097 40.41C73.2315 38.264 75.9846 38.0043 76.776 39.9452C76.9948 40.492 77.1801 41.7768 77.0959 42.2826L77.0538 42.5696H79.9163H82.7787L82.8377 41.7495C82.9724 39.8359 82.5851 37.7992 81.819 36.4187C80.5393 34.1223 77.5505 32.9742 73.9977 33.4252Z" fill="#0082CB"/>
<path d="M120.681 33.4122C116.75 33.918 114.729 35.8999 114.157 39.8502C113.997 40.9574 113.997 41.6545 114.157 42.5156C114.392 43.8415 115.032 44.8393 116.042 45.4544C116.699 45.8508 117.777 46.1788 120.134 46.6572C121.245 46.8896 122.298 47.1493 122.475 47.245C122.811 47.409 123.207 48.0378 123.207 48.3932C123.207 48.8306 122.938 49.4183 122.592 49.7054C122.273 49.9924 122.121 50.0198 121.018 50.0198C119.991 50.0198 119.747 49.9787 119.503 49.76C119.157 49.473 118.922 49.0219 118.913 48.6802C118.913 48.4615 118.711 48.4478 115.891 48.4478H112.86L112.835 48.8852L112.809 49.3363L108.314 49.3773L103.826 49.4047L103.868 49.1039C103.894 48.9263 103.961 48.3932 104.02 47.9011C104.188 46.3839 103.784 46.5342 107.741 46.5342H111.218L111.53 44.1012C111.707 42.7753 111.841 41.6408 111.841 41.5725C111.841 41.5178 110.267 41.4768 108.339 41.4768C105.375 41.4768 104.845 41.4494 104.879 41.2854C104.904 41.1761 104.971 40.6977 105.03 40.2329C105.207 38.7294 104.685 38.8797 109.568 38.8797H113.862L113.904 38.5653C114.14 36.9388 114.502 33.9453 114.468 33.8906C114.443 33.8496 111.395 33.8223 107.699 33.8223H100.981L100.896 34.123C100.854 34.3007 100.534 36.6244 100.189 39.2898C99.8357 41.9552 99.2464 46.4659 98.8759 49.2953C98.5055 52.1247 98.2024 54.5168 98.2024 54.5988C98.2024 54.6945 100.349 54.7218 105.207 54.7081L112.22 54.6671L112.397 53.3003C112.498 52.5485 112.624 51.5643 112.683 51.1133C112.784 50.3751 112.801 50.3205 112.868 50.6348C113.289 52.3708 113.71 53.1636 114.594 53.888C115.815 54.8995 117.221 55.2822 119.671 55.2822C123.274 55.2822 125.741 54.4211 127.282 52.6305C128.216 51.5507 128.814 50.1291 129.109 48.2565C129.479 45.9738 129.134 44.1969 128.115 43.1444C127.374 42.3789 126.583 42.0645 123.535 41.3401C121.953 40.9574 120.496 40.5883 120.302 40.5063C119.25 40.0689 119.402 38.661 120.555 38.1143C120.925 37.9502 121.254 37.9092 121.894 37.9502C123.081 38.0459 123.721 38.5243 123.838 39.4401L123.897 39.8365L126.768 39.8092L129.648 39.7682L129.673 39.4538L129.698 39.1531H131.719C132.906 39.1531 133.731 39.2078 133.731 39.2761C133.731 39.3445 133.428 41.7365 133.057 44.5796C132.678 47.4227 132.241 50.7579 132.081 52.0017C131.921 53.2456 131.769 54.3664 131.744 54.4894C131.702 54.7218 131.853 54.7355 134.185 54.7355C136.475 54.7355 136.669 54.7218 136.711 54.4894C136.728 54.3664 137.191 50.8535 137.738 46.6982L138.732 39.1531H141.072C142.36 39.1531 143.413 39.1258 143.413 39.0984C143.413 39.0711 143.564 37.8956 143.75 36.4877C143.935 35.0798 144.086 33.9043 144.086 33.877C144.086 33.7676 129.867 33.8223 129.824 33.9316C129.799 34 129.707 34.6287 129.614 35.3258C129.513 36.0229 129.42 36.638 129.387 36.679C129.361 36.7201 129.302 36.638 129.252 36.4877C128.949 35.5855 127.812 34.4647 126.768 34.041C125.413 33.4669 122.508 33.1798 120.681 33.4122Z" fill="#0082CB"/>
<path d="M167.239 33.4125C164.225 33.8363 162.052 35.2988 160.545 37.9642C159.316 40.1102 158.55 43.1994 158.424 46.4662C158.281 50.3071 159.35 52.9315 161.573 54.23C163.753 55.5012 167.18 55.5969 169.848 54.4487C173.199 53.0135 175.312 49.364 175.944 43.9375C176.112 42.5159 176.112 40.3973 175.952 39.3858C175.792 38.4016 175.472 37.3355 175.102 36.5973C174.412 35.2305 172.871 34.055 171.187 33.6312C170.177 33.3715 168.274 33.2622 167.239 33.4125ZM169.124 38.962C169.638 39.2491 170.219 40.1649 170.354 40.8757C170.606 42.2972 170.497 44.2929 170.084 45.9194C169.613 47.7237 168.695 49.1316 167.668 49.6373C167.02 49.9517 165.656 49.9517 165.092 49.6373C163.888 48.9676 163.408 47.1633 163.736 44.4706C164.115 41.4088 165.184 39.3858 166.759 38.8117C167.415 38.5657 168.569 38.634 169.124 38.962Z" fill="#0082CB"/>
<path d="M84.6056 33.9719C84.5719 34.1359 83.57 41.7084 82.3745 50.8391C82.1556 52.5614 81.9451 54.147 81.9115 54.352L81.8525 54.7347H84.3783H86.8956L87.165 52.7117C87.3081 51.6046 87.5017 50.183 87.5859 49.5406L87.7375 48.3787L89.3708 48.3377C91.1724 48.2967 91.7702 48.4334 92.048 48.9118C92.3259 49.3902 92.3427 49.9917 92.1491 51.8233C92.048 52.7391 91.9723 53.6685 91.9723 53.8872C91.9723 54.7894 91.7955 54.7347 94.8432 54.7347C97.7477 54.7347 97.7898 54.721 97.4699 54.147C97.2679 53.7916 97.2847 52.1787 97.5204 50.0053C97.7646 47.7636 97.7562 46.5745 97.5036 45.973C97.4026 45.727 97.1837 45.3716 97.0237 45.1939C96.8637 45.0162 96.7206 44.8385 96.7038 44.7839C96.6954 44.7292 96.8806 44.5241 97.1247 44.3191C99.3642 42.5422 100.257 37.0883 98.6317 35.0927C98.2781 34.6416 97.7646 34.3409 96.9227 34.0812C96.6617 33.9992 94.077 33.9035 90.5663 33.8625C85.6327 33.8078 84.6393 33.8215 84.6056 33.9719ZM93.092 39.3027C93.5466 39.5077 93.7403 39.8631 93.7403 40.4782C93.7318 41.3803 93.4793 42.0774 93.0162 42.4465C92.6205 42.7609 92.5195 42.7745 90.5326 42.8156L88.4531 42.8566L88.6551 41.312C88.7646 40.4645 88.874 39.6307 88.8993 39.453L88.9414 39.1523H90.8609C91.947 39.1523 92.9068 39.2207 93.092 39.3027Z" fill="#0082CB"/>
<path d="M144.549 34.1092C144.507 34.4646 143.623 41.1623 142.866 46.9442C142.605 48.9398 142.285 51.4138 142.15 52.439C142.007 53.4642 141.897 54.4073 141.897 54.5167C141.897 54.708 142.175 54.7354 144.373 54.7354C146.663 54.7354 146.856 54.7217 146.898 54.4893C146.949 54.2296 147.707 48.4887 147.707 48.3657C147.707 48.3247 148.565 48.311 149.626 48.3384C152.051 48.393 152.253 48.5297 152.253 50.047C152.253 50.4024 152.177 51.4002 152.085 52.2613C151.992 53.1224 151.941 54.0382 151.967 54.2843L152.017 54.7354H154.787C157.708 54.7354 157.708 54.7354 157.431 54.1339C157.245 53.7375 157.271 52.3433 157.523 49.7873C157.658 48.4204 157.717 47.3269 157.692 46.9442C157.624 46.1787 157.33 45.4406 156.934 45.0989C156.622 44.8255 156.538 44.6205 156.74 44.6205C156.934 44.6205 157.835 43.609 158.256 42.8982C158.795 42.0234 159.291 40.3421 159.418 39.0573C159.611 36.925 159.165 35.3804 158.113 34.6286C157.195 33.9725 156.808 33.9315 150.51 33.8632L144.6 33.7948L144.549 34.1092ZM153.373 39.4673C153.676 39.7954 153.768 40.1918 153.684 40.9162C153.6 41.668 153.389 42.1328 152.96 42.4881C152.657 42.7479 152.463 42.7752 150.535 42.8162L148.439 42.8572L148.481 42.5428C148.506 42.3651 148.607 41.5313 148.717 40.6839L148.911 39.1393L151.024 39.1803C152.901 39.2213 153.171 39.2486 153.373 39.4673Z" fill="#0082CB"/>
<path d="M177.813 33.9446C177.788 33.9992 177.519 35.9539 177.215 38.2776C176.912 40.6013 176.306 45.2213 175.868 48.5428C175.431 51.878 175.069 54.6254 175.069 54.6664C175.069 54.7074 176.121 54.7211 177.401 54.7074L179.741 54.6664L180.432 49.4039C180.81 46.5062 181.164 43.8134 181.215 43.417C181.265 43.0206 181.349 42.7062 181.391 42.7336C181.433 42.7609 182.301 45.4537 183.311 48.7205L185.155 54.6664L187.941 54.7074C190.526 54.7348 190.72 54.7211 190.762 54.5024C190.787 54.3657 191.132 51.7686 191.528 48.7205C191.932 45.6724 192.361 42.3509 192.496 41.3394C193.195 36.0906 193.422 34.2863 193.422 34.0676C193.422 33.8352 193.296 33.8216 191.048 33.8489L188.665 33.8899L187.933 39.5624C187.529 42.6789 187.158 45.358 187.116 45.5083C187.057 45.7407 186.982 45.5767 186.678 44.4832C186.476 43.7724 185.719 41.0933 184.995 38.5373L183.673 33.8899L180.768 33.8489C179.16 33.8352 177.838 33.8762 177.813 33.9446Z" fill="#0082CB"/>
<path d="M37.7617 35.4751C32.685 36.1039 27.8524 38.8103 26.0087 42.0498C24.5943 44.5238 24.67 47.0799 26.2191 49.7316C27.1368 51.2899 28.6017 52.9848 28.8291 52.7524C28.8796 52.7114 28.9132 52.069 28.9132 51.3309C28.9132 47.9274 29.5699 45.4123 31.0601 43.034C31.7842 41.8858 32.9376 40.5326 33.83 39.8081C35.1434 38.7283 37.1471 37.7715 39.0582 37.2931C40.4137 36.9514 42.7121 36.9377 43.7729 37.2794C45.4483 37.8125 46.8964 38.8376 47.6373 40.0268C48.1677 40.8743 48.3613 41.5031 48.3613 42.3915C48.3613 43.034 48.2182 43.5397 47.7299 44.5649C47.6878 44.6605 47.6793 44.7836 47.713 44.8382C47.8562 45.0706 48.7738 43.6764 49.0432 42.8153C49.2537 42.1455 49.2453 41.175 49.0264 40.4369C48.9338 40.1088 48.5549 39.3981 48.1929 38.8376C47.2247 37.3614 46.1555 36.5686 44.236 35.9262C42.5521 35.3658 40.0348 35.1881 37.7617 35.4751Z" fill="#0082CB"/>
<path d="M58.801 36.5142C58.801 40.2594 57.9928 43.1162 56.2501 45.5493C53.7749 49.0211 50.1883 50.9484 46.2145 50.9621C44.497 50.9621 43.613 50.757 42.4007 50.0736C41.3652 49.4722 40.7421 48.9118 40.1444 47.996C39.5214 47.0665 39.353 46.5334 39.353 45.5493C39.353 44.7975 39.4372 44.4831 39.8413 43.7586C40.0097 43.4853 40.0349 43.3486 39.9592 43.2256C39.8413 43.0342 39.2015 43.8543 38.8394 44.6608C38.2248 46.0277 38.3511 47.2989 39.2351 48.7887C40.3717 50.716 42.0639 51.8232 44.7412 52.4383C45.9451 52.7117 49.5401 52.6707 51.0134 52.3563C56.9573 51.1398 61.2678 48.1053 62.4044 44.3464C62.598 43.704 62.6317 43.4306 62.6317 42.3644C62.6317 41.2299 62.6065 41.0522 62.3455 40.1774C61.8403 38.5235 59.8703 35.6257 59.0789 35.3797L58.801 35.284V36.5142Z" fill="#0082CB"/>
<path d="M38.8901 38.2917C34.3438 39.2075 30.9341 44.0326 30.9341 49.5274C30.9341 50.9216 31.094 52.0151 31.4476 53.1086C32.6263 56.7035 35.5814 59.0546 39.7067 59.6696C40.8517 59.8337 44.3962 59.7653 44.9013 59.5603C45.4065 59.3553 45.3054 59.1502 44.514 58.7675C43.369 58.2208 41.3232 57.0863 40.5318 56.5532C35.9771 53.4914 33.4598 49.0354 34.167 45.2901C34.7311 42.2693 36.2549 40.5607 39.2269 39.6039C40.3803 39.2349 42.8471 39.2759 43.8321 39.6723C44.7834 40.055 45.4991 40.5334 46.0126 41.1348C46.4588 41.6542 46.5935 41.7226 46.5935 41.4219C46.5935 41.1211 45.7769 40.0276 45.1623 39.5082C44.0257 38.5514 42.7713 38.1824 40.616 38.2234C39.8078 38.2234 39.0332 38.2644 38.8901 38.2917Z" fill="#0082CB"/>
<path d="M40.2372 40.6698C38.5534 40.9978 37.2231 41.9683 36.1539 43.6632C35.5898 44.5517 35.312 45.5222 35.312 46.602C35.312 50.935 40.6329 56.1291 46.6104 57.619C52.108 58.9859 56.6628 57.25 59.4411 52.7393C60.0641 51.7278 60.4345 50.771 60.2914 50.5386C60.2661 50.4976 59.7947 50.689 59.2474 50.9624C55.0716 53.0127 51.123 53.9421 47.5449 53.7234C43.9837 53.5047 41.5337 52.6299 39.21 50.771C37.5599 49.4315 36.9285 48.2969 36.8443 46.5337C36.8106 45.7409 36.8359 45.4949 37.0211 44.8524C37.602 42.7884 39.4037 41.3259 41.6684 41.0935C42.4093 41.0115 42.5945 40.9568 42.5945 40.7928C42.5945 40.6288 42.4345 40.5878 41.7105 40.5741C41.2222 40.5604 40.5655 40.6014 40.2372 40.6698Z" fill="#0082CB"/>
<path d="M192.967 49.9505C192.681 50.1008 192.277 50.6886 192.108 51.208C191.923 51.7957 191.957 52.9712 192.184 53.518C192.437 54.1331 192.849 54.5705 193.295 54.6798C193.59 54.7482 193.758 54.6935 194.12 54.4201C194.642 54.0374 194.912 53.4497 194.988 52.5065C195.131 50.8253 194.011 49.4037 192.967 49.9505ZM194.154 50.5109C194.946 51.3037 194.887 53.4633 194.062 54.1058C192.714 55.1446 191.569 52.3015 192.681 50.6886C192.933 50.3058 193.051 50.2512 193.497 50.2375C193.733 50.2238 193.969 50.3195 194.154 50.5109Z" fill="#0082CB"/>
<path d="M192.917 52.2742C192.917 53.3951 192.942 53.6411 193.043 53.6411C193.136 53.6411 193.17 53.4771 193.17 53.026C193.17 52.1922 193.38 52.1922 193.7 53.026C193.835 53.3677 193.995 53.6411 194.07 53.6411C194.197 53.6411 194.18 53.5591 193.91 52.9303C193.759 52.575 193.759 52.5613 193.969 52.2196C194.407 51.5088 194.146 50.9074 193.397 50.9074H192.917V52.2742ZM193.852 51.3994C194.02 51.7275 193.843 52.0555 193.473 52.1102C193.178 52.1512 193.17 52.1375 193.17 51.6728C193.17 51.2081 193.186 51.1807 193.456 51.1807C193.607 51.1807 193.784 51.2764 193.852 51.3994Z" fill="#0082CB"/>
</svg>
