<svg width="168" height="49" viewBox="0 0 168 49" fill="none" xmlns="http://www.w3.org/2000/svg">
<path d="M7.18042 9.88484V43.0635L10.2754 42.5683V12.9799C10.2754 11.0654 11.8274 9.51344 13.7419 9.51344H20.3033V6.41842H10.6468C8.73239 6.41842 7.18042 7.97039 7.18042 9.88484Z" fill="url(#paint0_linear_235_24)"/>
<path d="M16.713 0.475967C20.5508 0.475967 22.2841 0.475967 23.3983 0.723569L23.1507 3.81859C22.3583 3.62051 21.0461 3.57099 20.1794 3.57099H7.79936C5.88491 3.57099 4.33294 5.12295 4.33294 7.03741V44.6729H1.23792V3.94239C1.23792 2.02794 2.78989 0.475967 4.70434 0.475967H16.713Z" fill="url(#paint1_linear_235_24)"/>
<path d="M1.23804 36.2544V47.3965L4.45686 44.1777C4.45686 37.3686 4.33306 34.3974 5.57107 32.4166C6.80907 30.4358 9.90409 25.2361 19.313 25.2361C23.027 25.2361 25.7506 24.4933 27.2362 22.6363C34.4167 13.6608 26.741 6.41842 20.3034 6.41842V9.51344C24.0174 9.76104 25.9234 11.8657 26.4934 13.4751C28.1771 18.229 24.3888 22.1183 20.1796 22.0173C6.19007 21.6816 1.23804 31.3024 1.23804 36.2544Z" fill="url(#paint2_linear_235_24)"/>
<path d="M10.3992 41.7017C10.2011 46.5547 4.53931 47.6028 1.73315 47.5203V44.6729C3.5489 44.7141 7.18039 43.9796 7.18039 40.7113C7.18039 37.121 8.4184 27.7122 17.7035 27.836C22.6555 27.836 27.6075 27.7122 31.3216 21.8935C33.4262 18.1795 35.0851 9.81056 26.3695 5.05661C25.9569 4.80901 24.7353 4.21476 23.1507 3.8186L23.3983 0.723579C36.4717 2.90247 37.9296 16.3225 34.6642 22.7601C31.1978 29.5939 25.0077 31.2465 19.4367 31.1786C11.3153 31.0796 10.6114 36.502 10.3992 41.7017Z" fill="url(#paint3_linear_235_24)"/>
<rect x="-0.00012207" y="44.0539" width="4.95203" height="4.95203" rx="1.48561" fill="#001329"/>
<path d="M47.0046 15.673V12.4435H51.0282C51.5399 12.4435 52.0076 12.3376 52.4311 12.1259C52.8547 11.9141 53.19 11.6053 53.437 11.1994C53.6841 10.7935 53.8076 10.2994 53.8076 9.71701C53.8076 9.1523 53.6841 8.667 53.437 8.26111C53.19 7.85522 52.8547 7.5464 52.4311 7.33463C52.0076 7.12286 51.5399 7.01698 51.0282 7.01698H47.0046V3.78753H51.637C52.8194 3.78753 53.887 4.02577 54.84 4.50225C55.7929 4.97872 56.5429 5.66696 57.09 6.56697C57.6547 7.44934 57.9371 8.49935 57.9371 9.71701C57.9371 10.9347 57.6547 11.9935 57.09 12.8935C56.5429 13.7759 55.7929 14.4641 54.84 14.9582C53.887 15.4347 52.8194 15.673 51.637 15.673H47.0046ZM43.8281 22.476V3.78753H47.984V22.476H43.8281ZM65.2985 14.7729V11.7023H69.2426C70.072 11.7023 70.7073 11.4906 71.1485 11.067C71.6073 10.6435 71.8368 10.07 71.8368 9.34641C71.8368 8.67582 71.6162 8.11993 71.175 7.67875C70.7338 7.23757 70.0985 7.01698 69.2691 7.01698H65.2985V3.78753H69.7456C70.9809 3.78753 72.0662 4.02577 73.0015 4.50225C73.9368 4.96107 74.6691 5.6052 75.1986 6.43462C75.728 7.26404 75.9927 8.21699 75.9927 9.29347C75.9927 10.3876 75.728 11.3494 75.1986 12.1788C74.6691 12.9906 73.928 13.6259 72.975 14.0847C72.0221 14.5435 70.9015 14.7729 69.6132 14.7729H65.2985ZM62.1219 22.476V3.78753H66.2779V22.476H62.1219ZM72.2868 22.476L66.4632 14.4288L70.275 13.3965L77.2103 22.476H72.2868ZM80.8811 22.476V3.78753H85.037V22.476H80.8811ZM84.0576 22.476V18.8759H94.3018V22.476H84.0576ZM84.0576 14.6671V11.1994H93.3754V14.6671H84.0576ZM84.0576 7.3611V3.78753H94.1695V7.3611H84.0576ZM99.0199 22.476V3.78753H101.985L109.344 15.2494H107.835L115.167 3.78753H118.158V22.476H114.002V10.8023L114.744 10.9876L109.952 18.4524H107.199L102.435 10.9876L103.149 10.8023V22.476H99.0199ZM123.595 22.476V3.78753H127.751V22.476H123.595ZM133.203 22.476V3.78753H137.359V22.476H133.203ZM136.38 22.476V18.8759H146.624V22.476H136.38ZM136.38 14.6671V11.1994H145.698V14.6671H136.38ZM136.38 7.3611V3.78753H146.492V7.3611H136.38ZM154.519 14.7729V11.7023H158.463C159.292 11.7023 159.928 11.4906 160.369 11.067C160.828 10.6435 161.057 10.07 161.057 9.34641C161.057 8.67582 160.836 8.11993 160.395 7.67875C159.954 7.23757 159.319 7.01698 158.489 7.01698H154.519V3.78753H158.966C160.201 3.78753 161.286 4.02577 162.222 4.50225C163.157 4.96107 163.889 5.6052 164.419 6.43462C164.948 7.26404 165.213 8.21699 165.213 9.29347C165.213 10.3876 164.948 11.3494 164.419 12.1788C163.889 12.9906 163.148 13.6259 162.195 14.0847C161.242 14.5435 160.122 14.7729 158.833 14.7729H154.519ZM151.342 22.476V3.78753H155.498V22.476H151.342ZM161.507 22.476L155.683 14.4288L159.495 13.3965L166.431 22.476H161.507ZM45.8399 46.476V44.1995H50.9488C52.3076 44.1995 53.4988 43.9083 54.5223 43.3259C55.5459 42.7259 56.34 41.9053 56.9047 40.8641C57.4871 39.823 57.7782 38.6229 57.7782 37.2641C57.7782 35.9229 57.4871 34.7317 56.9047 33.6905C56.3223 32.6493 55.5194 31.8376 54.4959 31.2552C53.4723 30.6729 52.29 30.3817 50.9488 30.3817H45.8664V28.1052H51.0017C52.3429 28.1052 53.5782 28.3346 54.7076 28.7934C55.8547 29.2523 56.8429 29.8964 57.6724 30.7258C58.5194 31.5552 59.1724 32.5258 59.6312 33.6376C60.1077 34.7494 60.3459 35.967 60.3459 37.2906C60.3459 38.5965 60.1077 39.8141 59.6312 40.9436C59.1724 42.0553 58.5283 43.0259 57.6988 43.8554C56.8694 44.6848 55.8812 45.3289 54.7341 45.7877C53.6047 46.2466 52.3782 46.476 51.0546 46.476H45.8399ZM44.1987 46.476V28.1052H46.6869V46.476H44.1987ZM62.4433 46.476L69.961 28.1052H71.7611L79.2523 46.476H76.5523L70.3846 30.9376H71.3111L65.0904 46.476H62.4433ZM66.0169 42.32V40.1494H75.6788V42.32H66.0169ZM84.4328 46.476V28.6346H86.921V46.476H84.4328ZM78.1856 30.3817V28.1052H93.1417V30.3817H78.1856ZM92.0938 46.476L99.6115 28.1052H101.412L108.903 46.476H106.203L100.035 30.9376H100.962L94.7409 46.476H92.0938ZM95.6674 42.32V40.1494H105.329V42.32H95.6674ZM118.843 46.7407C117.52 46.7407 116.293 46.5024 115.164 46.026C114.035 45.5318 113.046 44.8524 112.199 43.9877C111.37 43.123 110.726 42.1171 110.267 40.97C109.808 39.823 109.579 38.5965 109.579 37.2906C109.579 35.967 109.808 34.7317 110.267 33.5847C110.726 32.4376 111.37 31.4405 112.199 30.5934C113.046 29.7287 114.026 29.0581 115.138 28.5817C116.267 28.0875 117.493 27.8405 118.817 27.8405C120.264 27.8405 121.535 28.0875 122.629 28.5817C123.723 29.0758 124.694 29.7464 125.541 30.5934L123.82 32.3141C123.238 31.6611 122.523 31.1493 121.676 30.7787C120.846 30.4081 119.893 30.2229 118.817 30.2229C117.846 30.2229 116.955 30.3993 116.143 30.7523C115.332 31.0876 114.626 31.5729 114.026 32.2082C113.426 32.8435 112.958 33.5935 112.623 34.4582C112.305 35.3229 112.146 36.267 112.146 37.2906C112.146 38.3141 112.305 39.2582 112.623 40.123C112.958 40.9877 113.426 41.7377 114.026 42.373C114.626 43.0083 115.332 43.5024 116.143 43.8554C116.955 44.1906 117.846 44.3583 118.817 44.3583C119.964 44.3583 120.961 44.173 121.808 43.8024C122.655 43.4142 123.37 42.8936 123.952 42.2406L125.673 43.9348C124.826 44.8171 123.829 45.5054 122.682 45.9995C121.552 46.4936 120.273 46.7407 118.843 46.7407ZM136.345 46.7407C135.039 46.7407 133.821 46.5024 132.692 46.026C131.562 45.5318 130.574 44.8524 129.727 43.9877C128.88 43.1053 128.218 42.0906 127.742 40.9436C127.283 39.7965 127.054 38.57 127.054 37.2641C127.054 35.9406 127.283 34.7141 127.742 33.5847C128.218 32.4376 128.871 31.4317 129.701 30.567C130.548 29.7023 131.527 29.0317 132.639 28.5552C133.768 28.0787 134.986 27.8405 136.292 27.8405C137.598 27.8405 138.807 28.0787 139.918 28.5552C141.048 29.0317 142.036 29.7023 142.883 30.567C143.73 31.4317 144.392 32.4376 144.868 33.5847C145.345 34.7317 145.583 35.967 145.583 37.2906C145.583 38.5965 145.345 39.823 144.868 40.97C144.392 42.1171 143.73 43.123 142.883 43.9877C142.054 44.8524 141.074 45.5318 139.945 46.026C138.833 46.5024 137.633 46.7407 136.345 46.7407ZM136.292 44.3583C137.615 44.3583 138.771 44.0583 139.76 43.4583C140.765 42.8406 141.56 42.0024 142.142 40.9436C142.724 39.8671 143.015 38.6406 143.015 37.2641C143.015 36.2406 142.848 35.3053 142.513 34.4582C142.177 33.5935 141.71 32.8435 141.11 32.2082C140.51 31.5729 139.804 31.0876 138.992 30.7523C138.18 30.3993 137.28 30.2229 136.292 30.2229C134.986 30.2229 133.83 30.5229 132.824 31.1229C131.836 31.7229 131.051 32.5523 130.468 33.6111C129.904 34.67 129.621 35.8876 129.621 37.2641C129.621 38.2876 129.78 39.2406 130.098 40.123C130.433 40.9877 130.892 41.7377 131.474 42.373C132.074 42.9906 132.78 43.4759 133.592 43.8289C134.421 44.1818 135.321 44.3583 136.292 44.3583ZM148.996 46.476V28.1052H150.744L158.526 40.8906H157.335L165.117 28.1052H166.864V46.476H164.376V32.4729L164.958 32.6317L158.817 42.7171H157.07L150.929 32.6317L151.485 32.4729V46.476H148.996Z" fill="#001329"/>
<defs>
<linearGradient id="paint0_linear_235_24" x1="18.6939" y1="7.28502" x2="8.04703" y2="38.359" gradientUnits="userSpaceOnUse">
<stop stop-color="#146FD0"/>
<stop offset="1" stop-color="#073376"/>
</linearGradient>
<linearGradient id="paint1_linear_235_24" x1="20.5508" y1="1.09497" x2="1.85692" y2="45.2919" gradientUnits="userSpaceOnUse">
<stop stop-color="#1989E6"/>
<stop offset="0.167266" stop-color="#024B9D"/>
<stop offset="1" stop-color="#05357D"/>
</linearGradient>
<linearGradient id="paint2_linear_235_24" x1="20.4272" y1="7.65643" x2="1.23804" y2="43.4349" gradientUnits="userSpaceOnUse">
<stop stop-color="#136CCC"/>
<stop offset="0.333724" stop-color="#1F89E1"/>
<stop offset="1" stop-color="#2386E9"/>
</linearGradient>
<linearGradient id="paint3_linear_235_24" x1="23.6459" y1="1.46638" x2="3.83777" y2="47.5203" gradientUnits="userSpaceOnUse">
<stop stop-color="#1885E2"/>
<stop offset="0.170105" stop-color="#33A7F0"/>
<stop offset="1" stop-color="#35AEF1"/>
</linearGradient>
</defs>
</svg>
