<svg width="611" height="166" viewBox="0 0 611 166" fill="none" xmlns="http://www.w3.org/2000/svg">
<path d="M21 32.0015V138L31 137.5L31.7271 122V42.5245C31.7271 36.0154 37.0037 30.7388 43.5128 30.7388H64.8214V20.2158H32.7857C26.2766 20.2158 21 25.4925 21 32.0015Z" fill="url(#paint0_linear_390_34)"/>
<path d="M52.6148 0.0117188C65.6633 0.0117188 71.5561 0.0117188 75.3444 0.853555L74.5026 11.3765C71.8087 10.703 67.3469 10.5347 64.4005 10.5347H22.3087C15.7996 10.5347 10.523 15.8113 10.523 22.3204V97.5117L5.99976 129.512L0 136.28V11.7974C0 5.28836 5.27666 0.0117188 11.7857 0.0117188H52.6148Z" fill="url(#paint1_linear_390_34)"/>
<path d="M0 121.657L0.320818 142.089C0.431609 149.145 4.31683 155.599 10.5 159C20.5 159.5 21.8014 152.637 17.791 148.983C14.7321 151.983 9.49452 149.012 9.5 146.012C9.56476 128.404 5 128.5 13 111C17.2092 104.265 28 84.1954 58.4541 84.1954C111 86 109 21.5 64.8214 20.2158V30.7388C96.0773 32.8225 95.5 73.5537 61.4541 73.5537C17 73.5537 0 105.225 0 121.657Z" fill="url(#paint2_linear_390_34)"/>
<path d="M31.1485 140.178C30.475 156.678 20.7087 159.529 11 158.5L10.7915 150.301C21 151 21 147.612 21 136.5C21 124.344 24.5 93.0346 55.9827 93.0346C76.5002 92.5117 90.6561 92.6137 103.284 72.8306C116.5 45 101.5 15.5 74.5031 11.3765L74.2511 10.7862C72.8536 7.51182 73.2684 3.7453 75.3449 0.853516C119.794 8.26168 124.751 53.8892 113.648 75.777C101.863 99.0117 80.8182 104.399 61.8755 104.399C34.5 104.399 31.8701 122.499 31.1485 140.178Z" fill="url(#paint3_linear_390_34)"/>
<path d="M93.5 19.5113L103 14.0113C103 14.0113 97.5 7.51157 84.5 3.01157C74.8245 -0.337505 60.5 0.0113402 60.5 0.0113402L60 10.5113C71.5 9.51172 84 11 93.5 19.5113Z" fill="url(#paint4_linear_390_34)"/>
<path opacity="0.5" d="M58.5 20.5117C55.5 21.0117 57 30.0118 57 30.0118C66 29.5118 72 30 78.5 34.5L83 32.0118V25.5118C76.2739 20.8034 67.5 19.5118 58.5 20.5117Z" fill="url(#paint5_linear_390_34)"/>
<path d="M31.1484 136.5H21C21 144.75 21 149 15.5 149C10 149 10.421 145.25 10.421 137.5C10.1851 123.255 9.73191 115.861 13.7324 109.638L13.5 109.5L0 121.687V136.916C0 149.5 0 160 15.5 160C30 160 31.1484 150 31.1484 136.5Z" fill="url(#paint6_linear_390_34)"/>
<path d="M183.768 44.792C187.408 44.792 190.268 43.882 192.348 42.062C194.48 40.242 195.546 37.902 195.546 35.042V34.886C195.546 31.662 194.48 29.244 192.348 27.632C190.216 25.968 187.356 25.136 183.768 25.136H172.614V44.792H183.768ZM163.02 16.4H184.548C187.72 16.4 190.58 16.842 193.128 17.726C195.728 18.558 197.912 19.78 199.68 21.392C201.5 23.004 202.878 24.928 203.814 27.164C204.802 29.4 205.296 31.896 205.296 34.652V34.808C205.296 37.876 204.724 40.58 203.58 42.92C202.436 45.208 200.876 47.132 198.9 48.692C196.924 50.252 194.61 51.448 191.958 52.28C189.306 53.06 186.472 53.45 183.456 53.45H172.614V71H163.02V16.4ZM253.576 43.466C257.008 43.466 259.738 42.66 261.766 41.048C263.794 39.384 264.808 37.148 264.808 34.34V34.184C264.808 31.22 263.82 28.984 261.844 27.476C259.868 25.916 257.086 25.136 253.498 25.136H239.536V43.466H253.576ZM229.942 16.4H254.278C257.71 16.4 260.752 16.894 263.404 17.882C266.056 18.818 268.266 20.144 270.034 21.86C271.49 23.368 272.608 25.11 273.388 27.086C274.168 29.062 274.558 31.246 274.558 33.638V33.794C274.558 36.03 274.22 38.058 273.544 39.878C272.92 41.646 272.036 43.232 270.892 44.636C269.748 45.988 268.37 47.158 266.758 48.146C265.198 49.082 263.456 49.81 261.532 50.33L276.274 71H264.964L251.548 51.968H251.392H239.536V71H229.942V16.4ZM301.129 16.4H341.611V24.98H310.723V39.176H338.101V47.756H310.723V62.42H342.001V71H301.129V16.4ZM368.203 16.4H378.421L395.035 42.218L411.649 16.4H421.867V71H412.273V31.844L395.035 57.584H394.723L377.641 32V71H368.203V16.4ZM451.285 16.4H460.879V71H451.285V16.4ZM490.315 16.4H530.797V24.98H499.909V39.176H527.287V47.756H499.909V62.42H531.187V71H490.315V16.4ZM581.023 43.466C584.455 43.466 587.185 42.66 589.213 41.048C591.241 39.384 592.255 37.148 592.255 34.34V34.184C592.255 31.22 591.267 28.984 589.291 27.476C587.315 25.916 584.533 25.136 580.945 25.136H566.983V43.466H581.023ZM557.389 16.4H581.725C585.157 16.4 588.199 16.894 590.851 17.882C593.503 18.818 595.713 20.144 597.481 21.86C598.937 23.368 600.055 25.11 600.835 27.086C601.615 29.062 602.005 31.246 602.005 33.638V33.794C602.005 36.03 601.667 38.058 600.991 39.878C600.367 41.646 599.483 43.232 598.339 44.636C597.195 45.988 595.817 47.158 594.205 48.146C592.645 49.082 590.903 49.81 588.979 50.33L603.721 71H592.411L578.995 51.968H578.839H566.983V71H557.389V16.4ZM182.286 145.256C186.082 145.256 189.514 144.658 192.582 143.462C195.65 142.214 198.25 140.55 200.382 138.47C202.514 136.338 204.152 133.868 205.296 131.06C206.492 128.2 207.09 125.132 207.09 121.856V121.7C207.09 118.476 206.492 115.434 205.296 112.574C204.152 109.714 202.514 107.218 200.382 105.086C198.25 102.954 195.65 101.264 192.582 100.016C189.514 98.768 186.082 98.144 182.286 98.144H168.168V145.256H182.286ZM164.112 94.4H182.286C186.55 94.4 190.45 95.102 193.986 96.506C197.574 97.858 200.642 99.756 203.19 102.2C205.79 104.644 207.792 107.53 209.196 110.858C210.6 114.134 211.302 117.696 211.302 121.544V121.7C211.302 125.548 210.6 129.136 209.196 132.464C207.792 135.792 205.79 138.678 203.19 141.122C200.642 143.566 197.574 145.49 193.986 146.894C190.45 148.298 186.55 149 182.286 149H164.112V94.4ZM266.778 130.046L252.426 98.456L237.996 130.046H266.778ZM250.554 94.01H254.454L279.882 149H275.436L268.494 133.712H236.28L229.338 149H225.126L250.554 94.01ZM311.241 98.144H292.209V94.4H334.329V98.144H315.297V149H311.241V98.144ZM388.339 130.046L373.987 98.456L359.557 130.046H388.339ZM372.115 94.01H376.015L401.443 149H396.997L390.055 133.712H357.841L350.899 149H346.687L372.115 94.01ZM442.396 149.936C438.496 149.936 434.882 149.208 431.554 147.752C428.226 146.296 425.34 144.32 422.896 141.824C420.504 139.276 418.632 136.286 417.28 132.854C415.928 129.422 415.252 125.756 415.252 121.856V121.7C415.252 117.852 415.928 114.212 417.28 110.78C418.684 107.348 420.582 104.358 422.974 101.81C425.418 99.21 428.304 97.182 431.632 95.726C434.96 94.218 438.6 93.464 442.552 93.464C444.996 93.464 447.206 93.672 449.182 94.088C451.158 94.504 452.978 95.102 454.642 95.882C456.358 96.662 457.944 97.598 459.4 98.69C460.908 99.73 462.364 100.9 463.768 102.2L460.882 105.164C459.686 104.02 458.438 102.954 457.138 101.966C455.838 100.978 454.434 100.146 452.926 99.47C451.47 98.742 449.858 98.17 448.09 97.754C446.374 97.338 444.502 97.13 442.474 97.13C439.198 97.13 436.156 97.754 433.348 99.002C430.54 100.25 428.096 101.992 426.016 104.228C423.988 106.412 422.376 108.986 421.18 111.95C420.036 114.914 419.464 118.112 419.464 121.544V121.7C419.464 125.132 420.062 128.356 421.258 131.372C422.454 134.336 424.066 136.936 426.094 139.172C428.174 141.356 430.618 143.098 433.426 144.398C436.234 145.646 439.276 146.27 442.552 146.27C446.504 146.27 449.936 145.542 452.848 144.086C455.76 142.63 458.594 140.524 461.35 137.768L464.08 140.42C462.624 141.824 461.116 143.124 459.556 144.32C458.048 145.464 456.41 146.452 454.642 147.284C452.926 148.116 451.054 148.766 449.026 149.234C446.998 149.702 444.788 149.936 442.396 149.936ZM505.052 146.27C508.432 146.27 511.526 145.646 514.334 144.398C517.194 143.098 519.638 141.356 521.666 139.172C523.746 136.936 525.358 134.336 526.502 131.372C527.646 128.408 528.218 125.236 528.218 121.856V121.7C528.218 118.32 527.62 115.148 526.424 112.184C525.28 109.168 523.668 106.568 521.588 104.384C519.56 102.148 517.116 100.38 514.256 99.08C511.396 97.78 508.276 97.13 504.896 97.13C501.516 97.13 498.396 97.78 495.536 99.08C492.728 100.328 490.284 102.07 488.204 104.306C486.176 106.49 484.59 109.064 483.446 112.028C482.302 114.992 481.73 118.164 481.73 121.544V121.7C481.73 125.08 482.302 128.278 483.446 131.294C484.642 134.258 486.254 136.858 488.282 139.094C490.362 141.278 492.832 143.02 495.692 144.32C498.552 145.62 501.672 146.27 505.052 146.27ZM504.896 149.936C500.736 149.936 496.966 149.182 493.586 147.674C490.258 146.114 487.398 144.06 485.006 141.512C482.614 138.912 480.768 135.922 479.468 132.542C478.168 129.162 477.518 125.6 477.518 121.856V121.7C477.518 117.956 478.168 114.394 479.468 111.014C480.82 107.582 482.692 104.566 485.084 101.966C487.476 99.366 490.362 97.312 493.742 95.804C497.122 94.244 500.892 93.464 505.052 93.464C509.16 93.464 512.904 94.244 516.284 95.804C519.664 97.312 522.55 99.366 524.942 101.966C527.334 104.514 529.18 107.478 530.48 110.858C531.78 114.238 532.43 117.8 532.43 121.544C532.482 121.596 532.482 121.648 532.43 121.7C532.43 125.444 531.754 129.032 530.402 132.464C529.102 135.844 527.256 138.834 524.864 141.434C522.472 144.034 519.56 146.114 516.128 147.674C512.748 149.182 509.004 149.936 504.896 149.936ZM550.885 94.4H554.707L576.625 126.692L598.543 94.4H602.365V149H598.309V101.576L576.703 133.01H576.391L554.785 101.576V149H550.885V94.4Z" fill="#001329"/>
<defs>
<linearGradient id="paint0_linear_390_34" x1="59.3495" y1="23.1622" x2="23.1505" y2="128.813" gradientUnits="userSpaceOnUse">
<stop stop-color="#146FD0"/>
<stop offset="1" stop-color="#073376"/>
</linearGradient>
<linearGradient id="paint1_linear_390_34" x1="46.5" y1="2.51172" x2="2.10458" y2="152.384" gradientUnits="userSpaceOnUse">
<stop stop-color="#1878E3"/>
<stop offset="0.167266" stop-color="#024B9D"/>
<stop offset="1" stop-color="#05357D"/>
</linearGradient>
<linearGradient id="paint2_linear_390_34" x1="65.2426" y1="24.425" x2="0.0002297" y2="146.07" gradientUnits="userSpaceOnUse">
<stop stop-color="#136CCC"/>
<stop offset="0.333724" stop-color="#1F89E1"/>
<stop offset="1" stop-color="#2386E9"/>
</linearGradient>
<linearGradient id="paint3_linear_390_34" x1="76.1868" y1="3.37902" x2="8.83989" y2="159.961" gradientUnits="userSpaceOnUse">
<stop offset="0.0997439" stop-color="#1885E2"/>
<stop offset="0.170105" stop-color="#33A7F0"/>
<stop offset="1" stop-color="#35AEF1"/>
</linearGradient>
<linearGradient id="paint4_linear_390_34" x1="64" y1="5.51172" x2="96.5" y2="15.5117" gradientUnits="userSpaceOnUse">
<stop stop-color="#1877E3"/>
<stop offset="1" stop-color="#1885E2"/>
</linearGradient>
<linearGradient id="paint5_linear_390_34" x1="57" y1="27.0117" x2="80.5" y2="31.5117" gradientUnits="userSpaceOnUse">
<stop stop-color="#146FCF"/>
<stop offset="1" stop-color="#136CCC"/>
</linearGradient>
<linearGradient id="paint6_linear_390_34" x1="3" y1="124.012" x2="16.5334" y2="154.026" gradientUnits="userSpaceOnUse">
<stop offset="0.0503159" stop-color="#2287E6"/>
<stop offset="0.499897" stop-color="#34ACF1"/>
</linearGradient>
</defs>
</svg>
