<svg width="168" height="49" viewBox="0 0 168 49" fill="none" xmlns="http://www.w3.org/2000/svg">
<path d="M8.01782 9.68127V42.8599L11.1128 42.3647V12.7763C11.1128 10.8618 12.6648 9.30986 14.5793 9.30986H21.1407V6.21484H11.4842C9.56979 6.21484 8.01782 7.76682 8.01782 9.68127Z" fill="url(#paint0_linear_296_495)"/>
<path d="M17.5504 0.272461C21.3882 0.272461 23.1215 0.272461 24.2357 0.520063L23.9881 3.61508C23.1957 3.417 21.8835 3.36748 21.0168 3.36748H8.63676C6.72231 3.36748 5.17034 4.91945 5.17034 6.8339V44.4694H2.07532V3.73888C2.07532 1.82443 3.62729 0.272461 5.54174 0.272461H17.5504Z" fill="url(#paint1_linear_296_495)"/>
<path d="M2.07544 36.0508V47.1929L5.29426 43.9741C5.29426 37.165 5.17046 34.1938 6.40847 32.213C7.64648 30.2322 10.7415 25.0326 20.1504 25.0326C23.8644 25.0326 26.588 24.2898 28.0736 22.4328C35.2541 13.4572 27.5784 6.21484 21.1408 6.21484V9.30986C24.8548 9.55747 26.7608 11.6621 27.3308 13.2715C29.0145 18.0254 25.2262 21.9148 21.017 21.8137C7.02747 21.478 2.07544 31.0988 2.07544 36.0508Z" fill="url(#paint2_linear_296_495)"/>
<path d="M11.2366 41.4981C11.0385 46.3511 5.37671 47.3993 2.57056 47.3167V44.4693C4.3863 44.5106 8.01779 43.776 8.01779 40.5077C8.01779 36.9175 9.2558 27.5086 18.5409 27.6324C23.4929 27.6324 28.4449 27.5086 32.159 21.69C34.2636 17.9759 35.9225 9.607 27.2069 4.85305C26.7943 4.60545 25.5728 4.0112 23.9881 3.61504L24.2357 0.52002C37.3091 2.69891 38.7671 16.1189 35.5016 22.5566C32.0352 29.3904 25.8451 31.043 20.2741 30.975C12.1527 30.876 11.4488 36.2985 11.2366 41.4981Z" fill="url(#paint3_linear_296_495)"/>
<rect x="0.83728" y="43.8506" width="4.95203" height="4.95203" rx="1.48561" fill="white"/>
<path d="M47.842 15.4694V12.24H51.8656C52.3773 12.24 52.845 12.1341 53.2685 11.9223C53.6921 11.7106 54.0274 11.4018 54.2744 10.9959C54.5215 10.59 54.645 10.0959 54.645 9.5135C54.645 8.94879 54.5215 8.46349 54.2744 8.0576C54.0274 7.65172 53.6921 7.34289 53.2685 7.13112C52.845 6.91935 52.3773 6.81347 51.8656 6.81347H47.842V3.58403H52.4744C53.6568 3.58403 54.7244 3.82226 55.6774 4.29874C56.6303 4.77521 57.3803 5.46346 57.9274 6.36347C58.4921 7.24583 58.7745 8.29584 58.7745 9.5135C58.7745 10.7312 58.4921 11.79 57.9274 12.69C57.3803 13.5724 56.6303 14.2606 55.6774 14.7547C54.7244 15.2312 53.6568 15.4694 52.4744 15.4694H47.842ZM44.6655 22.2725V3.58403H48.8214V22.2725H44.6655ZM66.1359 14.5694V11.4988H70.08C70.9094 11.4988 71.5447 11.287 71.9859 10.8635C72.4447 10.44 72.6742 9.86645 72.6742 9.14291C72.6742 8.47231 72.4536 7.91642 72.0124 7.47524C71.5712 7.03406 70.9359 6.81347 70.1065 6.81347H66.1359V3.58403H70.583C71.8183 3.58403 72.9036 3.82226 73.8389 4.29874C74.7742 4.75757 75.5065 5.40169 76.036 6.23111C76.5654 7.06053 76.8301 8.01348 76.8301 9.08997C76.8301 10.1841 76.5654 11.1459 76.036 11.9753C75.5065 12.7871 74.7654 13.4224 73.8124 13.8812C72.8595 14.34 71.7389 14.5694 70.4506 14.5694H66.1359ZM62.9594 22.2725V3.58403H67.1153V22.2725H62.9594ZM73.1242 22.2725L67.3006 14.2253L71.1124 13.193L78.0477 22.2725H73.1242ZM81.7185 22.2725V3.58403H85.8744V22.2725H81.7185ZM84.895 22.2725V18.6724H95.1392V22.2725H84.895ZM84.895 14.4636V10.9959H94.2128V14.4636H84.895ZM84.895 7.15759V3.58403H95.0069V7.15759H84.895ZM99.8573 22.2725V3.58403H102.822L110.181 15.0459H108.672L116.004 3.58403H118.996V22.2725H114.84V10.5988L115.581 10.7841L110.79 18.2489H108.037L103.272 10.7841L103.987 10.5988V22.2725H99.8573ZM124.433 22.2725V3.58403H128.589V22.2725H124.433ZM134.041 22.2725V3.58403H138.197V22.2725H134.041ZM137.217 22.2725V18.6724H147.462V22.2725H137.217ZM137.217 14.4636V10.9959H146.535V14.4636H137.217ZM137.217 7.15759V3.58403H147.329V7.15759H137.217ZM155.356 14.5694V11.4988H159.3C160.13 11.4988 160.765 11.287 161.206 10.8635C161.665 10.44 161.894 9.86645 161.894 9.14291C161.894 8.47231 161.674 7.91642 161.233 7.47524C160.791 7.03406 160.156 6.81347 159.327 6.81347H155.356V3.58403H159.803C161.039 3.58403 162.124 3.82226 163.059 4.29874C163.994 4.75757 164.727 5.40169 165.256 6.23111C165.786 7.06053 166.05 8.01348 166.05 9.08997C166.05 10.1841 165.786 11.1459 165.256 11.9753C164.727 12.7871 163.986 13.4224 163.033 13.8812C162.08 14.34 160.959 14.5694 159.671 14.5694H155.356ZM152.18 22.2725V3.58403H156.336V22.2725H152.18ZM162.344 22.2725L156.521 14.2253L160.333 13.193L167.268 22.2725H162.344ZM46.6773 46.2725V43.996H51.7862C53.145 43.996 54.3362 43.7048 55.3597 43.1224C56.3833 42.5224 57.1774 41.7018 57.7421 40.6606C58.3245 39.6194 58.6156 38.4194 58.6156 37.0606C58.6156 35.7194 58.3245 34.5282 57.7421 33.487C57.1597 32.4458 56.3568 31.6341 55.3333 31.0517C54.3097 30.4693 53.1274 30.1782 51.7862 30.1782H46.7038V27.9017H51.8391C53.1803 27.9017 54.4156 28.1311 55.545 28.5899C56.6921 29.0487 57.6803 29.6929 58.5098 30.5223C59.3568 31.3517 60.0098 32.3223 60.4686 33.4341C60.9451 34.5459 61.1833 35.7635 61.1833 37.0871C61.1833 38.393 60.9451 39.6106 60.4686 40.74C60.0098 41.8518 59.3657 42.8224 58.5362 43.6518C57.7068 44.4813 56.7186 45.1254 55.5715 45.5842C54.4421 46.043 53.2156 46.2725 51.892 46.2725H46.6773ZM45.0361 46.2725V27.9017H47.5244V46.2725H45.0361ZM63.2807 46.2725L70.7985 27.9017H72.5985L80.0897 46.2725H77.3897L71.222 30.7341H72.1485L65.9278 46.2725H63.2807ZM66.8543 42.1165V39.9459H76.5162V42.1165H66.8543ZM85.2702 46.2725V28.4311H87.7584V46.2725H85.2702ZM79.023 30.1782V27.9017H93.9791V30.1782H79.023ZM92.9312 46.2725L100.449 27.9017H102.249L109.74 46.2725H107.04L100.872 30.7341H101.799L95.5783 46.2725H92.9312ZM96.5048 42.1165V39.9459H106.167V42.1165H96.5048ZM119.681 46.5372C118.357 46.5372 117.131 46.2989 116.001 45.8225C114.872 45.3283 113.884 44.6489 113.037 43.7842C112.207 42.9195 111.563 41.9136 111.104 40.7665C110.645 39.6194 110.416 38.393 110.416 37.0871C110.416 35.7635 110.645 34.5282 111.104 33.3811C111.563 32.2341 112.207 31.237 113.037 30.3899C113.884 29.5252 114.863 28.8546 115.975 28.3782C117.104 27.884 118.331 27.637 119.654 27.637C121.101 27.637 122.372 27.884 123.466 28.3782C124.56 28.8723 125.531 29.5429 126.378 30.3899L124.657 32.1105C124.075 31.4576 123.36 30.9458 122.513 30.5752C121.684 30.2046 120.731 30.0193 119.654 30.0193C118.684 30.0193 117.793 30.1958 116.981 30.5488C116.169 30.8841 115.463 31.3694 114.863 32.0047C114.263 32.64 113.795 33.39 113.46 34.2547C113.143 35.1194 112.984 36.0635 112.984 37.0871C112.984 38.1106 113.143 39.0547 113.46 39.9195C113.795 40.7842 114.263 41.5342 114.863 42.1695C115.463 42.8048 116.169 43.2989 116.981 43.6518C117.793 43.9871 118.684 44.1548 119.654 44.1548C120.801 44.1548 121.799 43.9695 122.646 43.5989C123.493 43.2107 124.207 42.6901 124.79 42.0371L126.51 43.7313C125.663 44.6136 124.666 45.3019 123.519 45.796C122.39 46.2901 121.11 46.5372 119.681 46.5372ZM137.182 46.5372C135.876 46.5372 134.659 46.2989 133.529 45.8225C132.4 45.3283 131.412 44.6489 130.565 43.7842C129.717 42.9018 129.056 41.8871 128.579 40.74C128.12 39.593 127.891 38.3665 127.891 37.0606C127.891 35.7371 128.12 34.5106 128.579 33.3811C129.056 32.2341 129.709 31.2282 130.538 30.3635C131.385 29.4988 132.365 28.8282 133.476 28.3517C134.606 27.8752 135.823 27.637 137.129 27.637C138.435 27.637 139.644 27.8752 140.756 28.3517C141.885 28.8282 142.873 29.4988 143.721 30.3635C144.568 31.2282 145.229 32.2341 145.706 33.3811C146.182 34.5282 146.421 35.7635 146.421 37.0871C146.421 38.393 146.182 39.6194 145.706 40.7665C145.229 41.9136 144.568 42.9195 143.721 43.7842C142.891 44.6489 141.912 45.3283 140.782 45.8225C139.67 46.2989 138.47 46.5372 137.182 46.5372ZM137.129 44.1548C138.453 44.1548 139.609 43.8548 140.597 43.2548C141.603 42.6371 142.397 41.7989 142.979 40.74C143.562 39.6636 143.853 38.4371 143.853 37.0606C143.853 36.0371 143.685 35.1018 143.35 34.2547C143.015 33.39 142.547 32.64 141.947 32.0047C141.347 31.3694 140.641 30.8841 139.829 30.5488C139.018 30.1958 138.118 30.0193 137.129 30.0193C135.823 30.0193 134.667 30.3193 133.662 30.9194C132.673 31.5194 131.888 32.3488 131.306 33.4076C130.741 34.4665 130.459 35.6841 130.459 37.0606C130.459 38.0841 130.617 39.0371 130.935 39.9195C131.27 40.7842 131.729 41.5342 132.312 42.1695C132.912 42.7871 133.617 43.2724 134.429 43.6254C135.259 43.9783 136.159 44.1548 137.129 44.1548ZM149.834 46.2725V27.9017H151.581L159.363 40.6871H158.172L165.955 27.9017H167.702V46.2725H165.213V32.2694L165.796 32.4282L159.655 42.5136H157.907L151.766 32.4282L152.322 32.2694V46.2725H149.834Z" fill="white"/>
<defs>
<linearGradient id="paint0_linear_296_495" x1="19.5313" y1="7.08145" x2="8.88443" y2="38.1555" gradientUnits="userSpaceOnUse">
<stop stop-color="#146FD0"/>
<stop offset="1" stop-color="#073376"/>
</linearGradient>
<linearGradient id="paint1_linear_296_495" x1="21.3882" y1="0.891465" x2="2.69432" y2="45.0884" gradientUnits="userSpaceOnUse">
<stop stop-color="#1989E6"/>
<stop offset="0.167266" stop-color="#024B9D"/>
<stop offset="1" stop-color="#05357D"/>
</linearGradient>
<linearGradient id="paint2_linear_296_495" x1="21.2646" y1="7.45285" x2="2.07544" y2="43.2313" gradientUnits="userSpaceOnUse">
<stop stop-color="#136CCC"/>
<stop offset="0.333724" stop-color="#1F89E1"/>
<stop offset="1" stop-color="#2386E9"/>
</linearGradient>
<linearGradient id="paint3_linear_296_495" x1="24.4833" y1="1.26282" x2="4.67517" y2="47.3167" gradientUnits="userSpaceOnUse">
<stop stop-color="#1885E2"/>
<stop offset="0.170105" stop-color="#33A7F0"/>
<stop offset="1" stop-color="#35AEF1"/>
</linearGradient>
</defs>
</svg>
