<svg width="611" height="166" viewBox="0 0 611 166" fill="none" xmlns="http://www.w3.org/2000/svg">
<path d="M21.2043 32.7227V127.796L31.7273 126.112V43.162C31.7273 36.7915 36.7895 31.5741 43.1571 31.3817L64.8217 30.727V20.2041L32.7199 20.9401C26.3178 21.0868 21.2043 26.3189 21.2043 32.7227Z" fill="url(#paint0_linear_367_32)"/>
<path d="M52.615 0C65.6635 0 71.5564 0 75.3446 0.841837L74.5028 11.3648C71.8089 10.6913 67.3472 10.523 64.4008 10.523H22.3089C15.7998 10.523 10.5232 15.7996 10.5232 22.3087V97.5L6 129.5L0.000244141 136.268V11.7857C0.000244141 5.27664 5.2769 0 11.786 0H52.615Z" fill="url(#paint1_linear_367_32)"/>
<path d="M0 121.645L0.194145 148.336C0.236588 154.171 4.52012 159.107 10.291 159.971C20.291 160.471 21.8014 151.625 17.791 147.971C14.7321 150.971 9.49452 149 9.5 146C9.56476 128.393 7.54272 119.5 13.7321 109.597L13.7912 109.502C18.0488 102.689 29.6128 84.1837 61.4541 84.1837C83.291 83.4709 96.291 72.4709 98.0204 54.4709C98.0204 31.9709 81.4071 20.2041 64.8214 20.2041V30.727C77.449 31.5689 83.9294 38.7245 85.8673 44.1964C91.5918 60.3597 78.7117 73.5833 64.4005 73.2398C16.8367 72.0983 0 104.809 0 121.645Z" fill="url(#paint2_linear_367_32)"/>
<path d="M31.1482 140.166C30.4748 156.666 20.5 161 10.7913 159.971V150.29C16.9647 150.43 20.291 147.583 20.291 136.471C20.291 124.264 24.4135 92.602 55.9824 93.0229C76.5 92.5 90.6559 92.602 103.283 72.8189C110.439 60.1913 112 30 89.5 17C88.0969 16.1582 79.8906 12.7117 74.5028 11.3648L75.3447 0.841827C119.794 8.24999 124.751 53.8775 113.648 75.7653C101.863 99 80.8166 104.619 61.8753 104.388C34.263 104.051 31.8698 122.487 31.1482 140.166Z" fill="url(#paint3_linear_367_32)"/>
<path d="M0.238512 147C0.390444 144.846 2.84232 144.059 4.49115 145.454L7.06903 147.635C7.35384 147.876 7.68111 148.062 8.03405 148.183L11.4978 149.37C11.6928 149.437 11.8941 149.484 12.0985 149.509L13.1745 149.644C14.8254 149.85 16.4791 149.283 17.6555 148.106C17.7457 148.016 17.8294 147.92 17.906 147.818L18.0346 147.646C18.7894 146.64 20.0918 146.211 21.2967 146.573L22.3435 146.887C23.5195 147.239 24.3619 148.273 24.4698 149.496L24.8795 154.136C24.956 155.002 24.6554 155.859 23.9716 156.396C21.6939 158.186 15.7635 161.837 7.50014 159.5C0.766089 157.595 -0.0691856 151.364 0.238512 147Z" fill="url(#paint4_linear_367_32)"/>
<path d="M183.768 44.792C187.408 44.792 190.268 43.882 192.348 42.062C194.48 40.242 195.546 37.902 195.546 35.042V34.886C195.546 31.662 194.48 29.244 192.348 27.632C190.216 25.968 187.356 25.136 183.768 25.136H172.614V44.792H183.768ZM163.02 16.4H184.548C187.72 16.4 190.58 16.842 193.128 17.726C195.728 18.558 197.912 19.78 199.68 21.392C201.5 23.004 202.878 24.928 203.814 27.164C204.802 29.4 205.296 31.896 205.296 34.652V34.808C205.296 37.876 204.724 40.58 203.58 42.92C202.436 45.208 200.876 47.132 198.9 48.692C196.924 50.252 194.61 51.448 191.958 52.28C189.306 53.06 186.472 53.45 183.456 53.45H172.614V71H163.02V16.4ZM253.576 43.466C257.008 43.466 259.738 42.66 261.766 41.048C263.794 39.384 264.808 37.148 264.808 34.34V34.184C264.808 31.22 263.82 28.984 261.844 27.476C259.868 25.916 257.086 25.136 253.498 25.136H239.536V43.466H253.576ZM229.942 16.4H254.278C257.71 16.4 260.752 16.894 263.404 17.882C266.056 18.818 268.266 20.144 270.034 21.86C271.49 23.368 272.608 25.11 273.388 27.086C274.168 29.062 274.558 31.246 274.558 33.638V33.794C274.558 36.03 274.22 38.058 273.544 39.878C272.92 41.646 272.036 43.232 270.892 44.636C269.748 45.988 268.37 47.158 266.758 48.146C265.198 49.082 263.456 49.81 261.532 50.33L276.274 71H264.964L251.548 51.968H251.392H239.536V71H229.942V16.4ZM301.129 16.4H341.611V24.98H310.723V39.176H338.101V47.756H310.723V62.42H342.001V71H301.129V16.4ZM368.203 16.4H378.421L395.035 42.218L411.649 16.4H421.867V71H412.273V31.844L395.035 57.584H394.723L377.641 32V71H368.203V16.4ZM451.285 16.4H460.879V71H451.285V16.4ZM490.315 16.4H530.797V24.98H499.909V39.176H527.287V47.756H499.909V62.42H531.187V71H490.315V16.4ZM581.023 43.466C584.455 43.466 587.185 42.66 589.213 41.048C591.241 39.384 592.255 37.148 592.255 34.34V34.184C592.255 31.22 591.267 28.984 589.291 27.476C587.315 25.916 584.533 25.136 580.945 25.136H566.983V43.466H581.023ZM557.389 16.4H581.725C585.157 16.4 588.199 16.894 590.851 17.882C593.503 18.818 595.713 20.144 597.481 21.86C598.937 23.368 600.055 25.11 600.835 27.086C601.615 29.062 602.005 31.246 602.005 33.638V33.794C602.005 36.03 601.667 38.058 600.991 39.878C600.367 41.646 599.483 43.232 598.339 44.636C597.195 45.988 595.817 47.158 594.205 48.146C592.645 49.082 590.903 49.81 588.979 50.33L603.721 71H592.411L578.995 51.968H578.839H566.983V71H557.389V16.4ZM182.286 145.256C186.082 145.256 189.514 144.658 192.582 143.462C195.65 142.214 198.25 140.55 200.382 138.47C202.514 136.338 204.152 133.868 205.296 131.06C206.492 128.2 207.09 125.132 207.09 121.856V121.7C207.09 118.476 206.492 115.434 205.296 112.574C204.152 109.714 202.514 107.218 200.382 105.086C198.25 102.954 195.65 101.264 192.582 100.016C189.514 98.768 186.082 98.144 182.286 98.144H168.168V145.256H182.286ZM164.112 94.4H182.286C186.55 94.4 190.45 95.102 193.986 96.506C197.574 97.858 200.642 99.756 203.19 102.2C205.79 104.644 207.792 107.53 209.196 110.858C210.6 114.134 211.302 117.696 211.302 121.544V121.7C211.302 125.548 210.6 129.136 209.196 132.464C207.792 135.792 205.79 138.678 203.19 141.122C200.642 143.566 197.574 145.49 193.986 146.894C190.45 148.298 186.55 149 182.286 149H164.112V94.4ZM266.778 130.046L252.426 98.456L237.996 130.046H266.778ZM250.554 94.01H254.454L279.882 149H275.436L268.494 133.712H236.28L229.338 149H225.126L250.554 94.01ZM311.241 98.144H292.209V94.4H334.329V98.144H315.297V149H311.241V98.144ZM388.339 130.046L373.987 98.456L359.557 130.046H388.339ZM372.115 94.01H376.015L401.443 149H396.997L390.055 133.712H357.841L350.899 149H346.687L372.115 94.01ZM442.396 149.936C438.496 149.936 434.882 149.208 431.554 147.752C428.226 146.296 425.34 144.32 422.896 141.824C420.504 139.276 418.632 136.286 417.28 132.854C415.928 129.422 415.252 125.756 415.252 121.856V121.7C415.252 117.852 415.928 114.212 417.28 110.78C418.684 107.348 420.582 104.358 422.974 101.81C425.418 99.21 428.304 97.182 431.632 95.726C434.96 94.218 438.6 93.464 442.552 93.464C444.996 93.464 447.206 93.672 449.182 94.088C451.158 94.504 452.978 95.102 454.642 95.882C456.358 96.662 457.944 97.598 459.4 98.69C460.908 99.73 462.364 100.9 463.768 102.2L460.882 105.164C459.686 104.02 458.438 102.954 457.138 101.966C455.838 100.978 454.434 100.146 452.926 99.47C451.47 98.742 449.858 98.17 448.09 97.754C446.374 97.338 444.502 97.13 442.474 97.13C439.198 97.13 436.156 97.754 433.348 99.002C430.54 100.25 428.096 101.992 426.016 104.228C423.988 106.412 422.376 108.986 421.18 111.95C420.036 114.914 419.464 118.112 419.464 121.544V121.7C419.464 125.132 420.062 128.356 421.258 131.372C422.454 134.336 424.066 136.936 426.094 139.172C428.174 141.356 430.618 143.098 433.426 144.398C436.234 145.646 439.276 146.27 442.552 146.27C446.504 146.27 449.936 145.542 452.848 144.086C455.76 142.63 458.594 140.524 461.35 137.768L464.08 140.42C462.624 141.824 461.116 143.124 459.556 144.32C458.048 145.464 456.41 146.452 454.642 147.284C452.926 148.116 451.054 148.766 449.026 149.234C446.998 149.702 444.788 149.936 442.396 149.936ZM505.052 146.27C508.432 146.27 511.526 145.646 514.334 144.398C517.194 143.098 519.638 141.356 521.666 139.172C523.746 136.936 525.358 134.336 526.502 131.372C527.646 128.408 528.218 125.236 528.218 121.856V121.7C528.218 118.32 527.62 115.148 526.424 112.184C525.28 109.168 523.668 106.568 521.588 104.384C519.56 102.148 517.116 100.38 514.256 99.08C511.396 97.78 508.276 97.13 504.896 97.13C501.516 97.13 498.396 97.78 495.536 99.08C492.728 100.328 490.284 102.07 488.204 104.306C486.176 106.49 484.59 109.064 483.446 112.028C482.302 114.992 481.73 118.164 481.73 121.544V121.7C481.73 125.08 482.302 128.278 483.446 131.294C484.642 134.258 486.254 136.858 488.282 139.094C490.362 141.278 492.832 143.02 495.692 144.32C498.552 145.62 501.672 146.27 505.052 146.27ZM504.896 149.936C500.736 149.936 496.966 149.182 493.586 147.674C490.258 146.114 487.398 144.06 485.006 141.512C482.614 138.912 480.768 135.922 479.468 132.542C478.168 129.162 477.518 125.6 477.518 121.856V121.7C477.518 117.956 478.168 114.394 479.468 111.014C480.82 107.582 482.692 104.566 485.084 101.966C487.476 99.366 490.362 97.312 493.742 95.804C497.122 94.244 500.892 93.464 505.052 93.464C509.16 93.464 512.904 94.244 516.284 95.804C519.664 97.312 522.55 99.366 524.942 101.966C527.334 104.514 529.18 107.478 530.48 110.858C531.78 114.238 532.43 117.8 532.43 121.544C532.482 121.596 532.482 121.648 532.43 121.7C532.43 125.444 531.754 129.032 530.402 132.464C529.102 135.844 527.256 138.834 524.864 141.434C522.472 144.034 519.56 146.114 516.128 147.674C512.748 149.182 509.004 149.936 504.896 149.936ZM550.885 94.4H554.707L576.625 126.692L598.543 94.4H602.365V149H598.309V101.576L576.703 133.01H576.391L554.785 101.576V149H550.885V94.4Z" fill="white"/>
<defs>
<linearGradient id="paint0_linear_367_32" x1="59.3498" y1="23.1505" x2="23.1508" y2="128.801" gradientUnits="userSpaceOnUse">
<stop stop-color="#146FD0"/>
<stop offset="1" stop-color="#073376"/>
</linearGradient>
<linearGradient id="paint1_linear_367_32" x1="65.6635" y1="2.10459" x2="2.10483" y2="152.372" gradientUnits="userSpaceOnUse">
<stop stop-color="#1989E6"/>
<stop offset="0.167266" stop-color="#024B9D"/>
<stop offset="1" stop-color="#05357D"/>
</linearGradient>
<linearGradient id="paint2_linear_367_32" x1="65.2426" y1="24.4133" x2="0.000213898" y2="146.059" gradientUnits="userSpaceOnUse">
<stop stop-color="#136CCC"/>
<stop offset="0.333724" stop-color="#1F89E1"/>
<stop offset="1" stop-color="#2386E9"/>
</linearGradient>
<linearGradient id="paint3_linear_367_32" x1="76.1866" y1="3.36733" x2="8.83964" y2="159.949" gradientUnits="userSpaceOnUse">
<stop offset="0.0997439" stop-color="#1885E2"/>
<stop offset="0.170105" stop-color="#33A7F0"/>
<stop offset="1" stop-color="#35AEF1"/>
</linearGradient>
<linearGradient id="paint4_linear_367_32" x1="11.791" y1="151.971" x2="19.7985" y2="151.775" gradientUnits="userSpaceOnUse">
<stop stop-color="#2386E9"/>
<stop offset="1" stop-color="#35ADF1"/>
</linearGradient>
</defs>
</svg>
