<svg width="220" height="88" viewBox="0 0 220 88" fill="none" xmlns="http://www.w3.org/2000/svg">
<path d="M33.3118 29.3133C31.6143 29.7384 29.1104 30.6081 27.6674 31.2458C25.3332 32.27 25.0786 32.4633 25.0786 33.1783V33.9707L26.6913 33.5842C30.0016 32.7918 35.3914 32.5599 38.6168 33.0817C41.3753 33.5262 43.6671 34.4731 45.0251 35.7872C46.2559 36.9661 47.529 39.6523 47.6139 41.179C47.6139 41.6041 47.7412 41.836 47.8685 41.6814C47.9534 41.5268 48.2081 41.2176 48.4203 41.0051C49.6086 39.6909 51.3486 36.0191 52.2822 32.8111L52.7915 30.9752L51.2637 30.3762C50.4573 30.0476 48.5476 29.5065 47.1046 29.1587C44.6856 28.5789 44.1763 28.5403 40.3992 28.5403C36.4524 28.5403 36.2402 28.5789 33.3118 29.3133Z" fill="#009444"/>
<path d="M65.7782 30.5505C64.2503 31.0336 63.7835 31.4008 62.8074 32.8888C62.4679 33.4106 62.2557 36.464 62.1284 42.4548C61.9162 51.0353 62.2133 54.3785 63.2742 56.0405C63.8684 56.9488 66.245 58.1083 67.6031 58.1276C69.9372 58.1663 71.6772 58.0503 73.3748 57.7218L75.1573 57.3546V50.3975V43.4211H71.7621H68.367V45.1604V46.8997H69.6401H70.9133V50.8613V54.823H69.2582C67.6455 54.823 67.5606 54.8037 66.8816 53.8761C66.2874 53.0451 66.2026 51.8083 66.3299 43.7883C66.4572 35.4398 66.5421 34.5701 67.2211 33.9904C68.8762 32.6183 70.5738 33.6039 70.8284 36.0968L70.9982 37.8168H73.1626H75.2846L74.9875 35.2658C74.5207 31.5361 73.1202 30.3379 69.046 30.1447C67.6879 30.0867 66.9665 30.164 65.7782 30.5505Z" fill="#1B1918"/>
<path d="M145.734 30.5119C144.97 30.7632 144.079 31.2656 143.739 31.6328C141.999 33.5073 141.999 33.5073 141.999 44.2908C141.999 53.9728 142.042 54.8038 142.806 55.7894C143.23 56.3691 144.164 57.1421 144.885 57.4707C145.989 58.0118 146.498 58.1084 148.153 58.1084C149.766 58.1084 150.317 58.0118 151.336 57.5286C153.161 56.6783 153.628 55.7894 153.925 52.6587L154.222 49.7985H152.015H149.851V51.7117C149.851 53.9921 149.341 54.8231 147.941 54.8231C146.116 54.8231 146.031 54.224 146.031 44.0589C146.031 35.8844 146.116 34.435 146.668 33.9518C147.05 33.6233 147.686 33.3721 148.111 33.3721C149.341 33.3721 149.851 34.2224 149.851 36.1742V38.0101H152.015H154.222L153.925 35.4399C153.585 32.6377 153.161 31.7294 151.803 31.0144C149.893 29.9902 147.856 29.8355 145.734 30.5119Z" fill="#1B1918"/>
<path d="M132.451 44.0975V57.915H134.36H136.27V44.0975V30.2799H134.36H132.451V44.0975Z" fill="#1B1918"/>
<path d="M167.251 44.0973V57.9149H168.948C170.519 57.9149 170.646 57.8762 170.646 57.3738V56.852L171.749 57.4704C173.362 58.4174 175.017 58.3594 176.248 57.2965C177.224 56.4655 177.224 56.4075 177.224 48.4455C177.224 39.8458 177.097 39.266 175.102 38.6669C174.296 38.4157 173.914 38.4157 173.107 38.609C172.556 38.7442 171.919 38.9761 171.622 39.1501C171.198 39.4013 171.113 38.5123 171.07 34.8599V30.2798H169.161H167.251V44.0973ZM173.32 41.8556C173.489 42.2035 173.617 45.3535 173.532 48.832C173.447 53.7793 173.277 55.248 172.853 55.4413C172.386 55.6538 172.174 55.6345 171.664 55.3253C171.198 55.0161 171.07 53.7986 171.07 48.6388C171.07 42.4354 171.325 40.986 172.471 41.1599C172.725 41.1986 173.107 41.5078 173.32 41.8556Z" fill="#1B1918"/>
<path d="M179.134 44.0975V57.915H181.044H182.953V44.0975V30.2799H181.044H179.134V44.0975Z" fill="#1B1918"/>
<path d="M54.1501 34.2023C52.495 39.0143 49.3545 44.2322 46.8081 46.4159C46.1715 46.9377 44.9408 47.6914 44.092 48.0972C41.8427 49.1214 40.3573 49.1021 38.1505 48.0392L36.4954 47.2469L36.75 47.9812C37.5988 50.2423 40.1027 53.9914 42.4793 56.4457C43.5403 57.6052 43.8374 57.5279 46.0018 55.4988C51.9857 49.9138 54.9989 43.7877 55.8901 35.3039C56.1448 32.9462 56.0599 32.4631 55.5506 32.2505C54.9989 32.0572 54.8292 32.3085 54.1501 34.2023Z" fill="#009444"/>
<path d="M30.3831 35.2271C28.9826 35.401 27.285 35.7295 26.606 35.9614C25.4177 36.3673 25.3752 36.4639 25.4601 37.6427C25.7147 41.4691 28.346 47.6146 31.3167 51.5376C33.4811 54.4364 39.3802 59.4609 40.5685 59.4609C41.7568 59.4609 41.5022 58.7459 39.55 56.4075C35.1787 51.2477 32.9294 46.1072 33.2265 41.8943C33.4387 38.9955 34.3299 37.3722 36.4095 36.1354C37.046 35.7488 37.3431 35.401 37.1309 35.3044C36.367 34.9758 32.9294 34.9372 30.3831 35.2271Z" fill="#009444"/>
<path d="M80.2494 38.7443C79.1035 38.9955 78.5518 39.3241 77.8304 40.1357C76.8967 41.16 76.8967 41.4112 76.8542 48.349C76.8542 55.5766 76.9391 56.0404 78.5094 57.2966C79.2733 57.9343 81.3528 58.3015 82.9231 58.0889C85.9787 57.7024 86.9973 56.6202 87.3792 53.5088L87.5914 51.5376H85.6392H83.7294L83.5597 53.3735C83.4323 55.3254 82.9231 55.8472 81.6075 55.48C80.9709 55.2867 80.886 54.8616 80.7587 52.4459L80.6314 49.6244L83.9416 49.5665L87.2519 49.5085L87.3792 46.8029C87.5065 43.537 86.9548 40.6575 85.9787 39.7299C85.5119 39.3047 84.6631 38.8989 83.7719 38.7057C81.9894 38.3192 82.0743 38.3192 80.2494 38.7443ZM83.3899 41.7011C83.5172 42.0296 83.6445 43.3437 83.6445 44.5999V46.8996H82.1592H80.6738V44.1361C80.6738 42.6094 80.8011 41.2952 80.9709 41.2373C81.0982 41.16 81.6499 41.102 82.1592 41.102C82.8806 41.102 83.1777 41.2566 83.3899 41.7011Z" fill="#1B1918"/>
<path d="M93.7877 38.957C92.7267 39.4594 92.557 39.4787 92.557 39.1502C92.557 38.841 92.2599 38.783 90.6472 38.783H88.7374V48.349V57.915H90.6048H92.5145L92.6418 49.8951C92.7692 41.6625 92.854 41.276 94.4243 41.5465C95.0185 41.6625 95.1033 42.5901 95.1033 49.7984V57.915H97.0131H98.9229V49.1993C98.9229 39.7106 98.7956 39.1502 96.7585 38.6671C95.1882 38.3192 95.2306 38.2999 93.7877 38.957Z" fill="#1B1918"/>
<path d="M104.186 38.6864C103.252 38.8796 102.573 39.2468 101.851 39.9812C100.833 41.0054 100.833 41.0247 100.833 48.2524C100.833 56.0984 100.918 56.5236 103.125 57.5478C105.586 58.7267 109.193 58.1276 110.679 56.311C110.933 55.9632 111.188 54.765 111.188 53.6055L111.231 51.5377H109.321H107.453L107.326 53.3929C107.241 54.9196 107.071 55.3061 106.477 55.48C104.992 55.8858 104.652 55.3641 104.525 52.4073L104.398 49.6051H107.835H111.273L111.146 45.199C111.018 41.16 110.933 40.7348 110.085 39.8845C109.363 39.2082 108.769 38.8989 107.666 38.6864C105.926 38.3578 105.883 38.3578 104.186 38.6864ZM107.326 44.0395L107.453 46.8996H105.926H104.44V44.5999C104.44 43.3438 104.568 42.0296 104.695 41.7011C104.95 41.1793 105.162 41.0827 106.095 41.1407L107.199 41.1987L107.326 44.0395Z" fill="#1B1918"/>
<path d="M118.318 38.6091C117.851 38.7251 117.257 39.0922 116.918 39.4401L116.366 40.0392L116.323 39.4014C116.323 38.8024 116.239 38.783 114.626 38.783H112.928V48.349V57.915H114.838H116.748V50.7647C116.748 43.0539 116.96 42.2616 118.827 42.2616C119.676 42.2616 119.719 42.1456 119.719 40.3291C119.719 39.2662 119.591 38.3965 119.422 38.3965C119.209 38.3965 118.743 38.4932 118.318 38.6091Z" fill="#1B1918"/>
<path d="M123.665 38.6866C121.543 39.1118 120.864 39.9234 120.652 42.397L120.439 44.5808H122.434H124.386V43.1701C124.386 42.2038 124.598 41.6434 125.023 41.3728C125.659 41.0056 125.659 41.0056 126.296 41.3728C126.763 41.6627 126.933 42.2618 126.933 43.7305V45.6823L125.15 45.7983C122.986 45.9336 121.713 46.5133 120.906 47.7308C120.1 48.9483 120.185 56.0214 120.991 57.0456C122.137 58.437 124.386 58.5336 126.084 57.2775L126.933 56.6591V57.2775C126.933 57.8959 126.975 57.9152 128.842 57.9152H130.795L130.667 49.2575C130.54 41.2569 130.497 40.5612 129.734 39.7688C129.139 39.1697 128.503 38.8605 127.527 38.6673C125.787 38.3387 125.405 38.3387 123.665 38.6866ZM126.848 51.7312C126.72 54.398 126.635 54.8618 125.956 55.1517C125.235 55.4803 125.15 55.4803 124.556 55.1131C124.047 54.8039 123.919 54.2241 124.047 52.1177C124.216 49.3541 124.641 48.6391 126.126 48.6391C126.975 48.6391 126.975 48.7357 126.848 51.7312Z" fill="#1B1918"/>
<path d="M158.55 38.6672C157.829 38.8025 156.938 39.131 156.556 39.3822C155.622 40.0393 154.943 41.6626 154.943 43.228V44.5807H156.853H158.763V43.4405C158.763 42.0491 159.442 41.0635 160.375 41.1408C161.351 41.2181 161.648 41.8945 161.691 43.943C161.733 45.7016 161.733 45.7402 160.715 45.7402C158.465 45.7402 157.065 46.1461 156.089 47.0737C155.24 47.8853 155.155 48.3105 155.028 51.6924C154.816 56.7556 155.537 58.1084 158.381 58.1084C159.484 58.1084 160.757 57.548 161.436 56.7556C161.564 56.601 161.691 56.7943 161.691 57.1808L161.733 57.9151H163.686H165.595L165.468 49.47C165.341 42.6868 165.171 40.8316 164.662 40.1552C163.686 38.8025 161.012 38.1647 158.55 38.6672ZM161.733 51.19C161.733 54.5332 160.969 55.8087 159.399 55.2096C158.89 55.0164 158.763 54.3979 158.763 52.2915C158.763 49.3541 159.144 48.639 160.757 48.639C161.733 48.639 161.733 48.639 161.733 51.19Z" fill="#1B1918"/>
<path d="M187.622 38.8213C184.906 39.6716 184.736 40.2514 184.694 48.368C184.651 55.9049 184.736 56.3107 186.603 57.4509C188.386 58.5717 191.569 58.3978 193.478 57.103C194.539 56.3493 194.624 56.1368 194.794 53.9144L194.921 51.5373H193.181H191.441V52.9674C191.441 54.4748 190.847 55.5957 189.998 55.5957C188.683 55.5957 188.471 55.1125 188.471 52.3683V49.6048H191.696H194.921L194.752 45.102C194.582 40.0968 194.285 39.4784 191.738 38.7827C189.998 38.2995 189.319 38.2995 187.622 38.8213ZM191.017 41.6042C191.272 41.8747 191.441 43.1695 191.441 44.503V46.8993H189.956H188.471V44.1358C188.471 42.6091 188.598 41.295 188.768 41.237C189.404 40.9278 190.635 41.121 191.017 41.6042Z" fill="#1B1918"/>
</svg>
