<svg width="220" height="88" viewBox="0 0 220 88" fill="none" xmlns="http://www.w3.org/2000/svg">
<path d="M35 44.0021V60.3979H42.7548H50.5096V55.4127V50.4275H55.0074C57.4668 50.4053 59.904 50.3167 60.4357 50.2281C60.9453 50.1173 61.3663 50.073 61.3663 50.0951C61.3663 50.1173 60.4357 52.4437 59.2836 55.2798L57.2009 60.3979H62.1196H67.0163L67.7031 58.5811L68.39 56.7421L71.8242 56.6756L75.2585 56.6313L75.9897 58.5146L76.7208 60.3979H83.4343H90.1477L90.2142 57.5619L90.2807 54.748L91.4328 57.5176L92.5628 60.2872L97.9025 60.3536L103.242 60.3979V47.5471V34.6963H99.0325H94.8449L94.7784 37.5102L94.712 40.3241L93.7149 37.5102L92.7179 34.6963H87.2452H81.7504L81.7061 41.2547L81.6396 47.8352L79.1137 41.2547L76.5879 34.6963H72.7991H69.0103L68.1905 32.946C67.1935 30.8411 65.7976 29.3566 63.87 28.3152L62.5185 27.6062H48.7592H35V44.0021ZM53.7888 38.33C53.8331 42.0745 53.7666 43.2266 53.5672 43.3817C53.4121 43.4703 52.8139 43.559 52.2378 43.559H51.1743V38.4629V33.3448L52.4594 33.4112L53.7223 33.4777L53.7888 38.33ZM72.8656 48.1675L73.5303 49.9844H72.1123C71.3146 49.9844 70.6721 49.94 70.6721 49.8957C70.6721 49.6742 72.0679 46.1956 72.1344 46.2621C72.1566 46.3064 72.4889 47.1705 72.8656 48.1675Z" fill="black"/>
<path d="M105.015 47.5471V60.3979H114.609C124.114 60.3979 124.202 60.3979 124.712 59.9327C125.82 58.8913 125.842 58.6919 125.842 47.9016C125.842 41.299 125.753 37.621 125.598 37.2C125.266 36.3138 124.535 35.5826 123.516 35.1173C122.696 34.7406 121.92 34.6963 113.833 34.6963H105.015V47.5471ZM116.935 41.6092C117.312 41.9858 117.312 52.8869 116.935 53.2635C116.78 53.4186 116.337 53.5294 115.938 53.5294H115.207V47.4364V41.3433H115.938C116.337 41.3433 116.78 41.4541 116.935 41.6092Z" fill="black"/>
<path d="M127.171 45.4866C127.171 52.5988 127.26 56.6092 127.415 57.1852C127.57 57.7835 128.058 58.4482 128.855 59.2237L130.052 60.3979H137.319H144.586L145.185 59.7776C145.495 59.4452 145.982 58.6697 146.27 58.0715C146.78 56.9637 146.78 56.9194 146.846 45.8189L146.913 34.6963H142.836H138.759L138.781 44.3787L138.804 54.0833H137.807H136.809L136.743 44.3787L136.699 34.6963H131.935H127.171V45.4866Z" fill="black"/>
<path d="M148.22 47.5471V60.3979H152.762H157.304V47.5471V34.6963H152.762H148.22V47.5471Z" fill="black"/>
<path d="M157.526 37.909V41.1217H160.295H163.065V50.7598V60.3979H167.496H171.928V50.7598V41.1217H174.697H177.467V37.909V34.6963H167.496H157.526V37.909Z" fill="black"/>
<path d="M180.569 35.2947C179.948 35.5163 179.018 36.5355 178.774 37.2888C178.397 38.4188 178.708 39.7039 179.594 40.568C180.945 41.9196 183.006 41.8309 184.313 40.3464C184.889 39.6818 185 39.3716 185 38.441C185 36.3804 183.804 35.1175 181.898 35.1618C181.344 35.1618 180.746 35.2283 180.569 35.2947ZM183.006 36.181C183.914 36.7128 184.424 37.7763 184.247 38.729C184.092 39.6153 183.582 40.1914 183.338 39.7925C183.272 39.6596 183.205 38.9949 183.205 38.2859C183.205 37.599 183.095 36.9122 182.962 36.7571C182.829 36.5798 182.23 36.469 181.544 36.469H180.347V38.2859L180.325 40.1249L179.904 39.5931C179.417 39.0392 179.328 37.7984 179.705 37.1116C180.015 36.5355 181.211 35.8044 181.854 35.8044C182.142 35.8044 182.674 35.9816 183.006 36.181ZM182.518 37.5104C182.474 37.7763 182.208 37.9314 181.721 37.9757C181.123 38.0422 181.012 37.9757 181.012 37.599C181.012 37.2224 181.145 37.1337 181.809 37.1337C182.43 37.1337 182.585 37.2002 182.518 37.5104ZM182.518 39.5045C182.563 40.0141 182.696 40.2357 182.962 40.2357C183.294 40.2357 183.294 40.28 183.006 40.4572C182.829 40.568 182.319 40.6788 181.898 40.6788C181.477 40.6788 180.967 40.568 180.79 40.4572C180.569 40.3243 180.547 40.2357 180.746 40.2357C180.901 40.2357 181.012 39.9255 181.012 39.438C181.012 38.6847 181.034 38.6625 181.743 38.729C182.363 38.7955 182.452 38.8841 182.518 39.5045Z" fill="black"/>
</svg>
