<svg width="43" height="37" viewBox="0 0 43 37" fill="none" xmlns="http://www.w3.org/2000/svg">
<path fill-rule="evenodd" clip-rule="evenodd" d="M12.051 0.109449C8.80462 0.447226 5.68433 2.05472 3.55192 4.48778C1.871 6.40566 0.82447 8.65511 0.410832 11.2391C0.223268 12.4106 0.217612 31.474 0.40451 32.2648C0.737134 33.6717 1.75796 34.9252 3.07523 35.544C4.07377 36.0132 4.24154 36.0248 10.0479 36.0263C13.5687 36.0273 15.5493 35.9966 15.9119 35.9356C16.213 35.8849 16.7721 35.6988 17.1544 35.522C18.3901 34.9505 19.4349 33.7075 19.8061 32.3676C19.9397 31.8853 19.9528 31.3311 19.9528 26.1956C19.9528 19.9378 19.9635 20.0752 19.394 18.9865C19.0132 18.2582 17.9524 17.2299 17.2162 16.8751C16.2305 16.4001 15.9041 16.3666 12.2533 16.3649C8.32486 16.3632 8.31612 16.3618 7.58616 15.6183C6.99211 15.0131 6.85221 14.5945 6.85313 13.4236C6.85462 11.3631 7.44011 9.86898 8.75862 8.5606C9.74161 7.58519 10.7485 7.01965 11.9453 6.77074C12.2769 6.70179 13.2477 6.61907 14.1027 6.58704L15.6571 6.52871L15.975 6.27631C16.15 6.1375 16.3785 5.85805 16.483 5.65535C16.6682 5.29625 16.6724 5.23361 16.6494 3.2052L16.6257 1.12361L16.3876 0.781021C16.239 0.56712 15.9906 0.359442 15.7267 0.228264C15.3249 0.0285515 15.2393 0.0186778 14.0102 0.0291322C13.2986 0.0351891 12.417 0.0713649 12.051 0.109449ZM35.0078 0.106296C31.4169 0.46017 27.9647 2.41755 25.7983 5.32828C24.5254 7.03849 23.6518 9.16181 23.3062 11.3852C23.2202 11.9392 23.1967 14.2079 23.1967 21.9641C23.1967 32.942 23.1642 32.2766 23.7566 33.4048C24.158 34.1692 25.1475 35.1256 25.9118 35.4876C27.036 36.0202 27.0982 36.0249 33.0532 36.0249C38.9132 36.0249 39.0742 36.0138 40.0743 35.544C41.3916 34.9252 42.4124 33.6717 42.745 32.2648C42.9277 31.4917 42.9227 20.8782 42.7392 20.1016C42.5288 19.2115 42.1498 18.5486 41.449 17.8455C40.7145 17.1086 39.7826 16.6062 38.8687 16.4544C38.5372 16.3993 37.0374 16.3635 35.0665 16.3635C31.9923 16.3635 31.7865 16.3541 31.3574 16.1939C30.8362 15.9994 30.3163 15.5342 30.0439 15.0186C29.8824 14.7129 29.8513 14.5073 29.8244 13.5659C29.7605 11.3296 30.368 9.79621 31.8773 8.38445C33.3417 7.01476 34.6704 6.58389 37.4615 6.5736C38.581 6.56953 38.9043 6.44242 39.3295 5.83922L39.5825 5.48036L39.6097 3.51676C39.6396 1.34689 39.6036 1.1022 39.1844 0.625947C38.7194 0.0976667 38.4309 0.0204203 36.9625 0.0312066C36.2534 0.0364338 35.3738 0.0702032 35.0078 0.106296Z" fill="#102039"/>
</svg>
