<svg width="220" height="88" viewBox="0 0 220 88" fill="none" xmlns="http://www.w3.org/2000/svg">
<path d="M54.2795 41.9382L42.13 29.7888C40.9904 28.6492 39.1429 28.6492 38.0041 29.7888L25.8547 41.9382C24.7151 43.0779 24.7151 44.9254 25.8547 46.0641L38.0041 58.2135C39.1438 59.3532 40.9913 59.3532 42.13 58.2135L54.2795 46.0641C55.4191 44.9245 55.4191 43.077 54.2795 41.9382ZM40.2118 48.4284C37.6511 48.5098 35.5585 46.4172 35.6399 43.8565C35.7142 41.5374 37.6024 39.6483 39.9215 39.5749C42.4822 39.4935 44.5748 41.5861 44.4934 44.1467C44.4191 46.4658 42.5309 48.3549 40.2118 48.4284Z" fill="url(#paint0_linear_470_2235)"/>
<path d="M65.7464 39.3188H67.4969C67.8024 39.3188 68.0606 39.5437 68.1037 39.846L68.3984 41.9364H68.4598C69.5991 39.8116 71.6626 39.1338 73.172 39.1338C73.3937 39.1338 73.5938 39.1413 73.7799 39.1553C74.0983 39.1801 74.3426 39.4469 74.3426 39.7664V41.9665C74.3426 42.3226 74.0402 42.6067 73.6852 42.5765C73.4851 42.5593 73.2828 42.5529 73.0795 42.5529C70.9235 42.5529 68.7675 43.8461 68.7675 47.0801V55.5224C68.7675 55.8602 68.4931 56.1345 68.1553 56.1345H65.7464C65.4086 56.1335 65.1343 55.8591 65.1343 55.5213V39.931C65.1343 39.5932 65.4086 39.3188 65.7464 39.3188Z" fill="#24272A"/>
<path d="M81.6727 41.1981H81.7341C82.6883 39.8737 84.4129 38.9194 86.4151 38.9194C90.0795 38.9194 92.4206 41.0442 92.4206 44.9862V55.5221C92.4206 55.8599 92.1462 56.1342 91.8084 56.1342H89.3996C89.0617 56.1342 88.7874 55.8599 88.7874 55.5221V46.0943C88.7874 43.5069 87.6793 42.2449 85.3995 42.2449C83.3672 42.2449 81.6727 43.4455 81.6727 45.8791V55.5221C81.6727 55.8599 81.3984 56.1342 81.0606 56.1342H78.6517C78.3139 56.1342 78.0396 55.8599 78.0396 55.5221V32.078C78.0396 31.7402 78.3139 31.4658 78.6517 31.4658H81.0606C81.3984 31.4658 81.6727 31.7402 81.6727 32.078V41.197V41.1981Z" fill="#24272A"/>
<path d="M95.6243 47.7255C95.6243 42.6131 99.3511 38.9175 104.186 38.9175C109.021 38.9175 112.716 42.6131 112.716 47.7255C112.716 52.838 109.052 56.5336 104.186 56.5336C99.3199 56.5336 95.6243 52.838 95.6243 47.7255ZM109.052 47.7255C109.052 44.2451 106.681 42.244 104.186 42.244C101.691 42.244 99.2897 44.2462 99.2897 47.7255C99.2897 51.2049 101.692 53.2071 104.186 53.2071C106.68 53.2071 109.052 51.2049 109.052 47.7255Z" fill="#24272A"/>
<path d="M138.987 44.9537V55.5208C138.987 55.8587 138.712 56.133 138.375 56.133H135.966C135.628 56.133 135.353 55.8587 135.353 55.5208V45.6003C135.353 43.4443 134.522 42.305 132.52 42.305C130.518 42.305 129.409 43.8445 129.409 45.539V55.5208C129.409 55.8587 129.135 56.133 128.797 56.133H126.388C126.051 56.133 125.776 55.8587 125.776 55.5208V45.6003C125.776 43.4443 124.945 42.305 122.942 42.305C120.94 42.305 119.862 43.9371 119.862 45.723V55.5198C119.862 55.8576 119.588 56.1319 119.25 56.1319H116.841C116.503 56.1319 116.229 55.8576 116.229 55.5198V39.9295C116.229 39.5917 116.503 39.3173 116.841 39.3173H118.512C118.812 39.3173 119.067 39.5346 119.117 39.8305L119.433 41.7498H119.525C120.387 40.1791 121.897 38.916 124.084 38.916C126.089 38.916 127.451 39.6885 128.33 41.0021C128.564 41.3507 129.067 41.3851 129.324 41.0527C130.337 39.7444 131.766 38.916 133.631 38.916C137.297 38.916 138.99 41.3797 138.99 44.9527L138.987 44.9537Z" fill="#24272A"/>
<path d="M147.148 40.2985C147.148 40.8354 147.795 41.1237 148.181 40.7515C149.397 39.5777 151.106 38.9193 152.815 38.9193C156.757 38.9193 160.33 42.3373 160.33 47.7274C160.33 53.1174 156.634 56.5354 152.692 56.5354C150.786 56.5354 149.034 55.7597 147.793 54.4084C147.439 54.0233 146.799 54.2105 146.728 54.7301L146.606 55.607C146.564 55.9103 146.305 56.1352 145.999 56.1352H144.127C143.789 56.1352 143.515 55.8609 143.515 55.523V32.079C143.515 31.7411 143.789 31.4668 144.127 31.4668H146.536C146.874 31.4668 147.148 31.7411 147.148 32.079V40.2985ZM147.087 47.7274C147.087 50.9614 149.15 53.2089 151.861 53.2089C154.571 53.2089 156.665 50.9603 156.665 47.7575C156.665 44.5546 154.571 42.2448 151.83 42.2448C149.09 42.2448 147.088 44.5234 147.088 47.7263L147.087 47.7274Z" fill="#24272A"/>
<path d="M163.532 49.5428V39.931C163.532 39.5932 163.807 39.3188 164.144 39.3188H166.553C166.891 39.3188 167.166 39.5932 167.166 39.931V49.574C167.166 51.8838 168.459 53.2082 170.646 53.2082C172.833 53.2082 174.28 51.8838 174.28 49.5428V39.931C174.28 39.5932 174.555 39.3188 174.892 39.3188H177.301C177.639 39.3188 177.913 39.5932 177.913 39.931V49.5126C177.913 53.6396 175.142 56.5348 170.645 56.5348C166.148 56.5348 163.531 53.6396 163.531 49.5438L163.532 49.5428Z" fill="#24272A"/>
<path d="M193.252 40.6687V42.5267C193.252 42.9882 192.759 43.2916 192.354 43.0711C191.201 42.4396 189.711 42.0296 188.201 42.0296C186.292 42.0296 185.245 42.7688 185.245 43.9393C185.245 45.2024 186.508 45.6639 188.633 46.2804C191.282 46.9883 194.238 47.8813 194.238 51.3315C194.238 54.5032 191.743 56.5365 187.586 56.5365C185.459 56.5365 183.469 55.9846 181.956 54.9335C181.795 54.8216 181.703 54.6334 181.703 54.4375V52.4461C181.703 51.948 182.26 51.664 182.67 51.948C183.943 52.8291 185.55 53.4564 187.462 53.4564C189.526 53.4564 190.696 52.5946 190.696 51.3627C190.696 49.977 189.249 49.5144 186.939 48.8065C184.198 48.0061 181.704 47.0206 181.704 44.0329C181.704 41.0452 184.107 38.9204 188.08 38.9204C189.873 38.9204 191.718 39.3938 192.96 40.1458C193.143 40.2566 193.254 40.4557 193.254 40.6698L193.252 40.6687Z" fill="#24272A"/>
<defs>
<linearGradient id="paint0_linear_470_2235" x1="31.929" y1="52.1393" x2="48.2043" y2="35.864" gradientUnits="userSpaceOnUse">
<stop stop-color="#2A7DE1"/>
<stop offset="1" stop-color="#00C1DE"/>
</linearGradient>
</defs>
</svg>
