<svg width="220" height="88" viewBox="0 0 220 88" fill="none" xmlns="http://www.w3.org/2000/svg">
<path d="M68.9412 46.6606L70.0332 43.0975V18.694C57.2707 18.694 55.9416 23.5884 55.9416 28.2609V55.0605C55.9416 56.4484 55.8067 57.9211 55.5261 59.3633C62.2935 58.131 66.7082 53.949 68.9412 46.6606Z" fill="#0D0D0D"/>
<path d="M36.2728 24.2658H33.4525V21.4803H36.2728V24.2658ZM39.0898 28.475H36.2728V25.6873H39.0898V28.475ZM36.2564 31.9804H33.4688V29.1939H36.2564V31.9804ZM33.4383 36.1592H30.6518V33.3726H33.4383V36.1592ZM27.8174 21.4803H25.0004V18.6644H27.8174V21.4803Z" fill="#39A2E1"/>
<path d="M30.6376 38.9437H33.4514V45.1509H36.2728V34.766H39.0898V55.0615C39.0898 64.6916 47.519 69.3369 47.519 69.3369C33.36 69.3369 25.0004 60.7554 25.0004 49.3351V26.3705H27.8174V41.7302H30.6376V38.9437Z" fill="#39A2E1"/>
<path d="M49.4952 60.8686C45.7362 60.6978 42.8442 59.7439 40.6036 58.3637C42.1209 64.9494 47.7952 68.1841 48.0693 68.3374L49.7421 69.2598C62.5415 68.4049 70.0332 60.142 70.0332 49.3373V46.9956C66.9911 56.9215 59.9105 61.3373 49.4952 60.8686Z" fill="url(#paint0_linear_470_2247)"/>
<path d="M33.4355 27.082H30.6514V24.2954H33.4363L33.4355 27.082Z" fill="#39A2E1"/>
<path d="M151.88 48.1333C149.453 48.1333 147.559 47.4611 146.254 46.132C144.919 44.7768 144.261 42.8136 144.3 40.2957L144.299 28.5426H144.324C144.975 28.5426 147.101 28.697 147.101 30.6853L147.102 40.9135C147.176 43.9502 148.917 45.6883 151.88 45.6883C154.842 45.6883 156.583 43.948 156.656 40.9113V30.6853C156.656 28.697 158.783 28.5426 159.436 28.5426H159.46L159.457 40.2979C159.498 42.8136 158.841 44.7768 157.505 46.1331C156.198 47.46 154.306 48.1333 151.88 48.1333ZM87.2042 48.1333C84.7755 48.1333 82.883 47.4611 81.5778 46.132C80.2433 44.7768 79.5864 42.8136 79.6277 40.2957L79.6658 28.5426H79.6897C80.3412 28.5426 82.4675 28.697 82.4675 30.6853L82.4284 40.9135C82.5013 43.9502 84.2415 45.6883 87.2032 45.6883C90.1681 45.6883 91.9083 43.948 91.9812 40.9113L92.0225 30.6853C92.0225 28.697 94.15 28.5426 94.8015 28.5426H94.8265L94.783 40.2979C94.8232 42.8136 94.1652 44.7768 92.8306 46.1331C91.5244 47.46 89.6297 48.1333 87.2042 48.1333ZM131.992 45.6883C127.234 45.6883 126.524 41.1071 126.524 38.3749C126.524 36.1757 127.055 30.9757 131.992 30.9757C136.75 30.9757 137.461 35.6438 137.461 38.3749C137.461 40.5741 136.927 45.6883 131.992 45.6883ZM142.737 47.7494C142.737 47.4535 142.692 46.4648 142.128 45.8699C141.828 45.5567 141.429 45.3979 140.931 45.3979H137.657C139.419 43.6794 140.391 41.1985 140.391 38.3749C140.391 33.6589 138.183 28.5339 131.992 28.5339C125.801 28.5339 123.595 33.6589 123.595 38.3749C123.595 43.0899 125.798 48.129 131.981 48.1333L131.998 48.1311C132.473 48.1094 132.966 48.0583 133.466 47.9789C133.765 47.9451 134.085 47.8886 134.393 47.8353L134.881 47.7483L142.737 47.7494ZM164.229 47.9495L164.227 30.6863C164.227 28.6959 166.353 28.5426 167.005 28.5426H167.03V47.6308C167.03 47.7151 166.997 47.796 166.937 47.8558C166.878 47.9155 166.797 47.9492 166.712 47.9495H164.229ZM117.125 48.0158L117.122 30.6853C117.122 28.697 119.25 28.5426 119.901 28.5426H119.926V47.6961C119.926 47.7804 119.893 47.8613 119.833 47.921C119.774 47.9808 119.693 48.0145 119.609 48.0147L117.125 48.0158ZM186.489 47.9495V30.6385C186.489 28.6481 188.609 28.4947 189.262 28.4947H189.287V47.6308C189.287 47.7151 189.253 47.796 189.194 47.8558C189.134 47.9155 189.053 47.9492 188.969 47.9495H186.489ZM169.787 28.5904V31.0333H175.516V47.9506H177.998C178.17 47.9506 178.312 47.8092 178.317 47.6395V31.0333H183.535C183.706 31.0333 183.848 30.8919 183.85 30.7233V28.5904H169.787Z" fill="#4F4C4D"/>
<path d="M169.833 28.5904V31.0333H175.563V47.9506H178.046C178.217 47.9506 178.359 47.8092 178.361 47.6395V31.0333H183.582C183.754 31.0333 183.896 30.8919 183.899 30.7233V28.5904H169.833ZM106.988 45.4979H102.529V39.1515H106.692C107.998 39.1515 110.188 39.6899 110.188 42.3296C110.188 44.7779 108.303 45.4359 106.987 45.499M109.435 33.8938C109.435 34.9216 109.119 35.7689 108.47 36.1866C108.009 36.4879 107.365 36.6521 106.475 36.7021H102.339V31.0735H106.316C108.55 31.1606 109.434 32.0742 109.434 33.8927M109.758 37.9279L109.518 37.855L109.748 37.755C111.36 37.0545 112.363 35.4187 112.363 33.7133C112.363 30.5743 110.14 28.6318 106.27 28.6318H99.5381V47.9484H106.268C106.457 47.9517 106.645 47.9538 106.836 47.9538C107.612 47.9538 108.616 47.9103 109.49 47.5808C111.611 46.7998 112.927 44.8965 112.927 42.8408C112.927 41.0734 112.097 38.6207 109.759 37.9257M80.0072 53.7651H81.0426L83.6041 57.8982H83.6193V53.7651H84.5547V59.3741H83.517L80.9643 55.2498H80.9404V59.3741H80.0072V53.7651ZM95.1048 53.7651H99.1433V54.6135H96.087V56.0829H98.9149V56.8834H96.087V58.5247H99.1977V59.3741H95.1048V53.7651ZM109.014 53.7651H113.556V54.6135H111.772V59.3741H110.79V54.6135H109.014V53.7651ZM123.287 53.7651H124.284L125.298 58.0548H125.313L126.444 53.7651H127.449L128.55 58.0548H128.565L129.609 53.7651H130.609L129.061 59.3741H128.063L126.939 55.0845H126.924L125.775 59.3741H124.764L123.287 53.7651ZM142.892 54.433C142.623 54.4259 142.357 54.4881 142.12 54.6135C141.907 54.7301 141.725 54.8957 141.589 55.0964C141.449 55.3067 141.347 55.5397 141.287 55.7849C141.156 56.2998 141.156 56.8395 141.287 57.3544C141.352 57.6122 141.454 57.8406 141.589 58.0429C141.726 58.2441 141.903 58.4061 142.12 58.5258C142.357 58.6512 142.623 58.7134 142.892 58.7063C143.193 58.7063 143.449 58.6465 143.666 58.5258C143.884 58.4061 144.06 58.2441 144.198 58.0429C144.333 57.8406 144.434 57.6122 144.498 57.3544C144.566 57.0988 144.598 56.8377 144.598 56.5691C144.598 56.3026 144.566 56.0405 144.498 55.786C144.439 55.5405 144.337 55.3071 144.198 55.0964C144.061 54.8955 143.878 54.73 143.665 54.6135C143.448 54.4939 143.192 54.433 142.892 54.433ZM142.893 53.6303C143.312 53.6303 143.687 53.7097 144.02 53.8674C144.343 54.0174 144.631 54.2342 144.865 54.5037C145.095 54.7701 145.273 55.0823 145.394 55.439C145.518 55.7936 145.579 56.171 145.579 56.5702C145.579 56.9726 145.518 57.3533 145.394 57.709C145.28 58.052 145.1 58.3697 144.865 58.6443C144.631 58.9127 144.343 59.1278 144.02 59.2752C143.688 59.4296 143.312 59.5068 142.893 59.5068C142.474 59.5068 142.099 59.4307 141.765 59.2752C141.442 59.1275 141.154 58.9124 140.921 58.6443C140.693 58.3757 140.514 58.0657 140.391 57.709C140.268 57.3522 140.206 56.9726 140.206 56.5691C140.206 56.171 140.268 55.7936 140.391 55.4379C140.514 55.0823 140.693 54.7701 140.921 54.5037C141.165 54.2218 141.468 53.9973 141.809 53.8463C142.15 53.6953 142.52 53.6216 142.893 53.6303ZM156.835 56.3189H158.446C158.762 56.3189 158.998 56.245 159.162 56.0949C159.323 55.9459 159.404 55.7218 159.404 55.4238C159.41 55.2745 159.383 55.1257 159.326 54.9877C159.279 54.8819 159.204 54.7909 159.11 54.7244C159.015 54.6598 158.908 54.6168 158.795 54.5983C158.677 54.5765 158.556 54.5678 158.43 54.5678H156.835V56.3189ZM155.852 53.7651H158.532C159.15 53.7651 159.613 53.8989 159.924 54.1665C160.231 54.434 160.385 54.806 160.385 55.2813C160.385 55.55 160.346 55.7708 160.268 55.9448C160.19 56.1188 160.098 56.2624 159.994 56.369C159.905 56.4648 159.8 56.5433 159.683 56.6006C159.61 56.6365 159.535 56.6684 159.459 56.6964V56.7116C159.544 56.7225 159.634 56.7475 159.731 56.7899C159.828 56.8323 159.918 56.8987 160.003 56.99C160.084 57.0825 160.155 57.201 160.209 57.3479C160.265 57.4936 160.292 57.6774 160.292 57.8982C160.292 58.2278 160.316 58.528 160.368 58.7966C160.416 59.0674 160.494 59.2599 160.599 59.3731H159.545C159.471 59.2519 159.427 59.1152 159.416 58.9739C159.403 58.8329 159.396 58.6913 159.397 58.5497C159.397 58.293 159.38 58.0711 159.349 57.8862C159.317 57.7013 159.26 57.5447 159.176 57.4218C159.092 57.2989 158.98 57.2097 158.833 57.1521C158.656 57.0887 158.469 57.0592 158.281 57.0651H156.835V59.3741H155.852V53.7651ZM170.8 53.7651H171.781V56.3178L174.28 53.7651H175.49L173.249 56.0035L175.646 59.3741H174.42L172.582 56.6953L171.781 57.4882V59.3741H170.8V53.7651ZM186.039 57.5045C186.039 57.7198 186.076 57.9036 186.147 58.0548C186.218 58.2027 186.323 58.3308 186.455 58.4279C186.586 58.5258 186.737 58.5965 186.908 58.64C187.077 58.6835 187.262 58.7074 187.46 58.7074C187.677 58.7074 187.858 58.6813 188.011 58.6313C188.163 58.5812 188.286 58.5171 188.38 58.4388C188.475 58.3605 188.541 58.2713 188.585 58.1701C188.626 58.0668 188.647 57.9635 188.647 57.858C188.647 57.6426 188.599 57.4838 188.502 57.3827C188.415 57.2861 188.306 57.2119 188.184 57.1662C187.956 57.0845 187.725 57.0155 187.49 56.9596C187.223 56.8943 186.899 56.8084 186.51 56.7018C186.298 56.6511 186.096 56.5682 185.91 56.456C185.764 56.3653 185.635 56.2493 185.529 56.1134C185.435 55.9883 185.368 55.8545 185.328 55.7131C185.289 55.5717 185.27 55.4282 185.27 55.2813C185.263 55.036 185.318 54.7928 185.43 54.5744C185.542 54.3561 185.708 54.1697 185.911 54.0327C186.107 53.8957 186.327 53.7956 186.574 53.7292C186.82 53.664 187.069 53.6314 187.32 53.6314C187.614 53.6314 187.89 53.6694 188.149 53.7456C188.409 53.8217 188.636 53.9348 188.833 54.0871C189.028 54.2394 189.184 54.4253 189.3 54.6494C189.419 54.8893 189.478 55.1547 189.472 55.4227H188.49C188.464 55.0616 188.34 54.806 188.12 54.657C187.901 54.508 187.62 54.433 187.28 54.433C187.164 54.433 187.047 54.4449 186.926 54.4678C186.811 54.4897 186.701 54.5294 186.598 54.5852C186.499 54.6402 186.413 54.7168 186.348 54.8093C186.28 54.9147 186.246 55.0378 186.25 55.1628C186.25 55.3618 186.313 55.5184 186.437 55.6305C186.559 55.7425 186.72 55.8284 186.919 55.8861C186.94 55.8915 187.022 55.9122 187.167 55.9535L187.648 56.0818L188.171 56.22C188.342 56.2646 188.464 56.2972 188.536 56.3178C188.721 56.3755 188.881 56.4549 189.017 56.5539C189.153 56.6528 189.266 56.767 189.358 56.8954C189.45 57.0226 189.519 57.1608 189.562 57.3087C189.607 57.4544 189.629 57.6002 189.629 57.747C189.638 58.028 189.571 58.3063 189.437 58.553C189.312 58.7717 189.139 58.9586 188.93 59.099C188.712 59.2434 188.47 59.3483 188.215 59.4089C187.948 59.4743 187.674 59.5072 187.398 59.5068C187.08 59.5068 186.778 59.4688 186.496 59.3883C186.228 59.3187 185.976 59.1967 185.756 59.0294C185.543 58.8621 185.371 58.6481 185.253 58.404C185.128 58.1484 185.062 57.8493 185.057 57.5034L186.039 57.5045ZM192.837 30.2404H193.176C193.463 30.2404 193.725 30.2263 193.725 29.8967C193.725 29.6194 193.486 29.5769 193.267 29.5769H192.838L192.837 30.2404ZM192.514 29.3137H193.321C193.817 29.3137 194.049 29.5095 194.049 29.9108C194.049 30.2883 193.81 30.446 193.501 30.4786L194.098 31.4009H193.749L193.181 30.5025H192.838V31.4009H192.514V29.3137ZM193.21 31.8828C194.036 31.8828 194.675 31.2236 194.675 30.3492C194.675 29.4954 194.036 28.8373 193.21 28.8373C192.374 28.8373 191.735 29.4954 191.735 30.3492C191.735 31.2236 192.374 31.8828 193.21 31.8828ZM193.21 28.5752C194.184 28.5752 195 29.3431 195 30.3503C195 31.377 194.184 32.1449 193.21 32.1449C192.231 32.1449 191.411 31.377 191.411 30.3503C191.411 29.3431 192.231 28.5752 193.21 28.5752Z" fill="#4F4C4D"/>
<defs>
<linearGradient id="paint0_linear_470_2247" x1="40.6036" y1="58.1277" x2="70.0321" y2="58.1277" gradientUnits="userSpaceOnUse">
<stop stop-color="#656263"/>
<stop offset="1" stop-color="#A7A5A6"/>
</linearGradient>
</defs>
</svg>
