<svg width="220" height="88" viewBox="0 0 220 88" fill="none" xmlns="http://www.w3.org/2000/svg">
<path fill-rule="evenodd" clip-rule="evenodd" d="M33.4585 50.9834L55.4505 28.9959C55.9242 28.5222 56.6884 28.5222 57.1621 28.9959L64.3349 36.1642C64.8086 36.6379 64.8086 37.4066 64.3349 37.8758L43.2009 59.0053C42.7272 59.479 41.9585 59.479 41.4848 59.0053L33.4585 50.9834Z" fill="black"/>
<path fill-rule="evenodd" clip-rule="evenodd" d="M20.355 37.8802C19.8813 37.4065 19.8813 36.6378 20.355 36.1686L27.5278 29.0003C28.0015 28.5266 28.7702 28.5266 29.2439 29.0003L40.3628 40.1147L31.4739 48.9946L20.355 37.8802Z" fill="black"/>
<path d="M80.052 32.6787H84.4406L91.3631 51.0776L98.2855 32.6787H102.674L93.7272 56.3108H88.999L80.052 32.6787Z" fill="black"/>
<path d="M116.483 53.781C116.483 53.781 114.289 56.6501 109.561 56.6501C104.158 56.6501 99.9927 51.9264 100.909 46.5546C101.619 42.4074 105.369 39.3461 109.579 39.4355C114.209 39.5294 117.498 43.2073 117.498 47.7032C117.498 48.7176 117.328 49.5623 117.328 49.5623H105.007C105.414 51.4214 107.031 53.1062 109.735 53.1062C112.604 53.1062 114.294 51.046 114.294 51.046L116.483 53.781ZM113.275 46.3535C112.77 44.4944 111.415 43.1448 109.221 43.1448C106.857 43.1448 105.507 44.4944 105.002 46.3535H113.275Z" fill="black"/>
<path d="M120.64 39.7712H124.523V42.1353H124.693C124.693 42.1353 126.382 39.436 129.421 39.436H130.096V43.6548C130.096 43.6548 129.591 43.485 128.746 43.485C126.382 43.485 124.528 45.3441 124.528 48.2132V56.3155H120.644V39.7712H120.64Z" fill="black"/>
<path d="M132.532 32.6787H136.415V47.0287L142.998 39.771H147.726L141.479 46.689L148.061 56.3108H143.673L138.945 49.3883L136.411 52.2574V56.3108H132.527V32.6787H132.532Z" fill="black"/>
<path d="M159.551 54.1164H159.381C159.381 54.1164 157.862 56.6503 154.488 56.6503C151.279 56.6503 149.085 54.456 149.085 51.9221C149.085 49.2228 151.109 47.1939 153.978 46.6889L159.551 45.6744C159.551 44.4946 158.201 43.1405 156.342 43.1405C153.875 43.1405 152.289 45.165 152.289 45.165L149.925 42.8009C149.925 42.8009 152.289 39.4268 156.508 39.4268C160.561 39.4268 163.43 42.3986 163.43 46.0096V56.3062H159.547V54.1164H159.551ZM159.551 48.7133L155.668 49.3882C153.643 49.7591 152.968 50.4026 152.968 51.4126C152.968 52.4226 153.983 53.4371 155.502 53.4371C157.696 53.4371 159.556 51.578 159.556 49.2183V48.7133H159.551Z" fill="black"/>
<path d="M179.068 53.9467H178.898C178.898 53.9467 177.378 56.646 173.495 56.646C169.611 56.646 166.067 53.1021 166.067 48.0387C166.067 42.9753 169.611 39.4314 173.495 39.4314C177.378 39.4314 178.898 42.1307 178.898 42.1307H179.068V32.6787H182.951V56.3108H179.068V53.9467ZM179.068 48.0387C179.068 45.3394 177.043 43.3105 174.509 43.3105C171.975 43.3105 169.951 45.3349 169.951 48.0387C169.951 50.738 171.975 52.7669 174.509 52.7669C177.043 52.7669 179.068 50.7424 179.068 48.0387Z" fill="black"/>
<path d="M196.121 54.1164H195.951C195.951 54.1164 194.432 56.6503 191.058 56.6503C187.849 56.6503 185.655 54.456 185.655 51.9221C185.655 49.2228 187.679 47.1939 190.548 46.6889L196.121 45.6744C196.121 44.4946 194.771 43.1405 192.912 43.1405C190.45 43.1405 188.859 45.165 188.859 45.165L186.495 42.8009C186.495 42.8009 188.859 39.4268 193.078 39.4268C197.131 39.4268 200 42.3986 200 46.0096V56.3062H196.116V54.1164H196.121ZM196.121 48.7133L192.237 49.3882C190.213 49.7591 189.538 50.4026 189.538 51.4126C189.538 52.4226 190.553 53.4371 192.072 53.4371C194.266 53.4371 196.125 51.578 196.125 49.2183V48.7133H196.121Z" fill="black"/>
</svg>
